SplineFontDB: 3.0
FontName: FrancoisOne
FullName: Francois One
FamilyName: Francois One
Weight: Book
Copyright: Copyright (c) 2011 by vernon adams. All rights reserved.
Version: 1.000
ItalicAngle: 0
UnderlinePosition: -103
UnderlineWidth: 102
Ascent: 1638
Descent: 410
sfntRevision: 0x00010000
LayerCount: 2
Layer: 0 1 "Back"  1
Layer: 1 1 "Fore"  0
XUID: [1021 759 1887733602 1870949]
FSType: 0
OS2Version: 2
OS2_WeightWidthSlopeOnly: 0
OS2_UseTypoMetrics: 1
CreationTime: 1296813720
ModificationTime: 1304372425
PfmFamily: 17
TTFWeight: 400
TTFWidth: 5
LineGap: 0
VLineGap: 0
Panose: 2 0 5 3 4 0 0 2 0 4
OS2TypoAscent: 552
OS2TypoAOffset: 1
OS2TypoDescent: -259
OS2TypoDOffset: 1
OS2TypoLinegap: 0
OS2WinAscent: -41
OS2WinAOffset: 1
OS2WinDescent: -4
OS2WinDOffset: 1
HheadAscent: -41
HheadAOffset: 1
HheadDescent: 4
HheadDOffset: 1
OS2SubXSize: 1434
OS2SubYSize: 1331
OS2SubXOff: 0
OS2SubYOff: 287
OS2SupXSize: 1434
OS2SupYSize: 1331
OS2SupXOff: 0
OS2SupYOff: 977
OS2StrikeYSize: 102
OS2StrikeYPos: 512
OS2Vendor: 'newt'
OS2CodePages: 20000193.4d000000
OS2UnicodeRanges: a00000ff.7800204b.14200000.00000000
Lookup: 258 0 0 "'kern' Horizontal Kerning in Latin lookup 0"  {"'kern' Horizontal Kerning in Latin lookup 0 subtable"  } ['kern' ('DFLT' <'dflt' > 'latn' <'dflt' > ) ]
Lookup: 258 0 0 "'kern' Horizontal Kerning in Latin lookup 1"  {"'kern' Horizontal Kerning in Latin lookup 1 subtable"  } ['kern' ('DFLT' <'dflt' > 'latn' <'dflt' > ) ]
MarkAttachClasses: 1
DEI: 91125
KernClass2: 40 32 "'kern' Horizontal Kerning in Latin lookup 1 subtable" 
 73 A Agrave Aacute Acircumflex Atilde Adieresis Aring Amacron Abreve Aogonek
 47 C Ccedilla Cacute Ccircumflex Cdotaccent Ccaron
 19 D Eth Dcaron Dcroat
 100 E AE Egrave Eacute Ecircumflex Edieresis Emacron Ebreve Edotaccent Eogonek Ecaron OE AEacute uni1EBC
 44 G Gcircumflex Gbreve Gdotaccent Gcommaaccent

StartChar: .notdef
Encoding: 65536 -1 0
Width: 748
Flags: W
LayerCount: 2
Fore
SplineSet
68 0 m 1,0,-1
 68 1365 l 1,1,-1
 612 1365 l 1,2,-1
 612 0 l 1,3,-1
 68 0 l 1,0,-1
136 68 m 1,4,-1
 544 68 l 1,5,-1
 544 1297 l 1,6,-1
 136 1297 l 1,7,-1
 136 68 l 1,4,-1
EndSplineSet
EndChar

StartChar: exclam
Encoding: 33 33 7
Width: 543
Flags: W
LayerCount: 2
Fore
SplineSet
127 1536 m 1,0,-1
 415 1536 l 1,1,-1
 368 448 l 1,2,-1
 176 448 l 1,3,-1
 127 1536 l 1,0,-1
127 -12 m 1,4,-1
 127 300 l 1,5,-1
 415 300 l 1,6,-1
 415 0 l 1,7,-1
 127 -12 l 1,4,-1
EndSplineSet
EndChar

StartChar: quotedbl
Encoding: 34 34 8
Width: 836
Flags: W
LayerCount: 2
Fore
SplineSet
370 1536 m 1,0,-1
 322 960 l 1,1,-1
 130 948 l 1,2,-1
 82 1536 l 1,3,-1
 370 1536 l 1,0,-1
754 1536 m 1,4,-1
 706 960 l 1,5,-1
 514 948 l 1,6,-1
 466 1536 l 1,7,-1
 754 1536 l 1,4,-1
EndSplineSet
EndChar

StartChar: numbersign
Encoding: 35 35 9
Width: 1283
Flags: W
LayerCount: 2
Fore
SplineSet
112 1198 m 1,0,-1
 319 1198 l 1,1,-1
 364 1536 l 1,2,-1
 664 1536 l 1,3,-1
 619 1198 l 1,4,-1
 805 1198 l 1,5,-1
 850 1536 l 1,6,-1
 1150 1536 l 1,7,-1
 1105 1198 l 1,8,-1
 1219 1198 l 1,9,-1
 1219 960 l 1,10,-1
 1074 960 l 1,11,-1
 1030 622 l 1,12,-1
 1171 622 l 1,13,-1
 1171 384 l 1,14,-1
 999 384 l 1,15,-1
 949 0 l 1,16,-1
 649 0 l 1,17,-1
 699 384 l 1,18,-1
 513 384 l 1,19,-1
 463 0 l 1,20,-1
 163 0 l 1,21,-1
 213 384 l 1,22,-1
 64 384 l 1,23,-1
 64 622 l 1,24,-1
 244 622 l 1,25,-1
 288 960 l 1,26,-1
 112 960 l 1,27,-1
 112 1198 l 1,0,-1
544 622 m 1,28,-1
 730 622 l 1,29,-1
 774 960 l 1,30,-1
 588 960 l 1,31,-1
 544 622 l 1,28,-1
EndSplineSet
EndChar

StartChar: dollar
Encoding: 36 36 10
Width: 1040
Flags: W
LayerCount: 2
Fore
SplineSet
458 29 m 1,0,1
 380 38 380 38 315 70.5 c 128,-1,2
 250 103 250 103 199 153.5 c 128,-1,3
 148 204 148 204 110 269.5 c 128,-1,4
 72 335 72 335 48 410 c 1,5,-1
 272 529 l 1,6,7
 289 501 289 501 308 468.5 c 128,-1,8
 327 436 327 436 349.5 405 c 128,-1,9
 372 374 372 374 398.5 346.5 c 128,-1,10
 425 319 425 319 458 302 c 1,11,-1
 458 657 l 1,12,-1
 311 744 l 2,13,14
 261 774 261 774 219.5 808 c 128,-1,15
 178 842 178 842 148 883 c 128,-1,16
 118 924 118 924 101.5 971.5 c 128,-1,17
 85 1019 85 1019 85 1076 c 0,18,19
 85 1161 85 1161 113 1234 c 128,-1,20
 141 1307 141 1307 190.5 1362.5 c 128,-1,21
 240 1418 240 1418 308.5 1453.5 c 128,-1,22
 377 1489 377 1489 458 1501 c 1,23,-1
 458 1632 l 1,24,-1
 602 1632 l 1,25,-1
 602 1501 l 1,26,27
 724 1484 724 1484 811.5 1406 c 128,-1,28
 899 1328 899 1328 943 1194 c 1,29,-1
 709 1079 l 1,30,31
 697 1105 697 1105 685.5 1130 c 128,-1,32
 674 1155 674 1155 662 1176.5 c 128,-1,33
 650 1198 650 1198 635.5 1215.5 c 128,-1,34
 621 1233 621 1233 602 1245 c 1,35,-1
 602 899 l 1,36,-1
 719 831 l 2,37,38
 801 783 801 783 852.5 735.5 c 128,-1,39
 904 688 904 688 933.5 643 c 128,-1,40
 963 598 963 598 974.5 556.5 c 128,-1,41
 986 515 986 515 988 481 c 1,42,43
 988 389 988 389 959 312.5 c 128,-1,44
 930 236 930 236 878.5 178 c 128,-1,45
 827 120 827 120 756.5 82.5 c 128,-1,46
 686 45 686 45 602 32 c 1,47,-1
 602 -96 l 1,48,-1
 458 -96 l 1,49,-1
 458 29 l 1,0,1
377 1107 m 0,50,51
 377 1066 377 1066 402 1035 c 128,-1,52
 427 1004 427 1004 458 984 c 1,53,-1
 458 1255 l 1,54,55
 416 1237 416 1237 396.5 1196.5 c 128,-1,56
 377 1156 377 1156 377 1107 c 0,50,51
682 434 m 0,57,58
 682 479 682 479 659 512.5 c 128,-1,59
 636 546 636 546 602 571 c 1,60,-1
 602 296 l 1,61,62
 637 315 637 315 659.5 352.5 c 128,-1,63
 682 390 682 390 682 434 c 0,57,58
EndSplineSet
EndChar

StartChar: percent
Encoding: 37 37 11
Width: 2096
Flags: W
LayerCount: 2
Fore
SplineSet
437 926 m 0,0,1
 473 926 473 926 500.5 944 c 128,-1,2
 528 962 528 962 546 992 c 128,-1,3
 564 1022 564 1022 573 1060 c 128,-1,4
 582 1098 582 1098 582 1138 c 256,5,6
 582 1178 582 1178 573 1216.5 c 128,-1,7
 564 1255 564 1255 546 1285.5 c 128,-1,8
 528 1316 528 1316 501 1334.5 c 128,-1,9
 474 1353 474 1353 438 1353 c 256,10,11
 402 1353 402 1353 375 1335 c 128,-1,12
 348 1317 348 1317 330 1287 c 128,-1,13
 312 1257 312 1257 303 1218.5 c 128,-1,14
 294 1180 294 1180 294 1140 c 0,15,16
 294 1101 294 1101 303 1063 c 128,-1,17
 312 1025 312 1025 330 995 c 128,-1,18
 348 965 348 965 374.5 946 c 128,-1,19
 401 927 401 927 437 926 c 0,0,1
439 732 m 0,20,21
 341 732 341 732 267.5 762 c 128,-1,22
 194 792 194 792 145 845.5 c 128,-1,23
 96 899 96 899 71.5 973 c 128,-1,24
 47 1047 47 1047 47 1136 c 0,25,26
 47 1223 47 1223 71.5 1296 c 128,-1,27
 96 1369 96 1369 145 1422.5 c 128,-1,28
 194 1476 194 1476 267.5 1506 c 128,-1,29
 341 1536 341 1536 439 1536 c 0,30,31
 535 1536 535 1536 608 1506 c 128,-1,32
 681 1476 681 1476 730.5 1422.5 c 128,-1,33
 780 1369 780 1369 805.5 1296 c 128,-1,34
 831 1223 831 1223 831 1136 c 0,35,36
 831 1047 831 1047 805.5 973 c 128,-1,37
 780 899 780 899 730.5 845.5 c 128,-1,38
 681 792 681 792 608 762 c 128,-1,39
 535 732 535 732 439 732 c 0,20,21
1655 193 m 0,40,41
 1691 193 1691 193 1718.5 211 c 128,-1,42
 1746 229 1746 229 1764 259 c 128,-1,43
 1782 289 1782 289 1791 327 c 128,-1,44
 1800 365 1800 365 1800 405 c 256,45,46
 1800 445 1800 445 1791 483.5 c 128,-1,47
 1782 522 1782 522 1764 552.5 c 128,-1,48
 1746 583 1746 583 1719 601.5 c 128,-1,49
 1692 620 1692 620 1656 620 c 256,50,51
 1620 620 1620 620 1593 602 c 128,-1,52
 1566 584 1566 584 1548 554 c 128,-1,53
 1530 524 1530 524 1521 485.5 c 128,-1,54
 1512 447 1512 447 1512 407 c 0,55,56
 1512 368 1512 368 1521 330 c 128,-1,57
 1530 292 1530 292 1548 262 c 128,-1,58
 1566 232 1566 232 1592.5 213 c 128,-1,59
 1619 194 1619 194 1655 193 c 0,40,41
1657 -1 m 0,60,61
 1559 -1 1559 -1 1485.5 29 c 128,-1,62
 1412 59 1412 59 1363 112.5 c 128,-1,63
 1314 166 1314 166 1289.5 240 c 128,-1,64
 1265 314 1265 314 1265 403 c 0,65,66
 1265 490 1265 490 1289.5 563 c 128,-1,67
 1314 636 1314 636 1363 689.5 c 128,-1,68
 1412 743 1412 743 1485.5 773 c 128,-1,69
 1559 803 1559 803 1657 803 c 0,70,71
 1753 803 1753 803 1826 773 c 128,-1,72
 1899 743 1899 743 1948.5 689.5 c 128,-1,73
 1998 636 1998 636 2023.5 563 c 128,-1,74
 2049 490 2049 490 2049 403 c 0,75,76
 2049 314 2049 314 2023.5 240 c 128,-1,77
 1998 166 1998 166 1948.5 112.5 c 128,-1,78
 1899 59 1899 59 1826 29 c 128,-1,79
 1753 -1 1753 -1 1657 -1 c 0,60,61
1096 1536 m 1,80,-1
 1372 1536 l 1,81,-1
 979 0 l 1,82,-1
 703 0 l 1,83,-1
 1096 1536 l 1,80,-1
EndSplineSet
EndChar

StartChar: ampersand
Encoding: 38 38 12
Width: 1275
Flags: W
LayerCount: 2
Fore
SplineSet
39 375 m 0,0,1
 39 452 39 452 65.5 517.5 c 128,-1,2
 92 583 92 583 134 638 c 128,-1,3
 176 693 176 693 228.5 737 c 128,-1,4
 281 781 281 781 332 815 c 1,5,6
 293 870 293 870 262 932 c 0,7,8
 236 986 236 986 214.5 1054 c 128,-1,9
 193 1122 193 1122 193 1196 c 0,10,11
 193 1277 193 1277 222.5 1342 c 128,-1,12
 252 1407 252 1407 303 1452.5 c 128,-1,13
 354 1498 354 1498 422.5 1522 c 128,-1,14
 491 1546 491 1546 569 1546 c 0,15,16
 644 1546 644 1546 709 1524.5 c 128,-1,17
 774 1503 774 1503 823 1461 c 128,-1,18
 872 1419 872 1419 900 1357 c 128,-1,19
 928 1295 928 1295 928 1214 c 0,20,21
 928 1151 928 1151 903.5 1093 c 128,-1,22
 879 1035 879 1035 840.5 984.5 c 128,-1,23
 802 934 802 934 755 892 c 128,-1,24
 708 850 708 850 663 819 c 1,25,-1
 850 531 l 1,26,27
 870 576 870 576 888 625 c 0,28,29
 904 667 904 667 920.5 719.5 c 128,-1,30
 937 772 937 772 948 825 c 1,31,-1
 1175 754 l 1,32,33
 1157 673 1157 673 1128 600.5 c 128,-1,34
 1099 528 1099 528 1071 473 c 0,35,36
 1038 409 1038 409 1003 353 c 1,37,38
 1048 308 1048 308 1100 280.5 c 128,-1,39
 1152 253 1152 253 1227 244 c 1,40,-1
 1227 -14 l 1,41,42
 1139 -14 1139 -14 1082.5 -3 c 128,-1,43
 1026 8 1026 8 985.5 29.5 c 128,-1,44
 945 51 945 51 912.5 82 c 128,-1,45
 880 113 880 113 840 153 c 1,46,47
 800 117 800 117 754 84.5 c 128,-1,48
 708 52 708 52 655 27 c 128,-1,49
 602 2 602 2 540.5 -13 c 128,-1,50
 479 -28 479 -28 409 -28 c 0,51,52
 332 -28 332 -28 265 2 c 128,-1,53
 198 32 198 32 147.5 85.5 c 128,-1,54
 97 139 97 139 68 213 c 128,-1,55
 39 287 39 287 39 375 c 0,0,1
443 646 m 1,56,57
 411 625 411 625 387 597.5 c 128,-1,58
 363 570 363 570 347 539 c 128,-1,59
 331 508 331 508 322.5 475 c 128,-1,60
 314 442 314 442 314 411 c 0,61,62
 314 376 314 376 325 344 c 128,-1,63
 336 312 336 312 358 288 c 128,-1,64
 380 264 380 264 414 250 c 128,-1,65
 448 236 448 236 495 236 c 0,66,67
 536 236 536 236 573 247 c 128,-1,68
 610 258 610 258 638 272 c 0,69,70
 671 288 671 288 699 309 c 1,71,72
 654 367 654 367 619.5 412.5 c 128,-1,73
 585 458 585 458 558.5 492.5 c 128,-1,74
 532 527 532 527 513.5 552 c 128,-1,75
 495 577 495 577 482 594 c 0,76,77
 452 634 452 634 443 646 c 1,56,57
555 971 m 1,78,79
 555 972 555 972 564.5 984 c 128,-1,80
 574 996 574 996 588 1016 c 128,-1,81
 602 1036 602 1036 619 1061.5 c 128,-1,82
 636 1087 636 1087 650 1115 c 128,-1,83
 664 1143 664 1143 673.5 1171.5 c 128,-1,84
 683 1200 683 1200 683 1227 c 0,85,86
 683 1256 683 1256 672.5 1278.5 c 128,-1,87
 662 1301 662 1301 645 1316 c 128,-1,88
 628 1331 628 1331 607 1338.5 c 128,-1,89
 586 1346 586 1346 565 1346 c 0,90,91
 545 1346 545 1346 525 1337 c 128,-1,92
 505 1328 505 1328 489.5 1312.5 c 128,-1,93
 474 1297 474 1297 464 1277 c 128,-1,94
 454 1257 454 1257 454 1235 c 0,95,96
 454 1207 454 1207 459.5 1182.5 c 128,-1,97
 465 1158 465 1158 477 1128.5 c 128,-1,98
 489 1099 489 1099 508.5 1061.5 c 128,-1,99
 528 1024 528 1024 555 971 c 1,78,79
EndSplineSet
EndChar

StartChar: quotesingle
Encoding: 39 39 13
Width: 451
Flags: W
LayerCount: 2
Fore
SplineSet
370 1536 m 1,0,-1
 322 960 l 1,1,-1
 130 948 l 1,2,-1
 82 1536 l 1,3,-1
 370 1536 l 1,0,-1
EndSplineSet
EndChar

StartChar: parenleft
Encoding: 40 40 14
Width: 682
Flags: W
LayerCount: 2
Fore
SplineSet
627 -76 m 1,0,1
 531 -68 531 -68 452.5 -31.5 c 128,-1,2
 374 5 374 5 311 63 c 128,-1,3
 248 121 248 121 201.5 198 c 128,-1,4
 155 275 155 275 124 363.5 c 128,-1,5
 93 452 93 452 77.5 549 c 128,-1,6
 62 646 62 646 62 745 c 0,7,8
 62 846 62 846 78 945 c 128,-1,9
 94 1044 94 1044 125.5 1134 c 128,-1,10
 157 1224 157 1224 204.5 1301 c 128,-1,11
 252 1378 252 1378 314.5 1435 c 128,-1,12
 377 1492 377 1492 455 1526 c 128,-1,13
 533 1560 533 1560 627 1563 c 1,14,-1
 627 1380 l 1,15,16
 558 1367 558 1367 506 1308 c 128,-1,17
 454 1249 454 1249 419.5 1161.5 c 128,-1,18
 385 1074 385 1074 367.5 965.5 c 128,-1,19
 350 857 350 857 350 745 c 0,20,21
 350 629 350 629 367.5 518 c 128,-1,22
 385 407 385 407 419.5 319 c 128,-1,23
 454 231 454 231 506 175 c 128,-1,24
 558 119 558 119 627 113 c 1,25,-1
 627 -76 l 1,0,1
EndSplineSet
EndChar

StartChar: parenright
Encoding: 41 41 15
Width: 683
Flags: W
LayerCount: 2
Fore
SplineSet
56 113 m 1,0,1
 125 119 125 119 177 175 c 128,-1,2
 229 231 229 231 263.5 319 c 128,-1,3
 298 407 298 407 315.5 518 c 128,-1,4
 333 629 333 629 333 745 c 0,5,6
 333 857 333 857 315.5 965.5 c 128,-1,7
 298 1074 298 1074 263.5 1161.5 c 128,-1,8
 229 1249 229 1249 177 1308 c 128,-1,9
 125 1367 125 1367 56 1380 c 1,10,-1
 56 1563 l 1,11,12
 149 1560 149 1560 227.5 1526 c 128,-1,13
 306 1492 306 1492 368.5 1435 c 128,-1,14
 431 1378 431 1378 478.5 1301 c 128,-1,15
 526 1224 526 1224 557.5 1134 c 128,-1,16
 589 1044 589 1044 605 945 c 128,-1,17
 621 846 621 846 621 745 c 0,18,19
 621 646 621 646 605.5 549 c 128,-1,20
 590 452 590 452 559 363.5 c 128,-1,21
 528 275 528 275 481.5 198 c 128,-1,22
 435 121 435 121 372 63 c 128,-1,23
 309 5 309 5 230 -31.5 c 128,-1,24
 151 -68 151 -68 56 -76 c 1,25,-1
 56 113 l 1,0,1
EndSplineSet
EndChar

StartChar: asterisk
Encoding: 42 42 16
Width: 1051
Flags: W
LayerCount: 2
Fore
SplineSet
657 1392 m 1,0,-1
 606 1030 l 1,1,-1
 922 1182 l 1,2,-1
 1002 909 l 1,3,-1
 652 855 l 1,4,-1
 914 595 l 1,5,-1
 687 428 l 1,6,-1
 526 748 l 1,7,-1
 365 428 l 1,8,-1
 138 595 l 1,9,-1
 400 855 l 1,10,-1
 50 909 l 1,11,-1
 130 1182 l 1,12,-1
 446 1030 l 1,13,-1
 395 1392 l 1,14,-1
 657 1392 l 1,0,-1
EndSplineSet
EndChar

StartChar: plus
Encoding: 43 43 17
Width: 855
Flags: W
LayerCount: 2
Fore
SplineSet
546 260 m 1,0,-1
 546 20 l 1,1,-1
 308 20 l 1,2,-1
 308 260 l 1,3,-1
 68 260 l 1,4,-1
 68 498 l 1,5,-1
 308 498 l 1,6,-1
 308 738 l 1,7,-1
 546 738 l 1,8,-1
 546 498 l 1,9,-1
 786 498 l 1,10,-1
 786 260 l 1,11,-1
 546 260 l 1,0,-1
EndSplineSet
EndChar

StartChar: comma
Encoding: 44 44 18
Width: 488
Flags: W
LayerCount: 2
Fore
SplineSet
387 288 m 1,0,-1
 387 0 l 2,1,2
 387 -54 387 -54 376.5 -95 c 128,-1,3
 366 -136 366 -136 349.5 -166.5 c 128,-1,4
 333 -197 333 -197 311 -218 c 128,-1,5
 289 -239 289 -239 267 -252 c 0,6,7
 214 -284 214 -284 147 -288 c 1,8,-1
 147 -96 l 1,9,10
 183 -96 183 -96 202.5 -81 c 128,-1,11
 222 -66 222 -66 231 -48 c 0,12,13
 242 -27 242 -27 243 0 c 1,14,-1
 99 0 l 1,15,-1
 99 288 l 1,16,-1
 387 288 l 1,0,-1
EndSplineSet
EndChar

StartChar: hyphen
Encoding: 45 45 19
Width: 804
Flags: W
LayerCount: 2
Fore
SplineSet
114 718 m 1,0,-1
 690 718 l 1,1,-1
 690 480 l 1,2,-1
 114 480 l 1,3,-1
 114 718 l 1,0,-1
EndSplineSet
EndChar

StartChar: period
Encoding: 46 46 20
Width: 489
Flags: W
LayerCount: 2
Fore
SplineSet
390 288 m 1,0,-1
 390 12 l 1,1,-1
 102 -12 l 1,2,-1
 102 288 l 1,3,-1
 390 288 l 1,0,-1
EndSplineSet
EndChar

StartChar: slash
Encoding: 47 47 21
Width: 628
Flags: W
LayerCount: 2
Fore
SplineSet
265 1536 m 1,0,-1
 565 1536 l 1,1,-1
 364 0 l 1,2,-1
 64 0 l 1,3,-1
 265 1536 l 1,0,-1
EndSplineSet
EndChar

StartChar: zero
Encoding: 48 48 22
Width: 1138
Flags: W
LayerCount: 2
Fore
SplineSet
568 -27 m 0,0,1
 467 -27 467 -27 393 8 c 128,-1,2
 319 43 319 43 267 103 c 128,-1,3
 215 163 215 163 182 243 c 128,-1,4
 149 323 149 323 130.5 413.5 c 128,-1,5
 112 504 112 504 104.5 599.5 c 128,-1,6
 97 695 97 695 97 786 c 0,7,8
 97 869 97 869 104.5 957.5 c 128,-1,9
 112 1046 112 1046 131 1130.5 c 128,-1,10
 150 1215 150 1215 183.5 1290.5 c 128,-1,11
 217 1366 217 1366 269 1423 c 128,-1,12
 321 1480 321 1480 394.5 1513 c 128,-1,13
 468 1546 468 1546 568 1546 c 0,14,15
 667 1546 667 1546 741 1513 c 128,-1,16
 815 1480 815 1480 867.5 1423 c 128,-1,17
 920 1366 920 1366 954 1290.5 c 128,-1,18
 988 1215 988 1215 1007.5 1130.5 c 128,-1,19
 1027 1046 1027 1046 1034.5 957.5 c 128,-1,20
 1042 869 1042 869 1042 786 c 0,21,22
 1041 695 1041 695 1033.5 599.5 c 128,-1,23
 1026 504 1026 504 1007 413.5 c 128,-1,24
 988 323 988 323 954.5 243 c 128,-1,25
 921 163 921 163 868.5 103 c 128,-1,26
 816 43 816 43 742 8 c 128,-1,27
 668 -27 668 -27 568 -27 c 0,0,1
568 228 m 256,28,29
 596 228 596 228 620.5 236 c 128,-1,30
 645 244 645 244 666 266 c 128,-1,31
 687 288 687 288 703 327 c 128,-1,32
 719 366 719 366 730.5 428 c 128,-1,33
 742 490 742 490 748 578 c 128,-1,34
 754 666 754 666 754 786 c 0,35,36
 754 900 754 900 749.5 995.5 c 128,-1,37
 745 1091 745 1091 726 1160.5 c 128,-1,38
 707 1230 707 1230 670 1269 c 128,-1,39
 633 1308 633 1308 568 1308 c 0,40,41
 502 1308 502 1308 465 1269 c 128,-1,42
 428 1230 428 1230 410.5 1160.5 c 128,-1,43
 393 1091 393 1091 389.5 995.5 c 128,-1,44
 386 900 386 900 386 786 c 0,45,46
 386 666 386 666 391.5 578 c 128,-1,47
 397 490 397 490 408 428 c 128,-1,48
 419 366 419 366 435 327 c 128,-1,49
 451 288 451 288 471 266 c 128,-1,50
 491 244 491 244 515.5 236 c 128,-1,51
 540 228 540 228 568 228 c 256,28,29
EndSplineSet
EndChar

StartChar: one
Encoding: 49 49 23
Width: 820
Flags: W
LayerCount: 2
Fore
SplineSet
96 251 m 1,0,-1
 293 251 l 1,1,-1
 293 1132 l 1,2,3
 256 1128 256 1128 222 1124 c 0,4,5
 193 1121 193 1121 161 1118.5 c 128,-1,6
 129 1116 129 1116 109 1116 c 2,7,-1
 83 1116 l 1,8,-1
 83 1331 l 1,9,-1
 432 1536 l 1,10,-1
 581 1536 l 1,11,-1
 581 251 l 1,12,-1
 780 251 l 1,13,-1
 768 0 l 1,14,-1
 96 0 l 1,15,-1
 96 251 l 1,0,-1
EndSplineSet
EndChar

StartChar: two
Encoding: 50 50 24
Width: 1033
Flags: W
LayerCount: 2
Fore
SplineSet
95 1148 m 1,0,1
 110 1224 110 1224 147 1293 c 128,-1,2
 184 1362 184 1362 241 1414 c 128,-1,3
 298 1466 298 1466 373 1497 c 128,-1,4
 448 1528 448 1528 538 1528 c 0,5,6
 623 1528 623 1528 699 1504.5 c 128,-1,7
 775 1481 775 1481 831 1433.5 c 128,-1,8
 887 1386 887 1386 920 1315.5 c 128,-1,9
 953 1245 953 1245 953 1152 c 0,10,11
 953 1070 953 1070 929 988.5 c 128,-1,12
 905 907 905 907 864 827 c 128,-1,13
 823 747 823 747 768 670 c 128,-1,14
 713 593 713 593 651.5 520 c 128,-1,15
 590 447 590 447 524.5 379.5 c 128,-1,16
 459 312 459 312 397 252 c 1,17,-1
 927 252 l 1,18,19
 927 214 927 214 923 184 c 128,-1,20
 919 154 919 154 914.5 125.5 c 128,-1,21
 910 97 910 97 906.5 67 c 128,-1,22
 903 37 903 37 903 0 c 1,23,-1
 64 0 l 1,24,-1
 64 223 l 1,25,26
 121 297 121 297 187 373 c 128,-1,27
 253 449 253 449 318 526 c 128,-1,28
 383 603 383 603 444 682 c 128,-1,29
 505 761 505 761 551 840 c 128,-1,30
 597 919 597 919 625 998 c 128,-1,31
 653 1077 653 1077 653 1156 c 0,32,33
 653 1184 653 1184 644.5 1210 c 128,-1,34
 636 1236 636 1236 620.5 1255 c 128,-1,35
 605 1274 605 1274 581.5 1285.5 c 128,-1,36
 558 1297 558 1297 528 1297 c 0,37,38
 499 1297 499 1297 475.5 1287 c 128,-1,39
 452 1277 452 1277 433.5 1261 c 128,-1,40
 415 1245 415 1245 401 1224.5 c 128,-1,41
 387 1204 387 1204 377 1183 c 0,42,43
 352 1133 352 1133 341 1070 c 1,44,-1
 95 1148 l 1,0,1
EndSplineSet
EndChar

StartChar: three
Encoding: 51 51 25
Width: 1039
Flags: W
LayerCount: 2
Fore
SplineSet
91 1241 m 1,0,1
 131 1319 131 1319 176 1374.5 c 128,-1,2
 221 1430 221 1430 273.5 1465.5 c 128,-1,3
 326 1501 326 1501 387 1517.5 c 128,-1,4
 448 1534 448 1534 522 1534 c 0,5,6
 598 1534 598 1534 670 1509.5 c 128,-1,7
 742 1485 742 1485 798.5 1437.5 c 128,-1,8
 855 1390 855 1390 889 1319 c 128,-1,9
 923 1248 923 1248 923 1155 c 0,10,11
 923 1123 923 1123 917 1078 c 128,-1,12
 911 1033 911 1033 887 984 c 128,-1,13
 863 935 863 935 816 887 c 128,-1,14
 769 839 769 839 687 801 c 1,15,16
 748 778 748 778 796 745.5 c 128,-1,17
 844 713 844 713 877 667.5 c 128,-1,18
 910 622 910 622 927 562.5 c 128,-1,19
 944 503 944 503 944 428 c 0,20,21
 944 318 944 318 909 233.5 c 128,-1,22
 874 149 874 149 814 91.5 c 128,-1,23
 754 34 754 34 674 4.5 c 128,-1,24
 594 -25 594 -25 504 -25 c 0,25,26
 425 -25 425 -25 350 -4.5 c 128,-1,27
 275 16 275 16 212 58 c 128,-1,28
 149 100 149 100 103 163.5 c 128,-1,29
 57 227 57 227 36 313 c 1,30,-1
 254 408 l 1,31,32
 268 374 268 374 285.5 343 c 128,-1,33
 303 312 303 312 329.5 288 c 128,-1,34
 356 264 356 264 393.5 250 c 128,-1,35
 431 236 431 236 485 236 c 0,36,37
 524 236 524 236 555 251.5 c 128,-1,38
 586 267 586 267 608.5 293 c 128,-1,39
 631 319 631 319 643 353 c 128,-1,40
 655 387 655 387 655 424 c 0,41,42
 655 503 655 503 629 551.5 c 128,-1,43
 603 600 603 600 559 626 c 128,-1,44
 515 652 515 652 456 660.5 c 128,-1,45
 397 669 397 669 330 669 c 1,46,-1
 330 899 l 1,47,48
 392 899 392 899 447 907.5 c 128,-1,49
 502 916 502 916 543.5 940 c 128,-1,50
 585 964 585 964 609 1006 c 128,-1,51
 633 1048 633 1048 633 1116 c 0,52,53
 633 1149 633 1149 624 1179.5 c 128,-1,54
 615 1210 615 1210 597 1233 c 128,-1,55
 579 1256 579 1256 552 1270 c 128,-1,56
 525 1284 525 1284 489 1284 c 0,57,58
 439 1284 439 1284 403.5 1259 c 128,-1,59
 368 1234 368 1234 344 1204 c 0,60,61
 316 1169 316 1169 297 1124 c 1,62,-1
 91 1241 l 1,0,1
EndSplineSet
EndChar

StartChar: four
Encoding: 52 52 26
Width: 1087
Flags: W
LayerCount: 2
Fore
SplineSet
568 384 m 1,0,-1
 45 384 l 1,1,-1
 45 614 l 1,2,-1
 555 1536 l 1,3,-1
 856 1536 l 1,4,-1
 856 614 l 1,5,-1
 1048 614 l 1,6,-1
 1024 384 l 1,7,-1
 856 384 l 1,8,-1
 856 12 l 1,9,-1
 568 -12 l 1,10,-1
 568 384 l 1,0,-1
568 614 m 1,11,-1
 568 1153 l 1,12,-1
 283 614 l 1,13,-1
 568 614 l 1,11,-1
EndSplineSet
EndChar

StartChar: five
Encoding: 53 53 27
Width: 1053
Flags: W
LayerCount: 2
Fore
SplineSet
309 434 m 1,0,1
 320 379 320 379 345 336 c 0,2,3
 355 318 355 318 369 300.5 c 128,-1,4
 383 283 383 283 401.5 269.5 c 128,-1,5
 420 256 420 256 443 247.5 c 128,-1,6
 466 239 466 239 495 239 c 0,7,8
 546 239 546 239 582 256.5 c 128,-1,9
 618 274 618 274 641 307 c 128,-1,10
 664 340 664 340 674.5 387 c 128,-1,11
 685 434 685 434 685 493 c 0,12,13
 685 538 685 538 674 584 c 128,-1,14
 663 630 663 630 640.5 666.5 c 128,-1,15
 618 703 618 703 584 726 c 128,-1,16
 550 749 550 749 503 749 c 0,17,18
 449 749 449 749 400.5 718 c 128,-1,19
 352 687 352 687 315 642 c 1,20,-1
 101 731 l 1,21,-1
 167 1536 l 1,22,-1
 922 1536 l 1,23,-1
 898 1296 l 1,24,-1
 417 1296 l 1,25,-1
 384 938 l 1,26,27
 411 949 411 949 443 958 c 0,28,29
 470 966 470 966 506 972.5 c 128,-1,30
 542 979 542 979 583 979 c 2,31,-1
 585 979 l 2,32,33
 671 979 671 979 744 940.5 c 128,-1,34
 817 902 817 902 870 836 c 128,-1,35
 923 770 923 770 953 682.5 c 128,-1,36
 983 595 983 595 983 498 c 0,37,38
 983 384 983 384 948.5 288 c 128,-1,39
 914 192 914 192 852.5 122.5 c 128,-1,40
 791 53 791 53 706.5 14 c 128,-1,41
 622 -25 622 -25 522 -25 c 0,42,43
 445 -25 445 -25 373.5 -0.5 c 128,-1,44
 302 24 302 24 242.5 71.5 c 128,-1,45
 183 119 183 119 140 188.5 c 128,-1,46
 97 258 97 258 78 348 c 1,47,-1
 309 434 l 1,0,1
EndSplineSet
EndChar

StartChar: six
Encoding: 54 54 28
Width: 1039
Flags: W
LayerCount: 2
Fore
SplineSet
93 774 m 0,0,1
 93 855 93 855 104.5 944 c 128,-1,2
 116 1033 116 1033 141 1119 c 128,-1,3
 166 1205 166 1205 205 1282.5 c 128,-1,4
 244 1360 244 1360 298 1418.5 c 128,-1,5
 352 1477 352 1477 422.5 1511.5 c 128,-1,6
 493 1546 493 1546 581 1546 c 0,7,8
 645 1546 645 1546 702.5 1521.5 c 128,-1,9
 760 1497 760 1497 805.5 1449.5 c 128,-1,10
 851 1402 851 1402 882 1333 c 128,-1,11
 913 1264 913 1264 925 1174 c 1,12,-1
 701 1122 l 1,13,14
 695 1150 695 1150 687.5 1182.5 c 128,-1,15
 680 1215 680 1215 665.5 1242.5 c 128,-1,16
 651 1270 651 1270 626.5 1288 c 128,-1,17
 602 1306 602 1306 562 1306 c 0,18,19
 521 1306 521 1306 492 1283.5 c 128,-1,20
 463 1261 463 1261 444 1224 c 128,-1,21
 425 1187 425 1187 413.5 1139.5 c 128,-1,22
 402 1092 402 1092 396 1042 c 128,-1,23
 390 992 390 992 388 943.5 c 128,-1,24
 386 895 386 895 386 856 c 1,25,26
 433 891 433 891 496.5 912.5 c 128,-1,27
 560 934 560 934 622 934 c 0,28,29
 701 934 701 934 765 899 c 128,-1,30
 829 864 829 864 873.5 805.5 c 128,-1,31
 918 747 918 747 942 670.5 c 128,-1,32
 966 594 966 594 966 512 c 0,33,34
 966 408 966 408 935 311 c 128,-1,35
 904 214 904 214 847.5 139 c 128,-1,36
 791 64 791 64 712 18.5 c 128,-1,37
 633 -27 633 -27 538 -27 c 0,38,39
 444 -27 444 -27 374.5 6 c 128,-1,40
 305 39 305 39 256 96.5 c 128,-1,41
 207 154 207 154 175 232 c 128,-1,42
 143 310 143 310 125 399 c 128,-1,43
 107 488 107 488 100 584 c 128,-1,44
 93 680 93 680 93 774 c 0,0,1
386 608 m 0,45,46
 386 576 386 576 386 536 c 128,-1,47
 386 496 386 496 389 454 c 128,-1,48
 392 412 392 412 399.5 372 c 128,-1,49
 407 332 407 332 422.5 300.5 c 128,-1,50
 438 269 438 269 463 249.5 c 128,-1,51
 488 230 488 230 525 230 c 0,52,53
 571 230 571 230 600.5 254.5 c 128,-1,54
 630 279 630 279 647 316 c 128,-1,55
 664 353 664 353 670.5 396 c 128,-1,56
 677 439 677 439 677 477 c 0,57,58
 677 516 677 516 669 554 c 128,-1,59
 661 592 661 592 643 623 c 128,-1,60
 625 654 625 654 595 673 c 128,-1,61
 565 692 565 692 521 692 c 0,62,63
 494 692 494 692 469.5 685 c 128,-1,64
 445 678 445 678 427 670 c 0,65,66
 406 660 406 660 388 649 c 1,67,68
 387 641 387 641 387 633 c 1,69,70
 386 626 386 626 386 619.5 c 128,-1,71
 386 613 386 613 386 608 c 0,45,46
EndSplineSet
EndChar

StartChar: seven
Encoding: 55 55 29
Width: 923
Flags: W
LayerCount: 2
Fore
SplineSet
161 0 m 1,0,1
 174 151 174 151 212 306.5 c 128,-1,2
 250 462 250 462 305.5 622.5 c 128,-1,3
 361 783 361 783 429 949 c 128,-1,4
 497 1115 497 1115 569 1288 c 1,5,-1
 38 1288 l 1,6,-1
 62 1536 l 1,7,-1
 890 1536 l 1,8,-1
 890 1323 l 1,9,10
 803 1151 803 1151 733.5 976.5 c 128,-1,11
 664 802 664 802 615.5 633 c 128,-1,12
 567 464 567 464 541 304 c 128,-1,13
 515 144 515 144 515 0 c 1,14,-1
 161 0 l 1,0,1
EndSplineSet
EndChar

StartChar: eight
Encoding: 56 56 30
Width: 1107
Flags: W
LayerCount: 2
Fore
SplineSet
81 371 m 0,0,1
 81 443 81 443 100.5 504 c 128,-1,2
 120 565 120 565 154.5 615.5 c 128,-1,3
 189 666 189 666 235.5 706.5 c 128,-1,4
 282 747 282 747 337 778 c 1,5,6
 235 838 235 838 180.5 922 c 128,-1,7
 126 1006 126 1006 126 1122 c 0,8,9
 126 1218 126 1218 160.5 1296.5 c 128,-1,10
 195 1375 195 1375 254.5 1430.5 c 128,-1,11
 314 1486 314 1486 394.5 1516 c 128,-1,12
 475 1546 475 1546 567 1546 c 0,13,14
 646 1546 646 1546 720 1521.5 c 128,-1,15
 794 1497 794 1497 851 1450 c 128,-1,16
 908 1403 908 1403 942.5 1334.5 c 128,-1,17
 977 1266 977 1266 977 1178 c 0,18,19
 977 1123 977 1123 959.5 1072.5 c 128,-1,20
 942 1022 942 1022 912 977.5 c 128,-1,21
 882 933 882 933 842 896 c 128,-1,22
 802 859 802 859 757 832 c 1,23,24
 812 798 812 798 862 759 c 128,-1,25
 912 720 912 720 950 672.5 c 128,-1,26
 988 625 988 625 1010 567.5 c 128,-1,27
 1032 510 1032 510 1032 440 c 0,28,29
 1032 326 1032 326 991.5 239 c 128,-1,30
 951 152 951 152 883 93 c 128,-1,31
 815 34 815 34 726.5 3.5 c 128,-1,32
 638 -27 638 -27 541 -27 c 0,33,34
 458 -27 458 -27 376 -2.5 c 128,-1,35
 294 22 294 22 228.5 71.5 c 128,-1,36
 163 121 163 121 122 196 c 128,-1,37
 81 271 81 271 81 371 c 0,0,1
369 398 m 0,38,39
 369 345 369 345 383 307 c 128,-1,40
 397 269 397 269 421.5 245 c 128,-1,41
 446 221 446 221 479.5 209.5 c 128,-1,42
 513 198 513 198 552 198 c 0,43,44
 588 198 588 198 622.5 207.5 c 128,-1,45
 657 217 657 217 684 237.5 c 128,-1,46
 711 258 711 258 727.5 291.5 c 128,-1,47
 744 325 744 325 744 373 c 0,48,49
 744 409 744 409 734 441 c 128,-1,50
 724 473 724 473 708 501 c 128,-1,51
 692 529 692 529 671 552 c 128,-1,52
 650 575 650 575 629 593 c 0,53,54
 578 636 578 636 514 667 c 1,55,56
 473 635 473 635 441 594 c 0,57,58
 414 559 414 559 391.5 509.5 c 128,-1,59
 369 460 369 460 369 398 c 0,38,39
406 1165 m 0,60,61
 406 1121 406 1121 421.5 1086.5 c 128,-1,62
 437 1052 437 1052 460.5 1025 c 128,-1,63
 484 998 484 998 512 976.5 c 128,-1,64
 540 955 540 955 566 939 c 1,65,66
 612 967 612 967 648 1001 c 0,67,68
 679 1030 679 1030 705 1069.5 c 128,-1,69
 731 1109 731 1109 731 1155 c 0,70,71
 731 1186 731 1186 718.5 1212.5 c 128,-1,72
 706 1239 706 1239 683.5 1258 c 128,-1,73
 661 1277 661 1277 630 1287.5 c 128,-1,74
 599 1298 599 1298 563 1298 c 0,75,76
 531 1298 531 1298 502.5 1288 c 128,-1,77
 474 1278 474 1278 452.5 1260.5 c 128,-1,78
 431 1243 431 1243 418.5 1218.5 c 128,-1,79
 406 1194 406 1194 406 1165 c 0,60,61
EndSplineSet
EndChar

StartChar: nine
Encoding: 57 57 31
Width: 1039
Flags: W
LayerCount: 2
Fore
SplineSet
946 745 m 0,0,1
 946 664 946 664 934.5 575 c 128,-1,2
 923 486 923 486 898 400 c 128,-1,3
 873 314 873 314 834 236.5 c 128,-1,4
 795 159 795 159 741 100.5 c 128,-1,5
 687 42 687 42 616.5 7.5 c 128,-1,6
 546 -27 546 -27 458 -27 c 0,7,8
 393 -27 393 -27 336 -2.5 c 128,-1,9
 279 22 279 22 233.5 69.5 c 128,-1,10
 188 117 188 117 157 186 c 128,-1,11
 126 255 126 255 114 345 c 1,12,-1
 338 397 l 1,13,14
 344 368 344 368 351.5 336 c 128,-1,15
 359 304 359 304 373.5 276.5 c 128,-1,16
 388 249 388 249 412.5 231 c 128,-1,17
 437 213 437 213 477 213 c 0,18,19
 518 213 518 213 547 235.5 c 128,-1,20
 576 258 576 258 595 295 c 128,-1,21
 614 332 614 332 625.5 379.5 c 128,-1,22
 637 427 637 427 643 477 c 128,-1,23
 649 527 649 527 650.5 575.5 c 128,-1,24
 652 624 652 624 653 663 c 1,25,26
 606 628 606 628 542.5 606.5 c 128,-1,27
 479 585 479 585 417 585 c 0,28,29
 337 585 337 585 273.5 620 c 128,-1,30
 210 655 210 655 165.5 713.5 c 128,-1,31
 121 772 121 772 97 848 c 128,-1,32
 73 924 73 924 73 1007 c 0,33,34
 73 1110 73 1110 104 1207.5 c 128,-1,35
 135 1305 135 1305 191.5 1380 c 128,-1,36
 248 1455 248 1455 327 1500.5 c 128,-1,37
 406 1546 406 1546 501 1546 c 0,38,39
 595 1546 595 1546 664.5 1513 c 128,-1,40
 734 1480 734 1480 783 1422.5 c 128,-1,41
 832 1365 832 1365 864 1287 c 128,-1,42
 896 1209 896 1209 914 1120 c 128,-1,43
 932 1031 932 1031 939 935 c 128,-1,44
 946 839 946 839 946 745 c 0,0,1
653 911 m 0,45,46
 653 943 653 943 653 983 c 128,-1,47
 653 1023 653 1023 650 1065 c 128,-1,48
 647 1107 647 1107 639.5 1147 c 128,-1,49
 632 1187 632 1187 616.5 1219 c 128,-1,50
 601 1251 601 1251 576 1270 c 128,-1,51
 551 1289 551 1289 514 1289 c 0,52,53
 468 1289 468 1289 438.5 1264.5 c 128,-1,54
 409 1240 409 1240 392 1203 c 128,-1,55
 375 1166 375 1166 368.5 1122.5 c 128,-1,56
 362 1079 362 1079 362 1042 c 0,57,58
 362 1003 362 1003 370 965 c 128,-1,59
 378 927 378 927 396 896 c 128,-1,60
 414 865 414 865 444 846 c 128,-1,61
 474 827 474 827 518 827 c 0,62,63
 545 827 545 827 569 833.5 c 128,-1,64
 593 840 593 840 611 848 c 0,65,66
 632 858 632 858 651 870 c 1,67,68
 651 878 651 878 652 886 c 0,69,70
 652 893 652 893 652.5 899.5 c 128,-1,71
 653 906 653 906 653 911 c 0,45,46
EndSplineSet
EndChar

StartChar: colon
Encoding: 58 58 32
Width: 516
Flags: W
LayerCount: 2
Fore
SplineSet
402 288 m 1,0,-1
 402 0 l 1,1,-1
 114 -12 l 1,2,-1
 114 288 l 1,3,-1
 402 288 l 1,0,-1
402 864 m 1,4,-1
 402 576 l 1,5,-1
 114 576 l 1,6,-1
 114 864 l 1,7,-1
 402 864 l 1,4,-1
EndSplineSet
EndChar

StartChar: semicolon
Encoding: 59 59 33
Width: 517
Flags: W
LayerCount: 2
Fore
SplineSet
403 288 m 1,0,-1
 403 0 l 2,1,2
 403 -54 403 -54 392.5 -95 c 128,-1,3
 382 -136 382 -136 365.5 -166.5 c 128,-1,4
 349 -197 349 -197 327 -218 c 128,-1,5
 305 -239 305 -239 283 -252 c 0,6,7
 230 -284 230 -284 163 -288 c 1,8,-1
 163 -96 l 1,9,10
 199 -96 199 -96 218.5 -81 c 128,-1,11
 238 -66 238 -66 247 -48 c 0,12,13
 258 -27 258 -27 259 0 c 1,14,-1
 115 -12 l 1,15,-1
 115 288 l 1,16,-1
 403 288 l 1,0,-1
403 864 m 1,17,-1
 403 576 l 1,18,-1
 115 576 l 1,19,-1
 115 864 l 1,20,-1
 403 864 l 1,17,-1
EndSplineSet
EndChar

StartChar: less
Encoding: 60 60 34
Width: 976
Flags: W
LayerCount: 2
Fore
SplineSet
56 439 m 1,0,-1
 56 704 l 1,1,-1
 866 1064 l 1,2,-1
 852 803 l 1,3,-1
 401 607 l 1,4,-1
 878 432 l 1,5,-1
 864 89 l 1,6,-1
 56 439 l 1,0,-1
EndSplineSet
EndChar

StartChar: equal
Encoding: 61 61 35
Width: 804
Flags: W
LayerCount: 2
Fore
SplineSet
114 526 m 1,0,-1
 690 526 l 1,1,-1
 690 288 l 1,2,-1
 114 288 l 1,3,-1
 114 526 l 1,0,-1
114 910 m 1,4,-1
 690 910 l 1,5,-1
 690 672 l 1,6,-1
 114 672 l 1,7,-1
 114 910 l 1,4,-1
EndSplineSet
EndChar

StartChar: greater
Encoding: 62 62 36
Width: 976
Flags: W
LayerCount: 2
Fore
SplineSet
112 89 m 1,0,-1
 98 432 l 1,1,-1
 575 607 l 1,2,-1
 124 803 l 1,3,-1
 110 1064 l 1,4,-1
 920 704 l 1,5,-1
 920 439 l 1,6,-1
 112 89 l 1,0,-1
EndSplineSet
EndChar

StartChar: question
Encoding: 63 63 37
Width: 885
Flags: W
LayerCount: 2
Fore
SplineSet
435 384 m 1,0,-1
 195 384 l 1,1,2
 185 493 185 493 195 566.5 c 128,-1,3
 205 640 205 640 228 689.5 c 128,-1,4
 251 739 251 739 283.5 770 c 128,-1,5
 316 801 316 801 351.5 824.5 c 128,-1,6
 387 848 387 848 422 868.5 c 128,-1,7
 457 889 457 889 484.5 919 c 128,-1,8
 512 949 512 949 529.5 992.5 c 128,-1,9
 547 1036 547 1036 547 1105 c 0,10,11
 547 1125 547 1125 545 1160.5 c 128,-1,12
 543 1196 543 1196 532.5 1231 c 128,-1,13
 522 1266 522 1266 498 1292 c 128,-1,14
 474 1318 474 1318 431 1318 c 0,15,16
 398 1318 398 1318 378 1296.5 c 128,-1,17
 358 1275 358 1275 346.5 1244 c 128,-1,18
 335 1213 335 1213 330.5 1179.5 c 128,-1,19
 326 1146 326 1146 323 1121 c 1,20,-1
 50 1133 l 1,21,22
 53 1224 53 1224 82.5 1300 c 128,-1,23
 112 1376 112 1376 163 1431 c 128,-1,24
 214 1486 214 1486 284 1516 c 128,-1,25
 354 1546 354 1546 438 1546 c 0,26,27
 541 1546 541 1546 616.5 1506.5 c 128,-1,28
 692 1467 692 1467 740.5 1403 c 128,-1,29
 789 1339 789 1339 812.5 1258 c 128,-1,30
 836 1177 836 1177 836 1095 c 0,31,32
 836 1004 836 1004 819 941.5 c 128,-1,33
 802 879 802 879 773.5 835 c 128,-1,34
 745 791 745 791 709 762 c 128,-1,35
 673 733 673 733 635.5 708 c 128,-1,36
 598 683 598 683 562 658.5 c 128,-1,37
 526 634 526 634 497.5 599.5 c 128,-1,38
 469 565 469 565 452 516.5 c 128,-1,39
 435 468 435 468 435 396 c 2,40,-1
 435 384 l 1,0,-1
458 288 m 1,41,-1
 458 0 l 1,42,-1
 170 -12 l 1,43,-1
 170 288 l 1,44,-1
 458 288 l 1,41,-1
EndSplineSet
EndChar

StartChar: at
Encoding: 64 64 38
Width: 1578
Flags: W
LayerCount: 2
Fore
SplineSet
1526 775 m 0,0,1
 1526 675 1526 675 1504 596 c 128,-1,2
 1482 517 1482 517 1440 462 c 128,-1,3
 1398 407 1398 407 1337.5 377.5 c 128,-1,4
 1277 348 1277 348 1199 348 c 0,5,6
 1185 348 1185 348 1157.5 352 c 128,-1,7
 1130 356 1130 356 1099.5 372.5 c 128,-1,8
 1069 389 1069 389 1040 421 c 128,-1,9
 1011 453 1011 453 994 510 c 1,10,11
 943 416 943 416 877 370 c 128,-1,12
 811 324 811 324 739 324 c 0,13,14
 685 324 685 324 633.5 347 c 128,-1,15
 582 370 582 370 542 416.5 c 128,-1,16
 502 463 502 463 478 533.5 c 128,-1,17
 454 604 454 604 454 699 c 0,18,19
 454 798 454 798 478.5 868 c 128,-1,20
 503 938 503 938 542.5 982.5 c 128,-1,21
 582 1027 582 1027 631.5 1047.5 c 128,-1,22
 681 1068 681 1068 731 1068 c 0,23,24
 766 1068 766 1068 799.5 1059.5 c 128,-1,25
 833 1051 833 1051 862 1034.5 c 128,-1,26
 891 1018 891 1018 915 994.5 c 128,-1,27
 939 971 939 971 954 941 c 1,28,-1
 990 1050 l 1,29,-1
 1147 1050 l 1,30,-1
 1147 581 l 2,31,32
 1147 521 1147 521 1165 495 c 128,-1,33
 1183 469 1183 469 1210 469 c 0,34,35
 1242 469 1242 469 1263.5 486 c 128,-1,36
 1285 503 1285 503 1299 530.5 c 128,-1,37
 1313 558 1313 558 1320.5 592.5 c 128,-1,38
 1328 627 1328 627 1331.5 661 c 128,-1,39
 1335 695 1335 695 1335.5 725 c 128,-1,40
 1336 755 1336 755 1336 775 c 0,41,42
 1336 895 1336 895 1298 985.5 c 128,-1,43
 1260 1076 1260 1076 1191.5 1136.5 c 128,-1,44
 1123 1197 1123 1197 1027.5 1227.5 c 128,-1,45
 932 1258 932 1258 818 1258 c 0,46,47
 729 1258 729 1258 654 1234.5 c 128,-1,48
 579 1211 579 1211 519.5 1169.5 c 128,-1,49
 460 1128 460 1128 415 1072 c 128,-1,50
 370 1016 370 1016 339.5 950.5 c 128,-1,51
 309 885 309 885 294 813.5 c 128,-1,52
 279 742 279 742 279 671 c 0,53,54
 279 571 279 571 308 477.5 c 128,-1,55
 337 384 337 384 397 311.5 c 128,-1,56
 457 239 457 239 549.5 195 c 128,-1,57
 642 151 642 151 769 151 c 0,58,59
 863 151 863 151 969 180.5 c 128,-1,60
 1075 210 1075 210 1205 274 c 1,61,-1
 1277 124 l 1,62,63
 1130 43 1130 43 1000.5 5.5 c 128,-1,64
 871 -32 871 -32 753 -32 c 0,65,66
 574 -32 574 -32 442.5 27 c 128,-1,67
 311 86 311 86 225 183.5 c 128,-1,68
 139 281 139 281 97 406.5 c 128,-1,69
 55 532 55 532 55 666 c 0,70,71
 55 762 55 762 77.5 858 c 128,-1,72
 100 954 100 954 143.5 1041 c 128,-1,73
 187 1128 187 1128 252 1203.5 c 128,-1,74
 317 1279 317 1279 402 1334 c 128,-1,75
 487 1389 487 1389 591.5 1420.5 c 128,-1,76
 696 1452 696 1452 819 1452 c 0,77,78
 907 1452 907 1452 994 1433 c 128,-1,79
 1081 1414 1081 1414 1159.5 1376 c 128,-1,80
 1238 1338 1238 1338 1305 1281.5 c 128,-1,81
 1372 1225 1372 1225 1421 1150 c 128,-1,82
 1470 1075 1470 1075 1498 981 c 128,-1,83
 1526 887 1526 887 1526 775 c 0,0,1
924 844 m 1,84,85
 858 911 858 911 806 911 c 0,86,87
 779 911 779 911 757 895.5 c 128,-1,88
 735 880 735 880 719.5 852.5 c 128,-1,89
 704 825 704 825 696 786 c 128,-1,90
 688 747 688 747 688 699 c 0,91,92
 688 652 688 652 697.5 616.5 c 128,-1,93
 707 581 707 581 723 557.5 c 128,-1,94
 739 534 739 534 759.5 522.5 c 128,-1,95
 780 511 780 511 803 511 c 0,96,97
 836 511 836 511 869 539.5 c 128,-1,98
 902 568 902 568 924 625 c 1,99,-1
 924 844 l 1,84,85
EndSplineSet
EndChar

StartChar: A
Encoding: 65 65 39
Width: 1131
Flags: W
LayerCount: 2
Fore
SplineSet
359 329 m 1,0,-1
 292 0 l 1,1,-1
 25 0 l 1,2,-1
 349 1518 l 1,3,-1
 776 1536 l 1,4,-1
 1108 12 l 1,5,-1
 781 0 l 1,6,-1
 724 329 l 1,7,-1
 359 329 l 1,0,-1
670 575 m 1,8,-1
 529 1310 l 1,9,-1
 413 575 l 1,10,-1
 670 575 l 1,8,-1
EndSplineSet
EndChar

StartChar: B
Encoding: 66 66 40
Width: 1127
Flags: W
LayerCount: 2
Fore
SplineSet
142 1536 m 1,0,-1
 486 1536 l 2,1,2
 634 1536 634 1536 735.5 1505 c 128,-1,3
 837 1474 837 1474 900 1420 c 128,-1,4
 963 1366 963 1366 990.5 1294 c 128,-1,5
 1018 1222 1018 1222 1018 1140 c 0,6,7
 1018 1084 1018 1084 1006.5 1034 c 128,-1,8
 995 984 995 984 973.5 942.5 c 128,-1,9
 952 901 952 901 921 869 c 128,-1,10
 890 837 890 837 851 818 c 1,11,12
 892 797 892 797 930.5 768 c 128,-1,13
 969 739 969 739 999 694.5 c 128,-1,14
 1029 650 1029 650 1047 586 c 128,-1,15
 1065 522 1065 522 1065 431 c 0,16,17
 1065 341 1065 341 1037.5 274 c 128,-1,18
 1010 207 1010 207 961.5 159 c 128,-1,19
 913 111 913 111 847.5 80.5 c 128,-1,20
 782 50 782 50 707 32 c 128,-1,21
 632 14 632 14 550.5 7 c 128,-1,22
 469 0 469 0 388 0 c 2,23,-1
 142 0 l 1,24,-1
 142 1536 l 1,0,-1
497 240 m 2,25,26
 579 240 579 240 633 263.5 c 128,-1,27
 687 287 687 287 719 322 c 128,-1,28
 751 357 751 357 764 397 c 128,-1,29
 777 437 777 437 777 471 c 0,30,31
 777 545 777 545 755 589 c 128,-1,32
 733 633 733 633 696 656 c 128,-1,33
 659 679 659 679 610 686 c 128,-1,34
 561 693 561 693 508 693 c 2,35,-1
 442 693 l 1,36,-1
 442 240 l 1,37,-1
 497 240 l 2,25,26
504 911 m 2,38,39
 556 911 556 911 599.5 917.5 c 128,-1,40
 643 924 643 924 674 945 c 128,-1,41
 705 966 705 966 722 1005.5 c 128,-1,42
 739 1045 739 1045 739 1111 c 0,43,44
 739 1168 739 1168 719 1204.5 c 128,-1,45
 699 1241 699 1241 665 1261 c 128,-1,46
 631 1281 631 1281 586 1288.5 c 128,-1,47
 541 1296 541 1296 491 1296 c 2,48,-1
 432 1296 l 1,49,-1
 432 911 l 1,50,-1
 504 911 l 2,38,39
EndSplineSet
EndChar

StartChar: C
Encoding: 67 67 41
Width: 1069
Flags: W
LayerCount: 2
Fore
SplineSet
997 523 m 1,0,1
 997 416 997 416 970.5 315.5 c 128,-1,2
 944 215 944 215 890 138 c 128,-1,3
 836 61 836 61 754 14.5 c 128,-1,4
 672 -32 672 -32 561 -32 c 0,5,6
 465 -32 465 -32 391.5 2.5 c 128,-1,7
 318 37 318 37 265 97.5 c 128,-1,8
 212 158 212 158 176.5 238.5 c 128,-1,9
 141 319 141 319 120 411.5 c 128,-1,10
 99 504 99 504 90 603.5 c 128,-1,11
 81 703 81 703 81 800 c 0,12,13
 81 886 81 886 92 976.5 c 128,-1,14
 103 1067 103 1067 127 1152.5 c 128,-1,15
 151 1238 151 1238 189.5 1313.5 c 128,-1,16
 228 1389 228 1389 282 1445.5 c 128,-1,17
 336 1502 336 1502 407 1535 c 128,-1,18
 478 1568 478 1568 568 1568 c 0,19,20
 669 1568 669 1568 748.5 1519.5 c 128,-1,21
 828 1471 828 1471 882.5 1392.5 c 128,-1,22
 937 1314 937 1314 966 1215 c 128,-1,23
 995 1116 995 1116 995 1014 c 1,24,-1
 705 999 l 1,25,26
 705 1007 705 1007 704 1034.5 c 128,-1,27
 703 1062 703 1062 698 1098.5 c 128,-1,28
 693 1135 693 1135 683.5 1175.5 c 128,-1,29
 674 1216 674 1216 657 1250 c 128,-1,30
 640 1284 640 1284 614 1306 c 128,-1,31
 588 1328 588 1328 551 1328 c 0,32,33
 515 1328 515 1328 488.5 1304.5 c 128,-1,34
 462 1281 462 1281 443 1241.5 c 128,-1,35
 424 1202 424 1202 412 1149 c 128,-1,36
 400 1096 400 1096 393 1037.5 c 128,-1,37
 386 979 386 979 383.5 918 c 128,-1,38
 381 857 381 857 381 800 c 0,39,40
 381 728 381 728 383.5 657 c 128,-1,41
 386 586 386 586 394 522 c 128,-1,42
 402 458 402 458 415.5 403.5 c 128,-1,43
 429 349 429 349 451.5 309.5 c 128,-1,44
 474 270 474 270 505.5 247.5 c 128,-1,45
 537 225 537 225 580 225 c 0,46,47
 627 225 627 225 656.5 256.5 c 128,-1,48
 686 288 686 288 704 336 c 128,-1,49
 722 384 722 384 730 440.5 c 128,-1,50
 738 497 738 497 742 547 c 1,51,-1
 997 523 l 1,52,-1
 997 523 l 1,0,1
EndSplineSet
EndChar

StartChar: D
Encoding: 68 68 42
Width: 1132
Flags: W
LayerCount: 2
Fore
SplineSet
142 1536 m 1,0,-1
 456 1536 l 2,1,2
 759 1536 759 1536 909 1344.5 c 128,-1,3
 1059 1153 1059 1153 1059 762 c 0,4,5
 1059 665 1059 665 1046 570.5 c 128,-1,6
 1033 476 1033 476 1005.5 391.5 c 128,-1,7
 978 307 978 307 935 235 c 128,-1,8
 892 163 892 163 831 111 c 128,-1,9
 770 59 770 59 690 29.5 c 128,-1,10
 610 0 610 0 509 0 c 2,11,-1
 142 0 l 1,12,-1
 142 1536 l 1,0,-1
441 1296 m 1,13,-1
 441 240 l 1,14,-1
 484 240 l 2,15,16
 541 240 541 240 584 259.5 c 128,-1,17
 627 279 627 279 657.5 313 c 128,-1,18
 688 347 688 347 707.5 392.5 c 128,-1,19
 727 438 727 438 738.5 489.5 c 128,-1,20
 750 541 750 541 754.5 596 c 128,-1,21
 759 651 759 651 759 705 c 0,22,23
 759 754 759 754 759 817 c 128,-1,24
 759 880 759 880 753 945.5 c 128,-1,25
 747 1011 747 1011 731 1074 c 128,-1,26
 715 1137 715 1137 684 1186.5 c 128,-1,27
 653 1236 653 1236 602.5 1266 c 128,-1,28
 552 1296 552 1296 476 1296 c 2,29,-1
 441 1296 l 1,13,-1
EndSplineSet
EndChar

StartChar: E
Encoding: 69 69 43
Width: 988
Flags: W
LayerCount: 2
Fore
SplineSet
142 1536 m 1,0,-1
 922 1536 l 1,1,-1
 898 1296 l 1,2,-1
 442 1296 l 1,3,-1
 442 930 l 1,4,-1
 765 930 l 1,5,-1
 764 672 l 1,6,-1
 442 672 l 1,7,-1
 442 240 l 1,8,-1
 938 240 l 1,9,-1
 914 0 l 1,10,-1
 142 0 l 1,11,-1
 142 1536 l 1,0,-1
EndSplineSet
EndChar

StartChar: F
Encoding: 70 70 44
Width: 940
Flags: W
LayerCount: 2
Fore
SplineSet
141 1536 m 1,0,-1
 921 1536 l 1,1,-1
 897 1295 l 1,2,-1
 441 1295 l 1,3,-1
 441 893 l 1,4,-1
 763 893 l 1,5,-1
 763 638 l 1,6,-1
 441 638 l 1,7,-1
 441 12 l 1,8,-1
 141 -12 l 1,9,-1
 141 1536 l 1,0,-1
EndSplineSet
EndChar

StartChar: G
Encoding: 71 71 45
Width: 1132
Flags: W
LayerCount: 2
Fore
SplineSet
739 1015 m 1,0,1
 735 1044 735 1044 731.5 1078.5 c 128,-1,2
 728 1113 728 1113 721.5 1148.5 c 128,-1,3
 715 1184 715 1184 705 1217 c 128,-1,4
 695 1250 695 1250 678 1275.5 c 128,-1,5
 661 1301 661 1301 636 1316.5 c 128,-1,6
 611 1332 611 1332 576 1332 c 0,7,8
 536 1332 536 1332 506 1305.5 c 128,-1,9
 476 1279 476 1279 454 1235 c 128,-1,10
 432 1191 432 1191 418 1132.5 c 128,-1,11
 404 1074 404 1074 396 1010.5 c 128,-1,12
 388 947 388 947 384.5 881.5 c 128,-1,13
 381 816 381 816 381 758 c 0,14,15
 381 703 381 703 382 641 c 128,-1,16
 383 579 383 579 388.5 518 c 128,-1,17
 394 457 394 457 405.5 401 c 128,-1,18
 417 345 417 345 439 302.5 c 128,-1,19
 461 260 461 260 495 234.5 c 128,-1,20
 529 209 529 209 578 209 c 0,21,22
 618 209 618 209 648.5 231.5 c 128,-1,23
 679 254 679 254 700 294 c 128,-1,24
 721 334 721 334 731.5 389 c 128,-1,25
 742 444 742 444 742 508 c 1,26,-1
 590 508 l 1,27,-1
 614 768 l 1,28,-1
 1031 768 l 1,29,-1
 1031 12 l 1,30,-1
 916 0 l 1,31,32
 915 4 915 4 911.5 19 c 128,-1,33
 908 34 908 34 903 54.5 c 128,-1,34
 898 75 898 75 891.5 100 c 128,-1,35
 885 125 885 125 879 151 c 0,36,37
 864 211 864 211 846 285 c 1,38,39
 839 196 839 196 803 126 c 0,40,41
 788 96 788 96 764.5 68 c 128,-1,42
 741 40 741 40 707 17.5 c 128,-1,43
 673 -5 673 -5 627 -18.5 c 128,-1,44
 581 -32 581 -32 521 -32 c 0,45,46
 440 -32 440 -32 375.5 -1.5 c 128,-1,47
 311 29 311 29 262.5 83.5 c 128,-1,48
 214 138 214 138 179.5 213.5 c 128,-1,49
 145 289 145 289 123 378.5 c 128,-1,50
 101 468 101 468 91 568.5 c 128,-1,51
 81 669 81 669 81 774 c 0,52,53
 81 863 81 863 92.5 956 c 128,-1,54
 104 1049 104 1049 128.5 1137.5 c 128,-1,55
 153 1226 153 1226 192 1304 c 128,-1,56
 231 1382 231 1382 286.5 1441 c 128,-1,57
 342 1500 342 1500 415 1534 c 128,-1,58
 488 1568 488 1568 580 1568 c 0,59,60
 697 1568 697 1568 781 1523.5 c 128,-1,61
 865 1479 865 1479 919 1405 c 128,-1,62
 973 1331 973 1331 999 1234.5 c 128,-1,63
 1025 1138 1025 1138 1025 1034 c 1,64,-1
 739 1015 l 1,0,1
EndSplineSet
EndChar

StartChar: H
Encoding: 72 72 46
Width: 1171
Flags: W
LayerCount: 2
Fore
SplineSet
730 639 m 1,0,-1
 442 639 l 1,1,-1
 442 12 l 1,2,-1
 142 -12 l 1,3,-1
 142 1512 l 1,4,-1
 442 1536 l 1,5,-1
 442 913 l 1,6,-1
 730 913 l 1,7,-1
 730 1512 l 1,8,-1
 1030 1536 l 1,9,-1
 1030 12 l 1,10,-1
 730 -12 l 1,11,-1
 730 639 l 1,0,-1
EndSplineSet
EndChar

StartChar: I
Encoding: 73 73 47
Width: 583
Flags: W
LayerCount: 2
Fore
SplineSet
142 1512 m 1,0,-1
 442 1536 l 1,1,-1
 442 12 l 1,2,-1
 142 -12 l 1,3,-1
 142 1512 l 1,0,-1
EndSplineSet
EndChar

StartChar: J
Encoding: 74 74 48
Width: 660
Flags: W
LayerCount: 2
Fore
SplineSet
34 205 m 1,0,1
 58 197 58 197 77.5 194 c 128,-1,2
 97 191 97 191 114 191 c 0,3,4
 156 191 156 191 178.5 210 c 128,-1,5
 201 229 201 229 211.5 259.5 c 128,-1,6
 222 290 222 290 224 329 c 128,-1,7
 226 368 226 368 226 409 c 2,8,-1
 226 1512 l 1,9,-1
 526 1536 l 1,10,-1
 526 384 l 2,11,12
 526 292 526 292 511.5 216.5 c 128,-1,13
 497 141 497 141 462 86.5 c 128,-1,14
 427 32 427 32 369.5 2 c 128,-1,15
 312 -28 312 -28 226 -28 c 0,16,17
 145 -28 145 -28 34 2 c 1,18,-1
 34 205 l 1,19,-1
 34 205 l 1,0,1
EndSplineSet
EndChar

StartChar: K
Encoding: 75 75 49
Width: 1150
Flags: W
LayerCount: 2
Fore
SplineSet
590 666 m 1,0,-1
 442 401 l 1,1,-1
 442 0 l 1,2,-1
 142 0 l 1,3,-1
 142 1512 l 1,4,-1
 442 1536 l 1,5,-1
 442 864 l 1,6,-1
 806 1536 l 1,7,-1
 1126 1536 l 1,8,-1
 797 902 l 1,9,-1
 1131 43 l 1,10,-1
 826 -27 l 1,11,-1
 590 666 l 1,0,-1
EndSplineSet
EndChar

StartChar: L
Encoding: 76 76 50
Width: 971
Flags: W
LayerCount: 2
Fore
SplineSet
441 1536 m 1,0,-1
 441 240 l 1,1,-1
 961 240 l 1,2,-1
 913 0 l 1,3,-1
 142 0 l 1,4,-1
 142 1512 l 1,5,-1
 441 1536 l 1,0,-1
EndSplineSet
EndChar

StartChar: M
Encoding: 77 77 51
Width: 1621
Flags: W
LayerCount: 2
Fore
SplineSet
390 1144 m 1,0,-1
 390 12 l 1,1,-1
 142 0 l 1,2,-1
 142 1522 l 1,3,-1
 581 1534 l 1,4,-1
 835 584 l 1,5,-1
 1079 1500 l 1,6,-1
 1480 1524 l 1,7,-1
 1480 12 l 1,8,-1
 1170 -12 l 1,9,-1
 1170 1140 l 1,10,-1
 883 0 l 1,11,-1
 698 0 l 1,12,-1
 390 1144 l 1,0,-1
EndSplineSet
EndChar

StartChar: N
Encoding: 78 78 52
Width: 1245
Flags: W
LayerCount: 2
Fore
SplineSet
409 948 m 1,0,-1
 409 12 l 1,1,-1
 141 0 l 1,2,-1
 141 1524 l 1,3,-1
 454 1536 l 1,4,-1
 850 622 l 1,5,-1
 850 1512 l 1,6,-1
 1104 1536 l 1,7,-1
 1104 12 l 1,8,-1
 858 -12 l 1,9,-1
 409 948 l 1,0,-1
EndSplineSet
EndChar

StartChar: O
Encoding: 79 79 53
Width: 1125
Flags: W
LayerCount: 2
Fore
SplineSet
561 -32 m 256,0,1
 463 -32 463 -32 389.5 1 c 128,-1,2
 316 34 316 34 263 93 c 128,-1,3
 210 152 210 152 176 232.5 c 128,-1,4
 142 313 142 313 122 407.5 c 128,-1,5
 102 502 102 502 94 607 c 128,-1,6
 86 712 86 712 86 820 c 0,7,8
 86 982 86 982 113.5 1120 c 128,-1,9
 141 1258 141 1258 199 1356 c 128,-1,10
 257 1454 257 1454 346.5 1507.5 c 128,-1,11
 436 1561 436 1561 561 1561 c 256,12,13
 686 1561 686 1561 776.5 1507.5 c 128,-1,14
 867 1454 867 1454 925.5 1356 c 128,-1,15
 984 1258 984 1258 1011.5 1120 c 128,-1,16
 1039 982 1039 982 1039 820 c 0,17,18
 1039 712 1039 712 1031 607 c 128,-1,19
 1023 502 1023 502 1002.5 407.5 c 128,-1,20
 982 313 982 313 947.5 232.5 c 128,-1,21
 913 152 913 152 860 93 c 128,-1,22
 807 34 807 34 733 1 c 128,-1,23
 659 -32 659 -32 561 -32 c 256,0,1
561 223 m 256,24,25
 621 223 621 223 656.5 264.5 c 128,-1,26
 692 306 692 306 710.5 383.5 c 128,-1,27
 729 461 729 461 734 571.5 c 128,-1,28
 739 682 739 682 739 820 c 0,29,30
 739 868 739 868 737.5 920.5 c 128,-1,31
 736 973 736 973 730 1029.5 c 128,-1,32
 724 1086 724 1086 712.5 1139 c 128,-1,33
 701 1192 701 1192 681 1232.5 c 128,-1,34
 661 1273 661 1273 631.5 1297.5 c 128,-1,35
 602 1322 602 1322 561 1322 c 256,36,37
 520 1322 520 1322 491 1297.5 c 128,-1,38
 462 1273 462 1273 442.5 1232.5 c 128,-1,39
 423 1192 423 1192 411.5 1139 c 128,-1,40
 400 1086 400 1086 394 1029.5 c 128,-1,41
 388 973 388 973 386.5 920.5 c 128,-1,42
 385 868 385 868 385 820 c 0,43,44
 385 682 385 682 390 571.5 c 128,-1,45
 395 461 395 461 413 383.5 c 128,-1,46
 431 306 431 306 466 264.5 c 128,-1,47
 501 223 501 223 561 223 c 256,24,25
EndSplineSet
EndChar

StartChar: P
Encoding: 80 80 54
Width: 1089
Flags: W
LayerCount: 2
Fore
SplineSet
141 1536 m 1,0,-1
 333 1536 l 2,1,2
 411 1536 411 1536 494 1535 c 128,-1,3
 577 1534 577 1534 656.5 1522.5 c 128,-1,4
 736 1511 736 1511 807.5 1484.5 c 128,-1,5
 879 1458 879 1458 932.5 1406.5 c 128,-1,6
 986 1355 986 1355 1017.5 1274.5 c 128,-1,7
 1049 1194 1049 1194 1049 1075 c 0,8,9
 1049 967 1049 967 1023 890.5 c 128,-1,10
 997 814 997 814 952 761.5 c 128,-1,11
 907 709 907 709 847.5 678 c 128,-1,12
 788 647 788 647 720 630.5 c 128,-1,13
 652 614 652 614 580.5 609 c 128,-1,14
 509 604 509 604 441 604 c 1,15,-1
 441 12 l 1,16,-1
 141 -12 l 1,17,-1
 141 1536 l 1,0,-1
494 847 m 2,18,19
 546 847 546 847 592.5 856.5 c 128,-1,20
 639 866 639 866 674 891.5 c 128,-1,21
 709 917 709 917 729.5 962 c 128,-1,22
 750 1007 750 1007 750 1077 c 0,23,24
 750 1146 750 1146 732.5 1189 c 128,-1,25
 715 1232 715 1232 681 1255.5 c 128,-1,26
 647 1279 647 1279 598 1287.5 c 128,-1,27
 549 1296 549 1296 486 1296 c 2,28,-1
 443 1296 l 1,29,-1
 443 847 l 1,30,-1
 494 847 l 2,18,19
EndSplineSet
EndChar

StartChar: Q
Encoding: 81 81 55
Width: 1121
Flags: W
LayerCount: 2
Fore
SplineSet
559 -32 m 1,0,1
 461 -32 461 -32 387.5 3 c 128,-1,2
 314 38 314 38 261 99 c 128,-1,3
 208 160 208 160 174 242.5 c 128,-1,4
 140 325 140 325 120 419.5 c 128,-1,5
 100 514 100 514 92 616.5 c 128,-1,6
 84 719 84 719 84 820 c 256,7,8
 84 921 84 921 96 1016 c 128,-1,9
 108 1111 108 1111 133 1194 c 128,-1,10
 158 1277 158 1277 197 1346 c 128,-1,11
 236 1415 236 1415 288.5 1464.5 c 128,-1,12
 341 1514 341 1514 408.5 1541 c 128,-1,13
 476 1568 476 1568 559 1568 c 0,14,15
 643 1568 643 1568 710.5 1541 c 128,-1,16
 778 1514 778 1514 831 1464.5 c 128,-1,17
 884 1415 884 1415 923 1346 c 128,-1,18
 962 1277 962 1277 987.5 1194 c 128,-1,19
 1013 1111 1013 1111 1025 1016 c 128,-1,20
 1037 921 1037 921 1037 820 c 0,21,22
 1037 715 1037 715 1028 609 c 128,-1,23
 1019 503 1019 503 997 406 c 128,-1,24
 975 309 975 309 937 226 c 128,-1,25
 899 143 899 143 841 84 c 1,26,27
 849 39 849 39 871 11.5 c 128,-1,28
 893 -16 893 -16 921.5 -31 c 128,-1,29
 950 -46 950 -46 982 -52.5 c 128,-1,30
 1014 -59 1014 -59 1042 -63 c 1,31,-1
 1042 -293 l 1,32,33
 1031 -293 1031 -293 1021.5 -294 c 128,-1,34
 1012 -295 1012 -295 1003 -295 c 0,35,36
 928 -295 928 -295 870 -276.5 c 128,-1,37
 812 -258 812 -258 769 -222.5 c 128,-1,38
 726 -187 726 -187 696.5 -137 c 128,-1,39
 667 -87 667 -87 649 -24 c 1,40,41
 649 -26 649 -26 635 -26.5 c 128,-1,42
 621 -27 621 -27 604 -29 c 0,43,44
 584 -31 584 -31 559 -32 c 1,0,1
559 223 m 256,45,46
 624 223 624 223 660 268 c 128,-1,47
 696 313 696 313 713 393 c 128,-1,48
 730 473 730 473 733.5 582 c 128,-1,49
 737 691 737 691 737 820 c 0,50,51
 737 862 737 862 736 916.5 c 128,-1,52
 735 971 735 971 730 1027.5 c 128,-1,53
 725 1084 725 1084 714.5 1138.5 c 128,-1,54
 704 1193 704 1193 684 1235.5 c 128,-1,55
 664 1278 664 1278 633.5 1304 c 128,-1,56
 603 1330 603 1330 559 1330 c 256,57,58
 515 1330 515 1330 485 1304 c 128,-1,59
 455 1278 455 1278 435.5 1235.5 c 128,-1,60
 416 1193 416 1193 405 1138.5 c 128,-1,61
 394 1084 394 1084 389.5 1027.5 c 128,-1,62
 385 971 385 971 384 916.5 c 128,-1,63
 383 862 383 862 383 820 c 0,64,65
 383 691 383 691 386.5 582 c 128,-1,66
 390 473 390 473 406.5 393 c 128,-1,67
 423 313 423 313 458.5 268 c 128,-1,68
 494 223 494 223 559 223 c 256,45,46
EndSplineSet
EndChar

StartChar: R
Encoding: 82 82 56
Width: 1156
Flags: W
LayerCount: 2
Fore
SplineSet
142 -12 m 1,0,-1
 142 1524 l 1,1,-1
 506 1536 l 1,2,3
 632 1536 632 1536 736 1511.5 c 128,-1,4
 840 1487 840 1487 914.5 1434.5 c 128,-1,5
 989 1382 989 1382 1029.5 1301 c 128,-1,6
 1070 1220 1070 1220 1070 1108 c 0,7,8
 1070 1033 1070 1033 1054 973 c 128,-1,9
 1038 913 1038 913 1009 866 c 128,-1,10
 980 819 980 819 939.5 783 c 128,-1,11
 899 747 899 747 850 719 c 0,12,13
 850 718 850 718 862 689 c 128,-1,14
 874 660 874 660 893.5 613 c 128,-1,15
 913 566 913 566 937.5 506 c 128,-1,16
 962 446 962 446 988 384 c 0,17,18
 1049 238 1049 238 1127 53 c 1,19,-1
 832 -27 l 1,20,-1
 558 673 l 1,21,-1
 441 673 l 1,22,-1
 441 12 l 1,23,-1
 142 -12 l 1,0,-1
441 895 m 1,24,-1
 543 895 l 2,25,26
 588 895 588 895 629 902.5 c 128,-1,27
 670 910 670 910 701.5 932.5 c 128,-1,28
 733 955 733 955 751.5 996 c 128,-1,29
 770 1037 770 1037 770 1105 c 0,30,31
 770 1159 770 1159 755.5 1195.5 c 128,-1,32
 741 1232 741 1232 715.5 1254.5 c 128,-1,33
 690 1277 690 1277 655.5 1286.5 c 128,-1,34
 621 1296 621 1296 581 1296 c 2,35,-1
 441 1296 l 1,36,-1
 441 895 l 1,24,-1
EndSplineSet
EndChar

StartChar: S
Encoding: 83 83 57
Width: 1091
Flags: W
LayerCount: 2
Fore
SplineSet
739 1141 m 1,0,1
 721 1179 721 1179 705.5 1213 c 128,-1,2
 690 1247 690 1247 669.5 1273 c 128,-1,3
 649 1299 649 1299 620 1314 c 128,-1,4
 591 1329 591 1329 546 1329 c 0,5,6
 511 1329 511 1329 484.5 1316 c 128,-1,7
 458 1303 458 1303 441 1281 c 128,-1,8
 424 1259 424 1259 415.5 1230 c 128,-1,9
 407 1201 407 1201 407 1169 c 0,10,11
 407 1143 407 1143 415 1120 c 128,-1,12
 423 1097 423 1097 436.5 1078 c 128,-1,13
 450 1059 450 1059 467 1043.5 c 128,-1,14
 484 1028 484 1028 501 1018 c 2,15,-1
 749 873 l 1,16,17
 837 823 837 823 893 768 c 128,-1,18
 949 713 949 713 980.5 659 c 128,-1,19
 1012 605 1012 605 1024 554.5 c 128,-1,20
 1036 504 1036 504 1038 463 c 1,21,22
 1038 352 1038 352 1000.5 260.5 c 128,-1,23
 963 169 963 169 897 104 c 128,-1,24
 831 39 831 39 741.5 3.5 c 128,-1,25
 652 -32 652 -32 548 -32 c 0,26,27
 452 -32 452 -32 372 -3 c 128,-1,28
 292 26 292 26 229.5 77.5 c 128,-1,29
 167 129 167 129 121.5 199.5 c 128,-1,30
 76 270 76 270 48 352 c 1,31,-1
 302 471 l 1,32,33
 324 435 324 435 350 391.5 c 128,-1,34
 376 348 376 348 408 310.5 c 128,-1,35
 440 273 440 273 481 248 c 128,-1,36
 522 223 522 223 576 223 c 0,37,38
 603 223 603 223 627.5 235.5 c 128,-1,39
 652 248 652 248 670.5 269.5 c 128,-1,40
 689 291 689 291 700.5 318.5 c 128,-1,41
 712 346 712 346 712 376 c 0,42,43
 712 437 712 437 682.5 483 c 128,-1,44
 653 529 653 529 610 557 c 1,45,-1
 341 716 l 2,46,47
 285 748 285 748 238.5 789 c 128,-1,48
 192 830 192 830 157.5 879.5 c 128,-1,49
 123 929 123 929 104 986 c 128,-1,50
 85 1043 85 1043 85 1108 c 0,51,52
 85 1210 85 1210 121.5 1294.5 c 128,-1,53
 158 1379 158 1379 221.5 1440 c 128,-1,54
 285 1501 285 1501 372.5 1534.5 c 128,-1,55
 460 1568 460 1568 562 1568 c 0,56,57
 718 1568 718 1568 829 1488.5 c 128,-1,58
 940 1409 940 1409 993 1256 c 1,59,-1
 739 1141 l 1,60,-1
 739 1141 l 1,0,1
EndSplineSet
EndChar

StartChar: T
Encoding: 84 84 58
Width: 977
Flags: W
LayerCount: 2
Fore
SplineSet
28 1296 m 1,0,-1
 52 1536 l 1,1,-1
 952 1536 l 1,2,-1
 928 1296 l 1,3,-1
 641 1296 l 1,4,-1
 641 12 l 1,5,-1
 341 -12 l 1,6,-1
 341 1296 l 1,7,-1
 28 1296 l 1,0,-1
EndSplineSet
EndChar

StartChar: U
Encoding: 85 85 59
Width: 1163
Flags: W
LayerCount: 2
Fore
SplineSet
132 1524 m 1,0,-1
 432 1536 l 1,1,-1
 432 482 l 2,2,3
 432 436 432 436 435 390 c 128,-1,4
 438 344 438 344 454.5 307 c 128,-1,5
 471 270 471 270 504.5 246.5 c 128,-1,6
 538 223 538 223 600 223 c 0,7,8
 658 223 658 223 689.5 247 c 128,-1,9
 721 271 721 271 736 309 c 128,-1,10
 751 347 751 347 753.5 393.5 c 128,-1,11
 756 440 756 440 756 485 c 2,12,-1
 756 1512 l 1,13,-1
 1031 1536 l 1,14,-1
 1031 541 l 2,15,16
 1031 497 1031 497 1029 437.5 c 128,-1,17
 1027 378 1027 378 1014.5 314.5 c 128,-1,18
 1002 251 1002 251 974 188.5 c 128,-1,19
 946 126 946 126 893.5 77 c 128,-1,20
 841 28 841 28 759.5 -2 c 128,-1,21
 678 -32 678 -32 559 -32 c 0,22,23
 448 -32 448 -32 367.5 11.5 c 128,-1,24
 287 55 287 55 234.5 128.5 c 128,-1,25
 182 202 182 202 157 300 c 128,-1,26
 132 398 132 398 132 506 c 2,27,-1
 132 1524 l 1,0,-1
EndSplineSet
EndChar

StartChar: V
Encoding: 86 86 60
Width: 1092
Flags: W
LayerCount: 2
Fore
SplineSet
17 1524 m 1,0,-1
 372 1536 l 1,1,-1
 576 476 l 1,2,-1
 789 1524 l 1,3,-1
 1078 1536 l 1,4,-1
 708 0 l 1,5,-1
 379 0 l 1,6,-1
 17 1524 l 1,0,-1
EndSplineSet
EndChar

StartChar: W
Encoding: 87 87 61
Width: 1586
Flags: W
LayerCount: 2
Fore
SplineSet
614 0 m 1,0,-1
 339 0 l 1,1,-1
 27 1524 l 1,2,-1
 355 1536 l 1,3,-1
 517 616 l 1,4,-1
 690 1524 l 1,5,-1
 935 1536 l 1,6,-1
 1097 606 l 1,7,-1
 1293 1524 l 1,8,-1
 1568 1536 l 1,9,-1
 1240 0 l 1,10,-1
 943 0 l 1,11,-1
 780 938 l 1,12,-1
 614 0 l 1,0,-1
EndSplineSet
EndChar

StartChar: X
Encoding: 88 88 62
Width: 1064
Flags: W
LayerCount: 2
Fore
SplineSet
502 481 m 1,0,-1
 285 0 l 1,1,-1
 1 0 l 1,2,-1
 382 780 l 1,3,-1
 16 1536 l 1,4,-1
 375 1536 l 1,5,-1
 553 1137 l 1,6,-1
 737 1536 l 1,7,-1
 1023 1536 l 1,8,-1
 677 838 l 1,9,-1
 1076 0 l 1,10,-1
 719 0 l 1,11,-1
 502 481 l 1,0,-1
EndSplineSet
EndChar

StartChar: Y
Encoding: 89 89 63
Width: 1027
Flags: W
LayerCount: 2
Fore
SplineSet
367 608 m 1,0,-1
 -3 1536 l 1,1,-1
 327 1536 l 1,2,-1
 538 896 l 1,3,-1
 766 1536 l 1,4,-1
 1025 1536 l 1,5,-1
 670 643 l 1,6,-1
 670 12 l 1,7,-1
 367 -12 l 1,8,-1
 367 608 l 1,0,-1
EndSplineSet
EndChar

StartChar: Z
Encoding: 90 90 64
Width: 1008
Flags: W
LayerCount: 2
Fore
SplineSet
581 1296 m 1,0,-1
 98 1296 l 1,1,-1
 122 1536 l 1,2,-1
 935 1536 l 1,3,-1
 935 1337 l 1,4,-1
 421 240 l 1,5,-1
 949 240 l 1,6,-1
 901 0 l 1,7,-1
 51 0 l 1,8,-1
 51 190 l 1,9,-1
 581 1296 l 1,0,-1
EndSplineSet
EndChar

StartChar: bracketleft
Encoding: 91 91 65
Width: 692
Flags: W
LayerCount: 2
Fore
SplineSet
141 1632 m 1,0,-1
 633 1632 l 1,1,-1
 633 1440 l 1,2,-1
 441 1440 l 1,3,-1
 441 95 l 1,4,-1
 633 95 l 1,5,-1
 633 -96 l 1,6,-1
 141 -96 l 1,7,-1
 141 1632 l 1,0,-1
EndSplineSet
EndChar

StartChar: backslash
Encoding: 92 92 66
Width: 628
Flags: W
LayerCount: 2
Fore
SplineSet
564 0 m 1,0,-1
 264 0 l 1,1,-1
 63 1536 l 1,2,-1
 363 1536 l 1,3,-1
 564 0 l 1,0,-1
EndSplineSet
EndChar

StartChar: bracketright
Encoding: 93 93 67
Width: 693
Flags: W
LayerCount: 2
Fore
SplineSet
552 -96 m 1,0,-1
 60 -96 l 1,1,-1
 60 95 l 1,2,-1
 252 95 l 1,3,-1
 252 1440 l 1,4,-1
 60 1440 l 1,5,-1
 60 1632 l 1,6,-1
 552 1632 l 1,7,-1
 552 -96 l 1,0,-1
EndSplineSet
EndChar

StartChar: asciicircum
Encoding: 94 94 68
Width: 1032
Flags: W
LayerCount: 2
Fore
SplineSet
1002 644 m 1,0,-1
 659 636 l 1,1,-1
 484 1119 l 1,2,-1
 288 644 l 1,3,-1
 27 642 l 1,4,-1
 387 1440 l 1,5,-1
 652 1440 l 1,6,-1
 1002 644 l 1,0,-1
EndSplineSet
EndChar

StartChar: underscore
Encoding: 95 95 69
Width: 556
Flags: W
LayerCount: 2
Fore
SplineSet
-10 0 m 1,0,-1
 566 0 l 1,1,-1
 566 -238 l 1,2,-1
 -10 -238 l 1,3,-1
 -10 0 l 1,0,-1
EndSplineSet
EndChar

StartChar: grave
Encoding: 96 96 70
Width: 613
Flags: W
LayerCount: 2
Fore
SplineSet
421 1241 m 1,0,-1
 11 1587 l 1,1,-1
 238 1789 l 1,2,-1
 535 1342 l 1,3,-1
 421 1241 l 1,0,-1
EndSplineSet
EndChar

StartChar: a
Encoding: 97 97 71
Width: 968
Flags: W
LayerCount: 2
Fore
SplineSet
56 327 m 0,0,1
 56 409 56 409 79.5 470.5 c 128,-1,2
 103 532 103 532 142.5 576.5 c 128,-1,3
 182 621 182 621 234 651 c 128,-1,4
 286 681 286 681 342.5 699.5 c 128,-1,5
 399 718 399 718 456 727.5 c 128,-1,6
 513 737 513 737 563 740 c 1,7,8
 563 780 563 780 562 818.5 c 128,-1,9
 561 857 561 857 553 887.5 c 128,-1,10
 545 918 545 918 528 937 c 128,-1,11
 511 956 511 956 480 956 c 0,12,13
 454 956 454 956 435.5 944.5 c 128,-1,14
 417 933 417 933 404.5 914.5 c 128,-1,15
 392 896 392 896 385.5 872.5 c 128,-1,16
 379 849 379 849 376 826 c 1,17,-1
 96 875 l 1,18,19
 107 961 107 961 145 1017.5 c 128,-1,20
 183 1074 183 1074 236.5 1107 c 128,-1,21
 290 1140 290 1140 353.5 1153.5 c 128,-1,22
 417 1167 417 1167 480 1167 c 0,23,24
 578 1167 578 1167 648 1139.5 c 128,-1,25
 718 1112 718 1112 763 1064 c 128,-1,26
 808 1016 808 1016 829.5 951.5 c 128,-1,27
 851 887 851 887 851 813 c 2,28,-1
 851 217 l 2,29,30
 851 183 851 183 855.5 147 c 128,-1,31
 860 111 860 111 866 81 c 0,32,33
 873 46 873 46 882 12 c 1,34,-1
 602 -12 l 1,35,-1
 570 129 l 1,36,37
 553 98 553 98 525.5 70 c 128,-1,38
 498 42 498 42 464 20.5 c 128,-1,39
 430 -1 430 -1 392 -14 c 128,-1,40
 354 -27 354 -27 317 -27 c 0,41,42
 258 -27 258 -27 210 -0.5 c 128,-1,43
 162 26 162 26 127.5 73.5 c 128,-1,44
 93 121 93 121 74.5 185.5 c 128,-1,45
 56 250 56 250 56 327 c 0,0,1
338 331 m 0,46,47
 338 263 338 263 365.5 221 c 128,-1,48
 393 179 393 179 452 179 c 0,49,50
 472 179 472 179 491.5 189.5 c 128,-1,51
 511 200 511 200 527 213 c 0,52,53
 545 228 545 228 563 247 c 1,54,-1
 563 568 l 1,55,56
 515 568 515 568 474 556 c 128,-1,57
 433 544 433 544 402.5 516 c 128,-1,58
 372 488 372 488 355 442.5 c 128,-1,59
 338 397 338 397 338 331 c 0,46,47
EndSplineSet
EndChar

StartChar: b
Encoding: 98 98 72
Width: 1066
Flags: W
LayerCount: 2
Fore
SplineSet
123 12 m 1,0,-1
 123 1500 l 1,1,-1
 411 1536 l 1,2,-1
 411 1005 l 1,3,4
 444 1041 444 1041 481 1071 c 128,-1,5
 518 1101 518 1101 556 1122 c 128,-1,6
 594 1143 594 1143 633 1155 c 128,-1,7
 672 1167 672 1167 709 1167 c 0,8,9
 766 1167 766 1167 817 1136 c 128,-1,10
 868 1105 868 1105 906 1035.5 c 128,-1,11
 944 966 944 966 966.5 853 c 128,-1,12
 989 740 989 740 989 576 c 0,13,14
 989 420 989 420 967 306.5 c 128,-1,15
 945 193 945 193 902.5 118.5 c 128,-1,16
 860 44 860 44 798.5 8.5 c 128,-1,17
 737 -27 737 -27 658 -27 c 0,18,19
 618 -27 618 -27 586.5 -20 c 128,-1,20
 555 -13 555 -13 530 -1 c 128,-1,21
 505 11 505 11 486.5 26.5 c 128,-1,22
 468 42 468 42 455 58 c 0,23,24
 424 96 424 96 411 144 c 1,25,-1
 341 -12 l 1,26,-1
 123 12 l 1,0,-1
411 480 m 2,27,28
 411 390 411 390 423 331.5 c 128,-1,29
 435 273 435 273 455 239.5 c 128,-1,30
 475 206 475 206 500 192.5 c 128,-1,31
 525 179 525 179 551 179 c 0,32,33
 604 179 604 179 634 211 c 128,-1,34
 664 243 664 243 679 297.5 c 128,-1,35
 694 352 694 352 697.5 424 c 128,-1,36
 701 496 701 496 701 576 c 0,37,38
 701 649 701 649 698.5 712 c 128,-1,39
 696 775 696 775 686.5 821.5 c 128,-1,40
 677 868 677 868 657 895 c 128,-1,41
 637 922 637 922 601 922 c 0,42,43
 575 922 575 922 542 909.5 c 128,-1,44
 509 897 509 897 480 882 c 0,45,46
 446 864 446 864 411 843 c 1,47,-1
 411 480 l 2,27,28
EndSplineSet
EndChar

StartChar: c
Encoding: 99 99 73
Width: 913
Flags: W
LayerCount: 2
Fore
SplineSet
847 405 m 1,0,1
 835 310 835 310 812.5 230.5 c 128,-1,2
 790 151 790 151 748.5 94 c 128,-1,3
 707 37 707 37 642 5 c 128,-1,4
 577 -27 577 -27 480 -27 c 0,5,6
 411 -27 411 -27 354 -4.5 c 128,-1,7
 297 18 297 18 251 58.5 c 128,-1,8
 205 99 205 99 171 155 c 128,-1,9
 137 211 137 211 114 277 c 128,-1,10
 91 343 91 343 79.5 416.5 c 128,-1,11
 68 490 68 490 68 566 c 0,12,13
 68 677 68 677 92.5 784.5 c 128,-1,14
 117 892 117 892 168 977 c 128,-1,15
 219 1062 219 1062 298 1114.5 c 128,-1,16
 377 1167 377 1167 486 1167 c 0,17,18
 565 1167 565 1167 631.5 1137 c 128,-1,19
 698 1107 698 1107 746.5 1052 c 128,-1,20
 795 997 795 997 823 921 c 128,-1,21
 851 845 851 845 854 754 c 1,22,-1
 581 742 l 1,23,24
 578 767 578 767 574 800.5 c 128,-1,25
 570 834 570 834 560 865 c 128,-1,26
 550 896 550 896 531.5 917.5 c 128,-1,27
 513 939 513 939 483 939 c 0,28,29
 451 939 451 939 429.5 919 c 128,-1,30
 408 899 408 899 394 866.5 c 128,-1,31
 380 834 380 834 372.5 793.5 c 128,-1,32
 365 753 365 753 361.5 712.5 c 128,-1,33
 358 672 358 672 357.5 636 c 128,-1,34
 357 600 357 600 357 576 c 256,35,36
 357 552 357 552 357.5 516 c 128,-1,37
 358 480 358 480 362 440 c 128,-1,38
 366 400 366 400 374 360 c 128,-1,39
 382 320 382 320 397 288 c 128,-1,40
 412 256 412 256 435 236 c 128,-1,41
 458 216 458 216 492 216 c 0,42,43
 513 216 513 216 529 225.5 c 128,-1,44
 545 235 545 235 557 250 c 128,-1,45
 569 265 569 265 577.5 284.5 c 128,-1,46
 586 304 586 304 592 324 c 0,47,48
 605 372 605 372 607 432 c 1,49,-1
 847 405 l 1,50,-1
 847 405 l 1,0,1
EndSplineSet
EndChar

StartChar: d
Encoding: 100 100 74
Width: 1067
Flags: W
LayerCount: 2
Fore
SplineSet
726 -12 m 1,0,-1
 656 144 l 1,1,2
 643 96 643 96 612 58 c 0,3,4
 599 42 599 42 580.5 26.5 c 128,-1,5
 562 11 562 11 537 -1 c 128,-1,6
 512 -13 512 -13 480.5 -20 c 128,-1,7
 449 -27 449 -27 409 -27 c 0,8,9
 330 -27 330 -27 268.5 8.5 c 128,-1,10
 207 44 207 44 164.5 118.5 c 128,-1,11
 122 193 122 193 100 306.5 c 128,-1,12
 78 420 78 420 78 576 c 0,13,14
 78 735 78 735 95.5 847.5 c 128,-1,15
 113 960 113 960 151.5 1031 c 128,-1,16
 190 1102 190 1102 250 1134.5 c 128,-1,17
 310 1167 310 1167 395 1167 c 0,18,19
 419 1167 419 1167 443.5 1160 c 128,-1,20
 468 1153 468 1153 491 1141 c 128,-1,21
 514 1129 514 1129 535.5 1114 c 128,-1,22
 557 1099 557 1099 575 1083 c 0,23,24
 618 1046 618 1046 656 1000 c 1,25,-1
 656 1500 l 1,26,-1
 944 1536 l 1,27,-1
 944 12 l 1,28,-1
 726 -12 l 1,0,-1
656 864 m 1,29,30
 635 890 635 890 612 910 c 0,31,32
 592 927 592 927 567 941.5 c 128,-1,33
 542 956 542 956 516 956 c 0,34,35
 463 956 463 956 433 926.5 c 128,-1,36
 403 897 403 897 388 845.5 c 128,-1,37
 373 794 373 794 369.5 724.5 c 128,-1,38
 366 655 366 655 366 576 c 0,39,40
 366 496 366 496 369.5 424 c 128,-1,41
 373 352 373 352 388 297.5 c 128,-1,42
 403 243 403 243 433 211 c 128,-1,43
 463 179 463 179 516 179 c 0,44,45
 542 179 542 179 567 192.5 c 128,-1,46
 592 206 592 206 612 239.5 c 128,-1,47
 632 273 632 273 644 331.5 c 128,-1,48
 656 390 656 390 656 480 c 2,49,-1
 656 864 l 1,29,30
EndSplineSet
EndChar

StartChar: e
Encoding: 101 101 75
Width: 965
Flags: W
LayerCount: 2
Fore
SplineSet
357 536 m 1,0,1
 357 482 357 482 364 420 c 128,-1,2
 371 358 371 358 387.5 306 c 128,-1,3
 404 254 404 254 431 219.5 c 128,-1,4
 458 185 458 185 497 185 c 0,5,6
 531 185 531 185 559 212 c 128,-1,7
 587 239 587 239 608 273 c 128,-1,8
 629 307 629 307 641.5 337 c 128,-1,9
 654 367 654 367 657 373 c 1,10,-1
 875 290 l 1,11,12
 855 220 855 220 822 162 c 128,-1,13
 789 104 789 104 742 62 c 128,-1,14
 695 20 695 20 633 -3.5 c 128,-1,15
 571 -27 571 -27 492 -27 c 0,16,17
 387 -27 387 -27 307.5 17 c 128,-1,18
 228 61 228 61 175.5 140 c 128,-1,19
 123 219 123 219 96.5 329 c 128,-1,20
 70 439 70 439 70 570 c 0,21,22
 70 702 70 702 97 812 c 128,-1,23
 124 922 124 922 178 1001 c 128,-1,24
 232 1080 232 1080 313 1123.5 c 128,-1,25
 394 1167 394 1167 502 1167 c 0,26,27
 605 1167 605 1167 682 1123.5 c 128,-1,28
 759 1080 759 1080 811 1001 c 128,-1,29
 863 922 863 922 889 812 c 128,-1,30
 915 702 915 702 915 570 c 1,31,-1
 911 556 l 2,32,33
 909 550 909 550 908 544.5 c 128,-1,34
 907 539 907 539 907 536 c 1,35,-1
 357 536 l 1,0,1
632 702 m 1,36,37
 632 759 632 759 624.5 808 c 128,-1,38
 617 857 617 857 601 892.5 c 128,-1,39
 585 928 585 928 559.5 948.5 c 128,-1,40
 534 969 534 969 497 969 c 0,41,42
 471 969 471 969 445.5 948.5 c 128,-1,43
 420 928 420 928 400.5 892.5 c 128,-1,44
 381 857 381 857 369 808 c 128,-1,45
 357 759 357 759 357 702 c 1,46,-1
 632 702 l 1,36,37
EndSplineSet
EndChar

StartChar: f
Encoding: 102 102 76
Width: 690
Flags: W
LayerCount: 2
Fore
SplineSet
176 936 m 1,0,-1
 34 936 l 1,1,-1
 46 1152 l 1,2,-1
 176 1152 l 1,3,-1
 176 1174 l 2,4,5
 176 1244 176 1244 181.5 1310.5 c 128,-1,6
 187 1377 187 1377 214.5 1429.5 c 128,-1,7
 242 1482 242 1482 300 1514 c 128,-1,8
 358 1546 358 1546 462 1546 c 0,9,10
 515 1546 515 1546 552 1541 c 128,-1,11
 589 1536 589 1536 612 1531 c 0,12,13
 639 1524 639 1524 657 1516 c 1,14,-1
 657 1344 l 1,15,-1
 594 1344 l 2,16,17
 549 1344 549 1344 523 1329 c 128,-1,18
 497 1314 497 1314 484 1290 c 128,-1,19
 471 1266 471 1266 467.5 1235 c 128,-1,20
 464 1204 464 1204 464 1173 c 2,21,-1
 464 1152 l 1,22,-1
 667 1152 l 1,23,-1
 655 936 l 1,24,-1
 464 936 l 1,25,-1
 464 12 l 1,26,-1
 176 -12 l 1,27,-1
 176 936 l 1,0,-1
EndSplineSet
EndChar

StartChar: g
Encoding: 103 103 77
Width: 1109
Flags: W
LayerCount: 2
Fore
SplineSet
44 -123 m 0,0,1
 44 -94 44 -94 52.5 -69 c 128,-1,2
 61 -44 61 -44 75.5 -22.5 c 128,-1,3
 90 -1 90 -1 108 16.5 c 128,-1,4
 126 34 126 34 145 48 c 0,5,6
 189 81 189 81 246 103 c 1,7,8
 198 116 198 116 160 137 c 0,9,10
 144 146 144 146 128.5 158 c 128,-1,11
 113 170 113 170 101 184.5 c 128,-1,12
 89 199 89 199 81.5 217 c 128,-1,13
 74 235 74 235 74 256 c 0,14,15
 74 284 74 284 83.5 310.5 c 128,-1,16
 93 337 93 337 108 360 c 128,-1,17
 123 383 123 383 142.5 403.5 c 128,-1,18
 162 424 162 424 182 441 c 0,19,20
 230 481 230 481 291 511 c 1,21,22
 239 542 239 542 199 586 c 0,23,24
 182 605 182 605 165.5 628.5 c 128,-1,25
 149 652 149 652 136 680.5 c 128,-1,26
 123 709 123 709 115 742.5 c 128,-1,27
 107 776 107 776 107 815 c 0,28,29
 107 901 107 901 144.5 967 c 128,-1,30
 182 1033 182 1033 242 1077.5 c 128,-1,31
 302 1122 302 1122 377.5 1144.5 c 128,-1,32
 453 1167 453 1167 530 1167 c 0,33,34
 585 1167 585 1167 630 1159 c 128,-1,35
 675 1151 675 1151 710.5 1138 c 128,-1,36
 746 1125 746 1125 773.5 1110 c 128,-1,37
 801 1095 801 1095 822 1081 c 1,38,39
 837 1095 837 1095 862.5 1117.5 c 128,-1,40
 888 1140 888 1140 921 1162 c 128,-1,41
 954 1184 954 1184 992.5 1199.5 c 128,-1,42
 1031 1215 1031 1215 1070 1215 c 0,43,44
 1075 1215 1075 1215 1080 1214.5 c 128,-1,45
 1085 1214 1085 1214 1090 1213 c 256,46,47
 1095 1212 1095 1212 1101 1211 c 1,48,-1
 1101 969 l 1,49,50
 1074 979 1074 979 1050 988 c 0,51,52
 1030 996 1030 996 1008.5 1002 c 128,-1,53
 987 1008 987 1008 975 1008 c 0,54,55
 964 1008 964 1008 954.5 1005 c 128,-1,56
 945 1002 945 1002 937 999 c 0,57,58
 927 995 927 995 919 991 c 1,59,60
 931 961 931 961 941 931 c 0,61,62
 949 905 949 905 956 875.5 c 128,-1,63
 963 846 963 846 963 820 c 0,64,65
 963 757 963 757 937.5 692 c 128,-1,66
 912 627 912 627 862 573.5 c 128,-1,67
 812 520 812 520 737.5 486.5 c 128,-1,68
 663 453 663 453 565 465 c 1,69,70
 526 465 526 465 496 467 c 128,-1,71
 466 469 466 469 445 469 c 1,72,73
 403 457 403 457 386.5 442.5 c 128,-1,74
 370 428 370 428 370 374 c 0,75,76
 370 345 370 345 391 325.5 c 128,-1,77
 412 306 412 306 442 302 c 1,78,-1
 714 281 l 2,79,80
 792 275 792 275 854.5 256.5 c 128,-1,81
 917 238 917 238 961.5 198 c 128,-1,82
 1006 158 1006 158 1029.5 103.5 c 128,-1,83
 1053 49 1053 49 1053 -20 c 0,84,85
 1053 -85 1053 -85 1029 -136 c 128,-1,86
 1005 -187 1005 -187 964.5 -224.5 c 128,-1,87
 924 -262 924 -262 870.5 -287.5 c 128,-1,88
 817 -313 817 -313 758.5 -328.5 c 128,-1,89
 700 -344 700 -344 640 -351 c 128,-1,90
 580 -358 580 -358 526 -358 c 0,91,92
 409 -358 409 -358 319 -340.5 c 128,-1,93
 229 -323 229 -323 168 -292 c 128,-1,94
 107 -261 107 -261 75.5 -218 c 128,-1,95
 44 -175 44 -175 44 -123 c 0,0,1
306 -36 m 256,96,97
 306 -61 306 -61 319.5 -81 c 128,-1,98
 333 -101 333 -101 363.5 -115.5 c 128,-1,99
 394 -130 394 -130 442.5 -137.5 c 128,-1,100
 491 -145 491 -145 561 -145 c 0,101,102
 664 -145 664 -145 718.5 -111 c 128,-1,103
 773 -77 773 -77 773 -17 c 0,104,105
 773 16 773 16 749 35.5 c 128,-1,106
 725 55 725 55 691.5 64.5 c 128,-1,107
 658 74 658 74 622.5 77 c 128,-1,108
 587 80 587 80 565 80 c 2,109,-1
 397 80 l 1,110,111
 381 75 381 75 364.5 66 c 128,-1,112
 348 57 348 57 335 42.5 c 128,-1,113
 322 28 322 28 314 8.5 c 128,-1,114
 306 -11 306 -11 306 -36 c 256,96,97
395 826 m 0,115,116
 395 793 395 793 400 758 c 128,-1,117
 405 723 405 723 419.5 694 c 128,-1,118
 434 665 434 665 460.5 646.5 c 128,-1,119
 487 628 487 628 530 628 c 0,120,121
 589 628 589 628 623.5 677.5 c 128,-1,122
 658 727 658 727 658 820 c 0,123,124
 658 865 658 865 647.5 897.5 c 128,-1,125
 637 930 637 930 619 951 c 128,-1,126
 601 972 601 972 577.5 982.5 c 128,-1,127
 554 993 554 993 528 993 c 0,128,129
 493 993 493 993 468 977.5 c 128,-1,130
 443 962 443 962 427 938 c 128,-1,131
 411 914 411 914 403 884 c 128,-1,132
 395 854 395 854 395 826 c 0,115,116
EndSplineSet
EndChar

StartChar: h
Encoding: 104 104 78
Width: 1104
Flags: W
LayerCount: 2
Fore
SplineSet
700 773 m 2,0,1
 700 852 700 852 671.5 887 c 128,-1,2
 643 922 643 922 600 922 c 0,3,4
 560 922 560 922 516 900.5 c 128,-1,5
 472 879 472 879 412 843 c 1,6,-1
 412 12 l 1,7,-1
 124 -12 l 1,8,-1
 124 1500 l 1,9,-1
 412 1536 l 1,10,-1
 412 1005 l 1,11,12
 502 1089 502 1089 585 1128 c 128,-1,13
 668 1167 668 1167 742 1167 c 0,14,15
 796 1167 796 1167 841 1146.5 c 128,-1,16
 886 1126 886 1126 918.5 1088.5 c 128,-1,17
 951 1051 951 1051 969.5 997 c 128,-1,18
 988 943 988 943 988 876 c 2,19,-1
 988 12 l 1,20,-1
 700 -12 l 1,21,-1
 700 773 l 2,0,1
EndSplineSet
EndChar

StartChar: i
Encoding: 105 105 79
Width: 536
Flags: W
LayerCount: 2
Fore
SplineSet
124 1128 m 1,0,-1
 412 1152 l 1,1,-1
 412 12 l 1,2,-1
 124 -12 l 1,3,-1
 124 1128 l 1,0,-1
412 1600 m 1,4,-1
 412 1312 l 1,5,-1
 124 1300 l 1,6,-1
 124 1598 l 1,7,-1
 412 1600 l 1,4,-1
EndSplineSet
EndChar

StartChar: j
Encoding: 106 106 80
Width: 536
Flags: W
LayerCount: 2
Fore
SplineSet
-35 -96 m 1,0,1
 21 -96 21 -96 53 -88 c 128,-1,2
 85 -80 85 -80 100.5 -62.5 c 128,-1,3
 116 -45 116 -45 120 -16.5 c 128,-1,4
 124 12 124 12 124 54 c 2,5,-1
 124 1128 l 1,6,-1
 412 1152 l 1,7,-1
 412 54 l 2,8,9
 412 -27 412 -27 408 -91 c 128,-1,10
 404 -155 404 -155 380 -198.5 c 128,-1,11
 356 -242 356 -242 304.5 -265 c 128,-1,12
 253 -288 253 -288 157 -288 c 0,13,14
 117 -288 117 -288 69.5 -283.5 c 128,-1,15
 22 -279 22 -279 -35 -269 c 1,16,-1
 -35 -96 l 1,0,1
412 1600 m 1,17,-1
 412 1312 l 1,18,-1
 124 1300 l 1,19,-1
 124 1598 l 1,20,-1
 412 1600 l 1,17,-1
EndSplineSet
EndChar

StartChar: k
Encoding: 107 107 81
Width: 1021
Flags: W
LayerCount: 2
Fore
SplineSet
413 421 m 1,0,-1
 413 0 l 1,1,-1
 125 0 l 1,2,-1
 125 1500 l 1,3,-1
 413 1536 l 1,4,-1
 413 775 l 1,5,-1
 706 1152 l 1,6,-1
 1017 1152 l 1,7,-1
 693 738 l 1,8,-1
 994 60 l 1,9,-1
 740 -27 l 1,10,-1
 507 546 l 1,11,-1
 413 421 l 1,0,-1
EndSplineSet
EndChar

StartChar: l
Encoding: 108 108 82
Width: 536
Flags: W
LayerCount: 2
Fore
SplineSet
124 1500 m 1,0,-1
 412 1536 l 1,1,-1
 412 12 l 1,2,-1
 124 -12 l 1,3,-1
 124 1500 l 1,0,-1
EndSplineSet
EndChar

StartChar: m
Encoding: 109 109 83
Width: 1487
Flags: W
LayerCount: 2
Fore
SplineSet
1084 802 m 2,0,1
 1084 860 1084 860 1067.5 890.5 c 128,-1,2
 1051 921 1051 921 1025 921 c 0,3,4
 996 921 996 921 972 908 c 128,-1,5
 948 895 948 895 930 880 c 0,6,7
 909 862 909 862 892 839 c 1,8,-1
 892 12 l 1,9,-1
 604 -12 l 1,10,-1
 604 804 l 2,11,12
 604 867 604 867 589.5 894 c 128,-1,13
 575 921 575 921 555 921 c 0,14,15
 527 921 527 921 501.5 908 c 128,-1,16
 476 895 476 895 456 880 c 0,17,18
 432 862 432 862 412 839 c 1,19,-1
 412 12 l 1,20,-1
 124 -12 l 1,21,-1
 124 1128 l 1,22,-1
 412 1152 l 1,23,-1
 412 1005 l 1,24,25
 473 1077 473 1077 548.5 1122 c 128,-1,26
 624 1167 624 1167 709 1167 c 0,27,28
 768 1167 768 1167 812.5 1126 c 128,-1,29
 857 1085 857 1085 879 988 c 1,30,31
 942 1071 942 1071 1012.5 1119 c 128,-1,32
 1083 1167 1083 1167 1175 1167 c 0,33,34
 1232 1167 1232 1167 1269.5 1143.5 c 128,-1,35
 1307 1120 1307 1120 1330 1075 c 128,-1,36
 1353 1030 1353 1030 1362.5 965 c 128,-1,37
 1372 900 1372 900 1372 817 c 2,38,-1
 1372 12 l 1,39,-1
 1084 -12 l 1,40,-1
 1084 802 l 2,0,1
EndSplineSet
EndChar

StartChar: n
Encoding: 110 110 84
Width: 1104
Flags: W
LayerCount: 2
Fore
SplineSet
700 769 m 2,0,1
 700 854 700 854 671 888 c 128,-1,2
 642 922 642 922 595 922 c 0,3,4
 557 922 557 922 509.5 897 c 128,-1,5
 462 872 462 872 412 842 c 1,6,-1
 412 12 l 1,7,-1
 124 -12 l 1,8,-1
 124 1128 l 1,9,-1
 412 1152 l 1,10,-1
 412 1005 l 1,11,12
 498 1080 498 1080 583 1123.5 c 128,-1,13
 668 1167 668 1167 742 1167 c 0,14,15
 796 1167 796 1167 841 1146.5 c 128,-1,16
 886 1126 886 1126 918.5 1088.5 c 128,-1,17
 951 1051 951 1051 969.5 997 c 128,-1,18
 988 943 988 943 988 876 c 2,19,-1
 988 12 l 1,20,-1
 700 -12 l 1,21,-1
 700 769 l 2,0,1
EndSplineSet
EndChar

StartChar: o
Encoding: 111 111 85
Width: 1003
Flags: W
LayerCount: 2
Fore
SplineSet
502 -27 m 0,0,1
 394 -27 394 -27 313 17.5 c 128,-1,2
 232 62 232 62 178 141.5 c 128,-1,3
 124 221 124 221 97 332 c 128,-1,4
 70 443 70 443 70 577 c 0,5,6
 70 706 70 706 97 814.5 c 128,-1,7
 124 923 124 923 178 1001.5 c 128,-1,8
 232 1080 232 1080 313 1123.5 c 128,-1,9
 394 1167 394 1167 502 1167 c 0,10,11
 607 1167 607 1167 688 1123.5 c 128,-1,12
 769 1080 769 1080 823.5 1001.5 c 128,-1,13
 878 923 878 923 906 814.5 c 128,-1,14
 934 706 934 706 934 577 c 0,15,16
 934 443 934 443 906 332 c 128,-1,17
 878 221 878 221 823.5 141.5 c 128,-1,18
 769 62 769 62 688 17.5 c 128,-1,19
 607 -27 607 -27 502 -27 c 0,0,1
500 187 m 0,20,21
 535 187 535 187 560 206 c 128,-1,22
 585 225 585 225 601 256.5 c 128,-1,23
 617 288 617 288 626 328.5 c 128,-1,24
 635 369 635 369 639 412.5 c 128,-1,25
 643 456 643 456 644 498.5 c 128,-1,26
 645 541 645 541 645 577 c 0,27,28
 645 612 645 612 644 654 c 128,-1,29
 643 696 643 696 639 739 c 128,-1,30
 635 782 635 782 626 822.5 c 128,-1,31
 617 863 617 863 601 894.5 c 128,-1,32
 585 926 585 926 560.5 945 c 128,-1,33
 536 964 536 964 501 964 c 0,34,35
 465 964 465 964 440.5 945 c 128,-1,36
 416 926 416 926 400 894.5 c 128,-1,37
 384 863 384 863 375.5 822.5 c 128,-1,38
 367 782 367 782 363 739 c 128,-1,39
 359 696 359 696 358.5 654 c 128,-1,40
 358 612 358 612 358 577 c 0,41,42
 358 541 358 541 358.5 498.5 c 128,-1,43
 359 456 359 456 363 412.5 c 128,-1,44
 367 369 367 369 375.5 328.5 c 128,-1,45
 384 288 384 288 399.5 256.5 c 128,-1,46
 415 225 415 225 439.5 206 c 128,-1,47
 464 187 464 187 500 187 c 0,20,21
EndSplineSet
EndChar

StartChar: p
Encoding: 112 112 86
Width: 1042
Flags: W
LayerCount: 2
Fore
SplineSet
124 1128 m 1,0,-1
 412 1152 l 1,1,-1
 412 1041 l 1,2,3
 436 1065 436 1065 463.5 1087.5 c 128,-1,4
 491 1110 491 1110 521.5 1127.5 c 128,-1,5
 552 1145 552 1145 586 1156 c 128,-1,6
 620 1167 620 1167 656 1167 c 0,7,8
 735 1167 735 1167 788.5 1139.5 c 128,-1,9
 842 1112 842 1112 876 1066 c 128,-1,10
 910 1020 910 1020 927.5 959.5 c 128,-1,11
 945 899 945 899 952 833.5 c 128,-1,12
 959 768 959 768 959.5 701.5 c 128,-1,13
 960 635 960 635 960 576 c 0,14,15
 960 522 960 522 958 456 c 128,-1,16
 956 390 956 390 946.5 323 c 128,-1,17
 937 256 937 256 917 193 c 128,-1,18
 897 130 897 130 860.5 81 c 128,-1,19
 824 32 824 32 769 2.5 c 128,-1,20
 714 -27 714 -27 634 -27 c 0,21,22
 578 -27 578 -27 537 -7.5 c 128,-1,23
 496 12 496 12 468 36 c 0,24,25
 435 63 435 63 412 99 c 1,26,-1
 412 -302 l 1,27,-1
 124 -358 l 1,28,-1
 124 1128 l 1,0,-1
535 960 m 0,29,30
 507 960 507 960 484.5 947.5 c 128,-1,31
 462 935 462 935 446 920 c 0,32,33
 427 902 427 902 412 880 c 1,34,-1
 412 285 l 1,35,36
 424 259 424 259 442 239 c 0,37,38
 457 222 457 222 480.5 207.5 c 128,-1,39
 504 193 504 193 537 193 c 0,40,41
 567 193 567 193 591.5 208 c 128,-1,42
 616 223 616 223 634 265 c 128,-1,43
 652 307 652 307 662 382 c 128,-1,44
 672 457 672 457 672 576 c 0,45,46
 672 684 672 684 663 757.5 c 128,-1,47
 654 831 654 831 637 876 c 128,-1,48
 620 921 620 921 594 940.5 c 128,-1,49
 568 960 568 960 535 960 c 0,29,30
EndSplineSet
EndChar

StartChar: q
Encoding: 113 113 87
Width: 1023
Flags: W
LayerCount: 2
Fore
SplineSet
899 -322 m 1,0,-1
 611 -358 l 1,1,-1
 611 99 l 1,2,3
 588 63 588 63 555 36 c 0,4,5
 527 12 527 12 485.5 -7.5 c 128,-1,6
 444 -27 444 -27 389 -27 c 0,7,8
 314 -27 314 -27 262.5 2.5 c 128,-1,9
 211 32 211 32 177 81 c 128,-1,10
 143 130 143 130 124 193 c 128,-1,11
 105 256 105 256 96 323 c 128,-1,12
 87 390 87 390 85 455.5 c 128,-1,13
 83 521 83 521 83 576 c 0,14,15
 83 635 83 635 83.5 701.5 c 128,-1,16
 84 768 84 768 90.5 833.5 c 128,-1,17
 97 899 97 899 113 959.5 c 128,-1,18
 129 1020 129 1020 160.5 1066 c 128,-1,19
 192 1112 192 1112 242 1139.5 c 128,-1,20
 292 1167 292 1167 367 1167 c 0,21,22
 403 1167 403 1167 437 1156 c 128,-1,23
 471 1145 471 1145 501.5 1127.5 c 128,-1,24
 532 1110 532 1110 559.5 1087.5 c 128,-1,25
 587 1065 587 1065 611 1041 c 1,26,-1
 659 1152 l 1,27,-1
 899 1128 l 1,28,-1
 899 -322 l 1,0,-1
508 960 m 0,29,30
 475 960 475 960 449 940.5 c 128,-1,31
 423 921 423 921 406 876 c 128,-1,32
 389 831 389 831 380 757.5 c 128,-1,33
 371 684 371 684 371 576 c 0,34,35
 371 457 371 457 379.5 382 c 128,-1,36
 388 307 388 307 403.5 265 c 128,-1,37
 419 223 419 223 440 208 c 128,-1,38
 461 193 461 193 486 193 c 0,39,40
 518 193 518 193 542 207.5 c 128,-1,41
 566 222 566 222 581 239 c 0,42,43
 599 259 599 259 611 285 c 1,44,-1
 611 880 l 1,45,46
 599 902 599 902 583 920 c 0,47,48
 569 935 569 935 550 947.5 c 128,-1,49
 531 960 531 960 508 960 c 0,29,30
EndSplineSet
EndChar

StartChar: r
Encoding: 114 114 88
Width: 831
Flags: W
LayerCount: 2
Fore
SplineSet
124 1128 m 1,0,-1
 412 1152 l 1,1,-1
 412 967 l 1,2,3
 437 1000 437 1000 471 1035.5 c 128,-1,4
 505 1071 505 1071 548.5 1100 c 128,-1,5
 592 1129 592 1129 645 1148 c 128,-1,6
 698 1167 698 1167 761 1167 c 0,7,8
 766 1167 766 1167 772 1166.5 c 128,-1,9
 778 1166 778 1166 783 1165 c 0,10,11
 789 1164 789 1164 796 1163 c 1,12,-1
 796 820 l 1,13,14
 749 834 749 834 701 849 c 128,-1,15
 653 864 653 864 604 864 c 0,16,17
 556 864 556 864 509 843 c 128,-1,18
 462 822 462 822 412 768 c 1,19,-1
 412 12 l 1,20,-1
 124 -12 l 1,21,-1
 124 1128 l 1,0,-1
EndSplineSet
EndChar

StartChar: s
Encoding: 115 115 89
Width: 926
Flags: W
LayerCount: 2
Fore
SplineSet
282 337 m 1,0,1
 291 298 291 298 313 268 c 0,2,3
 331 242 331 242 364 221 c 128,-1,4
 397 200 397 200 450 200 c 0,5,6
 470 200 470 200 495.5 204.5 c 128,-1,7
 521 209 521 209 543 220 c 128,-1,8
 565 231 565 231 580 248.5 c 128,-1,9
 595 266 595 266 595 293 c 0,10,11
 595 330 595 330 569 354 c 128,-1,12
 543 378 543 378 508 392 c 2,13,-1
 267 490 l 2,14,15
 170 529 170 529 118.5 611.5 c 128,-1,16
 67 694 67 694 67 814 c 0,17,18
 67 900 67 900 100 966 c 128,-1,19
 133 1032 133 1032 187 1076.5 c 128,-1,20
 241 1121 241 1121 311 1144 c 128,-1,21
 381 1167 381 1167 456 1167 c 0,22,23
 518 1167 518 1167 578.5 1149 c 128,-1,24
 639 1131 639 1131 691 1095.5 c 128,-1,25
 743 1060 743 1060 781.5 1008 c 128,-1,26
 820 956 820 956 839 889 c 1,27,-1
 603 816 l 1,28,29
 592 854 592 854 573 885 c 0,30,31
 556 911 556 911 528 932.5 c 128,-1,32
 500 954 500 954 458 954 c 0,33,34
 435 954 435 954 413 949 c 128,-1,35
 391 944 391 944 373.5 932.5 c 128,-1,36
 356 921 356 921 345 903.5 c 128,-1,37
 334 886 334 886 334 862 c 0,38,39
 334 843 334 843 344.5 827.5 c 128,-1,40
 355 812 355 812 370.5 800 c 128,-1,41
 386 788 386 788 403 779 c 128,-1,42
 420 770 420 770 434 764 c 2,43,-1
 639 679 l 1,44,45
 687 657 687 657 729.5 628 c 128,-1,46
 772 599 772 599 803.5 559 c 128,-1,47
 835 519 835 519 853 465.5 c 128,-1,48
 871 412 871 412 871 342 c 0,49,50
 871 249 871 249 836 180 c 128,-1,51
 801 111 801 111 744 65 c 128,-1,52
 687 19 687 19 615 -4 c 128,-1,53
 543 -27 543 -27 469 -27 c 0,54,55
 381 -27 381 -27 312 -6.5 c 128,-1,56
 243 14 243 14 192 52 c 128,-1,57
 141 90 141 90 108 144 c 128,-1,58
 75 198 75 198 60 265 c 1,59,-1
 282 337 l 1,0,1
EndSplineSet
EndChar

StartChar: t
Encoding: 116 116 90
Width: 732
Flags: W
LayerCount: 2
Fore
SplineSet
197 1152 m 1,0,-1
 226 1402 l 1,1,-1
 476 1438 l 1,2,-1
 476 1152 l 1,3,-1
 712 1152 l 1,4,-1
 700 936 l 1,5,-1
 477 936 l 1,6,-1
 477 301 l 2,7,8
 477 267 477 267 491 245.5 c 128,-1,9
 505 224 505 224 526.5 212 c 128,-1,10
 548 200 548 200 574 196 c 128,-1,11
 600 192 600 192 624 192 c 0,12,13
 655 192 655 192 675 195 c 0,14,15
 686 197 686 197 696 199 c 1,16,-1
 696 1 l 1,17,18
 674 -7 674 -7 642 -13 c 0,19,20
 615 -18 615 -18 574 -22.5 c 128,-1,21
 533 -27 533 -27 476 -27 c 0,22,23
 429 -27 429 -27 378.5 -13.5 c 128,-1,24
 328 0 328 0 286 31.5 c 128,-1,25
 244 63 244 63 216.5 115 c 128,-1,26
 189 167 189 167 189 244 c 2,27,-1
 189 936 l 1,28,-1
 28 936 l 1,29,-1
 40 1152 l 1,30,-1
 197 1152 l 1,0,-1
EndSplineSet
EndChar

StartChar: u
Encoding: 117 117 91
Width: 1104
Flags: W
LayerCount: 2
Fore
SplineSet
404 381 m 2,0,1
 404 296 404 296 430 262 c 128,-1,2
 456 228 456 228 499 228 c 0,3,4
 519 228 519 228 541.5 235.5 c 128,-1,5
 564 243 564 243 589 256 c 128,-1,6
 614 269 614 269 640 285 c 128,-1,7
 666 301 666 301 692 318 c 1,8,-1
 692 1128 l 1,9,-1
 980 1152 l 1,10,-1
 980 12 l 1,11,-1
 692 -12 l 1,12,-1
 692 135 l 1,13,14
 608 60 608 60 526 16.5 c 128,-1,15
 444 -27 444 -27 372 -27 c 0,16,17
 316 -27 316 -27 269 -6.5 c 128,-1,18
 222 14 222 14 188 51.5 c 128,-1,19
 154 89 154 89 135 143 c 128,-1,20
 116 197 116 197 116 264 c 2,21,-1
 116 1128 l 1,22,-1
 404 1152 l 1,23,-1
 404 381 l 2,0,1
EndSplineSet
EndChar

StartChar: v
Encoding: 118 118 92
Width: 932
Flags: W
LayerCount: 2
Fore
SplineSet
9 1128 m 1,0,-1
 352 1152 l 1,1,-1
 497 415 l 1,2,-1
 663 1116 l 1,3,-1
 924 1140 l 1,4,-1
 779 640 l 1,5,-1
 594 0 l 1,6,-1
 329 0 l 1,7,-1
 147 640 l 1,8,-1
 9 1128 l 1,0,-1
EndSplineSet
EndChar

StartChar: w
Encoding: 119 119 93
Width: 1315
Flags: W
LayerCount: 2
Fore
SplineSet
670 747 m 1,0,-1
 508 0 l 1,1,-1
 273 0 l 1,2,-1
 36 1130 l 1,3,-1
 329 1152 l 1,4,-1
 428 500 l 1,5,-1
 573 1128 l 1,6,-1
 813 1152 l 1,7,-1
 937 508 l 1,8,-1
 1062 1128 l 1,9,-1
 1296 1140 l 1,10,-1
 1032 0 l 1,11,-1
 801 0 l 1,12,-1
 670 747 l 1,0,-1
EndSplineSet
EndChar

StartChar: x
Encoding: 120 120 94
Width: 941
Flags: W
LayerCount: 2
Fore
SplineSet
460 339 m 1,0,-1
 284 0 l 1,1,-1
 10 0 l 1,2,-1
 321 579 l 1,3,-1
 21 1152 l 1,4,-1
 335 1152 l 1,5,-1
 474 870 l 1,6,-1
 620 1152 l 1,7,-1
 892 1152 l 1,8,-1
 615 634 l 1,9,-1
 947 12 l 1,10,-1
 630 -12 l 1,11,-1
 460 339 l 1,0,-1
EndSplineSet
EndChar

StartChar: y
Encoding: 121 121 95
Width: 901
Flags: W
LayerCount: 2
Fore
SplineSet
30 -113 m 1,0,1
 56 -114 56 -114 80 -115 c 0,2,3
 100 -116 100 -116 120 -116.5 c 128,-1,4
 140 -117 140 -117 149 -117 c 0,5,6
 199 -117 199 -117 233.5 -105 c 128,-1,7
 268 -93 268 -93 290 -71 c 128,-1,8
 312 -49 312 -49 321.5 -18 c 128,-1,9
 331 13 331 13 331 52 c 2,10,-1
 331 108 l 1,11,-1
 2 1138 l 1,12,-1
 314 1152 l 1,13,-1
 476 431 l 1,14,-1
 629 1146 l 1,15,-1
 889 1148 l 1,16,-1
 594 21 l 1,17,18
 558 -105 558 -105 505 -181.5 c 128,-1,19
 452 -258 452 -258 392 -298.5 c 128,-1,20
 332 -339 332 -339 269.5 -352 c 128,-1,21
 207 -365 207 -365 151 -365 c 0,22,23
 130 -365 130 -365 108 -363 c 128,-1,24
 86 -361 86 -361 69 -359 c 0,25,26
 49 -356 49 -356 30 -353 c 1,27,-1
 30 -113 l 1,28,-1
 30 -113 l 1,0,1
EndSplineSet
EndChar

StartChar: z
Encoding: 122 122 96
Width: 881
Flags: W
LayerCount: 2
Fore
SplineSet
834 234 m 1,0,-1
 810 0 l 1,1,-1
 53 0 l 1,2,-1
 53 181 l 1,3,-1
 448 925 l 1,4,-1
 83 925 l 1,5,-1
 107 1152 l 1,6,-1
 792 1152 l 1,7,-1
 792 982 l 1,8,-1
 404 234 l 1,9,-1
 834 234 l 1,0,-1
EndSplineSet
EndChar

StartChar: braceleft
Encoding: 123 123 97
Width: 674
Flags: W
LayerCount: 2
Fore
SplineSet
141 551 m 0,0,1
 141 575 141 575 139.5 600 c 128,-1,2
 138 625 138 625 129 646 c 128,-1,3
 120 667 120 667 100.5 680 c 128,-1,4
 81 693 81 693 45 693 c 1,5,-1
 45 882 l 1,6,7
 81 882 81 882 100.5 895 c 128,-1,8
 120 908 120 908 129 929 c 128,-1,9
 138 950 138 950 139.5 975 c 128,-1,10
 141 1000 141 1000 141 1024 c 0,11,12
 141 1171 141 1171 162 1284.5 c 128,-1,13
 183 1398 183 1398 237 1475 c 128,-1,14
 291 1552 291 1552 384 1592 c 128,-1,15
 477 1632 477 1632 621 1632 c 1,16,-1
 621 1470 l 1,17,18
 549 1470 549 1470 510 1443 c 128,-1,19
 471 1416 471 1416 453 1360.5 c 128,-1,20
 435 1305 435 1305 432 1221 c 128,-1,21
 429 1137 429 1137 429 1024 c 0,22,23
 429 994 429 994 426 962.5 c 128,-1,24
 423 931 423 931 405 900 c 128,-1,25
 387 869 387 869 348 840.5 c 128,-1,26
 309 812 309 812 237 787 c 1,27,28
 309 763 309 763 348 734.5 c 128,-1,29
 387 706 387 706 405 675 c 128,-1,30
 423 644 423 644 426 612.5 c 128,-1,31
 429 581 429 581 429 551 c 0,32,33
 429 430 429 430 432 340.5 c 128,-1,34
 435 251 435 251 453 192 c 128,-1,35
 471 133 471 133 510 104 c 128,-1,36
 549 75 549 75 621 75 c 1,37,-1
 621 -87 l 1,38,39
 477 -87 477 -87 384 -45 c 128,-1,40
 291 -3 291 -3 237 78 c 128,-1,41
 183 159 183 159 162 278 c 128,-1,42
 141 397 141 397 141 551 c 0,0,1
EndSplineSet
EndChar

StartChar: bar
Encoding: 124 124 98
Width: 582
Flags: W
LayerCount: 2
Fore
SplineSet
141 1632 m 1,0,-1
 441 1632 l 1,1,-1
 441 -96 l 1,2,-1
 141 -96 l 1,3,-1
 141 1632 l 1,0,-1
EndSplineSet
EndChar

StartChar: braceright
Encoding: 125 125 99
Width: 673
Flags: W
LayerCount: 2
Fore
SplineSet
532 551 m 0,0,1
 532 397 532 397 511 278 c 128,-1,2
 490 159 490 159 436 78 c 128,-1,3
 382 -3 382 -3 289 -45 c 128,-1,4
 196 -87 196 -87 52 -87 c 1,5,-1
 52 75 l 1,6,7
 124 75 124 75 163 104 c 128,-1,8
 202 133 202 133 220 192 c 128,-1,9
 238 251 238 251 241 340.5 c 128,-1,10
 244 430 244 430 244 551 c 0,11,12
 244 581 244 581 247 612.5 c 128,-1,13
 250 644 250 644 268 675 c 128,-1,14
 286 706 286 706 325 734.5 c 128,-1,15
 364 763 364 763 436 787 c 1,16,17
 364 812 364 812 325 840.5 c 128,-1,18
 286 869 286 869 268 900 c 128,-1,19
 250 931 250 931 247 962.5 c 128,-1,20
 244 994 244 994 244 1024 c 0,21,22
 244 1137 244 1137 241 1221 c 128,-1,23
 238 1305 238 1305 220 1360.5 c 128,-1,24
 202 1416 202 1416 163 1443 c 128,-1,25
 124 1470 124 1470 52 1470 c 1,26,-1
 52 1632 l 1,27,28
 196 1632 196 1632 289 1592 c 128,-1,29
 382 1552 382 1552 436 1475 c 128,-1,30
 490 1398 490 1398 511 1284.5 c 128,-1,31
 532 1171 532 1171 532 1024 c 0,32,33
 532 1000 532 1000 533.5 975 c 128,-1,34
 535 950 535 950 544 929 c 128,-1,35
 553 908 553 908 572.5 895 c 128,-1,36
 592 882 592 882 628 882 c 1,37,-1
 628 693 l 1,38,39
 592 693 592 693 572.5 680 c 128,-1,40
 553 667 553 667 544 646 c 128,-1,41
 535 625 535 625 533.5 600 c 128,-1,42
 532 575 532 575 532 551 c 0,0,1
EndSplineSet
EndChar

StartChar: asciitilde
Encoding: 126 126 100
Width: 815
Flags: W
LayerCount: 2
Fore
SplineSet
92 932 m 1,0,1
 125 971 125 971 161 1003 c 1,2,3
 192 1029 192 1029 229.5 1051.5 c 128,-1,4
 267 1074 267 1074 305 1074 c 256,5,6
 343 1074 343 1074 374 1057 c 128,-1,7
 405 1040 405 1040 433 1019 c 128,-1,8
 461 998 461 998 488 981 c 128,-1,9
 515 964 515 964 546 964 c 0,10,11
 595 964 595 964 630 981 c 128,-1,12
 665 998 665 998 687 1019 c 0,13,14
 713 1043 713 1043 729 1074 c 1,15,-1
 729 892 l 2,16,17
 729 891 729 891 716 869.5 c 128,-1,18
 703 848 703 848 678.5 823 c 128,-1,19
 654 798 654 798 618.5 777.5 c 128,-1,20
 583 757 583 757 538 757 c 0,21,22
 504 757 504 757 475.5 776 c 128,-1,23
 447 795 447 795 418 817.5 c 128,-1,24
 389 840 389 840 357 859 c 128,-1,25
 325 878 325 878 284 878 c 0,26,27
 247 878 247 878 212.5 860.5 c 128,-1,28
 178 843 178 843 151 823 c 0,29,30
 119 798 119 798 91 768 c 1,31,-1
 92 932 l 1,0,1
EndSplineSet
EndChar

StartChar: cent
Encoding: 162 162 103
Width: 983
Flags: W
LayerCount: 2
Fore
SplineSet
439 -16 m 1,0,1
 341 4 341 4 268.5 59.5 c 128,-1,2
 196 115 196 115 148 193.5 c 128,-1,3
 100 272 100 272 76 368 c 128,-1,4
 52 464 52 464 52 566 c 0,5,6
 52 669 52 669 75 770 c 128,-1,7
 98 871 98 871 145 953.5 c 128,-1,8
 192 1036 192 1036 265 1092 c 128,-1,9
 338 1148 338 1148 439 1162 c 1,10,-1
 439 1344 l 1,11,-1
 578 1344 l 1,12,-1
 578 1161 l 1,13,14
 655 1149 655 1149 718 1114.5 c 128,-1,15
 781 1080 781 1080 827 1027 c 128,-1,16
 873 974 873 974 899 904.5 c 128,-1,17
 925 835 925 835 928 754 c 1,18,-1
 655 742 l 1,19,20
 652 761 652 761 647.5 785 c 128,-1,21
 643 809 643 809 634.5 834 c 128,-1,22
 626 859 626 859 612.5 881 c 128,-1,23
 599 903 599 903 578 918 c 1,24,-1
 578 218 l 1,25,26
 597 222 597 222 611.5 234 c 128,-1,27
 626 246 626 246 636.5 261.5 c 128,-1,28
 647 277 647 277 654.5 296 c 128,-1,29
 662 315 662 315 667 334 c 0,30,31
 678 378 678 378 681 432 c 1,32,-1
 921 405 l 1,33,34
 909 314 909 314 887.5 237.5 c 128,-1,35
 866 161 866 161 827 104.5 c 128,-1,36
 788 48 788 48 727.5 14.5 c 128,-1,37
 667 -19 667 -19 578 -25 c 1,38,-1
 578 -192 l 1,39,-1
 439 -192 l 1,40,-1
 439 -16 l 1,0,1
341 576 m 0,41,42
 341 548 341 548 342.5 504.5 c 128,-1,43
 344 461 344 461 353 414.5 c 128,-1,44
 362 368 362 368 382 324 c 128,-1,45
 402 280 402 280 439 252 c 1,46,-1
 439 920 l 1,47,48
 414 904 414 904 397.5 878 c 128,-1,49
 381 852 381 852 370 820.5 c 128,-1,50
 359 789 359 789 353 754.5 c 128,-1,51
 347 720 347 720 344.5 687 c 128,-1,52
 342 654 342 654 341.5 625 c 128,-1,53
 341 596 341 596 341 576 c 0,41,42
EndSplineSet
EndChar

StartChar: sterling
Encoding: 163 163 104
Width: 914
Flags: W
LayerCount: 2
Fore
SplineSet
801 -2 m 1,0,1
 768 30 768 30 736.5 49.5 c 128,-1,2
 705 69 705 69 675.5 79.5 c 128,-1,3
 646 90 646 90 618 93.5 c 128,-1,4
 590 97 590 97 563 97 c 0,5,6
 504 97 504 97 454.5 80 c 128,-1,7
 405 63 405 63 362 42.5 c 128,-1,8
 319 22 319 22 282 5 c 128,-1,9
 245 -12 245 -12 211 -12 c 0,10,11
 182 -12 182 -12 161 -4.5 c 128,-1,12
 140 3 140 3 126 12 c 0,13,14
 109 23 109 23 97 36 c 1,15,-1
 97 226 l 1,16,17
 140 240 140 240 168.5 273 c 128,-1,18
 197 306 197 306 214 354 c 128,-1,19
 231 402 231 402 238.5 462.5 c 128,-1,20
 246 523 246 523 246 591 c 0,21,22
 246 643 246 643 236 698.5 c 128,-1,23
 226 754 226 754 211 810.5 c 128,-1,24
 196 867 196 867 178 922 c 128,-1,25
 160 977 160 977 145 1027 c 128,-1,26
 130 1077 130 1077 120 1121 c 128,-1,27
 110 1165 110 1165 110 1199 c 0,28,29
 110 1284 110 1284 143 1351.5 c 128,-1,30
 176 1419 176 1419 228.5 1466.5 c 128,-1,31
 281 1514 281 1514 347.5 1539 c 128,-1,32
 414 1564 414 1564 482 1564 c 0,33,34
 546 1564 546 1564 607 1545 c 128,-1,35
 668 1526 668 1526 718.5 1485.5 c 128,-1,36
 769 1445 769 1445 804 1382.5 c 128,-1,37
 839 1320 839 1320 851 1233 c 1,38,-1
 619 1145 l 1,39,40
 619 1240 619 1240 584 1285.5 c 128,-1,41
 549 1331 549 1331 496 1331 c 0,42,43
 458 1331 458 1331 431 1295.5 c 128,-1,44
 404 1260 404 1260 404 1179 c 0,45,46
 404 1108 404 1108 427.5 1042.5 c 128,-1,47
 451 977 451 977 479 912 c 128,-1,48
 507 847 507 847 530.5 778.5 c 128,-1,49
 554 710 554 710 554 632 c 0,50,51
 554 559 554 559 528 474.5 c 128,-1,52
 502 390 502 390 435 288 c 1,53,54
 504 322 504 322 576 322 c 0,55,56
 645 322 645 322 711 297.5 c 128,-1,57
 777 273 777 273 843 231 c 1,58,-1
 843 10 l 1,59,-1
 801 -2 l 1,0,1
105 827 m 1,60,-1
 701 827 l 1,61,-1
 701 636 l 1,62,-1
 105 636 l 1,63,-1
 105 827 l 1,60,-1
EndSplineSet
EndChar

StartChar: currency
Encoding: 164 164 105
Width: 1213
Flags: W
LayerCount: 2
Fore
SplineSet
183 447 m 1,0,-1
 88 556 l 1,1,-1
 228 679 l 1,2,3
 202 729 202 729 189 787.5 c 128,-1,4
 176 846 176 846 176 912 c 0,5,6
 176 980 176 980 189.5 1040 c 128,-1,7
 203 1100 203 1100 232 1151 c 1,8,-1
 88 1278 l 1,9,-1
 183 1387 l 1,10,-1
 326 1261 l 1,11,12
 378 1300 378 1300 448 1321.5 c 128,-1,13
 518 1343 518 1343 608 1343 c 256,14,15
 698 1343 698 1343 767.5 1321 c 128,-1,16
 837 1299 837 1299 889 1260 c 1,17,-1
 1033 1387 l 1,18,-1
 1128 1278 l 1,19,-1
 983 1150 l 1,20,21
 1011 1099 1011 1099 1024.5 1039 c 128,-1,22
 1038 979 1038 979 1038 912 c 0,23,24
 1038 846 1038 846 1025 788 c 128,-1,25
 1012 730 1012 730 986 680 c 1,26,-1
 1128 556 l 1,27,-1
 1033 447 l 1,28,-1
 894 569 l 1,29,30
 841 527 841 527 770 504.5 c 128,-1,31
 699 482 699 482 606 482 c 2,32,-1
 607 482 l 2,33,34
 515 482 515 482 444 504.5 c 128,-1,35
 373 527 373 527 321 568 c 1,36,-1
 183 447 l 1,0,-1
607 698 m 256,37,38
 798 698 798 698 798 912 c 0,39,40
 798 1127 798 1127 607 1127 c 256,41,42
 416 1127 416 1127 416 912 c 0,43,44
 416 698 416 698 607 698 c 256,37,38
EndSplineSet
EndChar

StartChar: yen
Encoding: 165 165 106
Width: 1096
Flags: W
LayerCount: 2
Fore
SplineSet
404 608 m 1,0,-1
 34 1536 l 1,1,-1
 364 1536 l 1,2,-1
 575 896 l 1,3,-1
 803 1536 l 1,4,-1
 1062 1536 l 1,5,-1
 707 643 l 1,6,-1
 707 0 l 1,7,-1
 404 0 l 1,8,-1
 404 608 l 1,0,-1
EndSplineSet
EndChar

StartChar: brokenbar
Encoding: 166 166 107
Width: 590
Flags: W
LayerCount: 2
Fore
SplineSet
145 576 m 1,0,-1
 445 576 l 1,1,-1
 445 -96 l 1,2,-1
 145 -96 l 1,3,-1
 145 576 l 1,0,-1
145 1632 m 1,4,-1
 445 1632 l 1,5,-1
 445 960 l 1,6,-1
 145 960 l 1,7,-1
 145 1632 l 1,4,-1
EndSplineSet
EndChar

StartChar: section
Encoding: 167 167 108
Width: 984
Flags: W
LayerCount: 2
Fore
SplineSet
305 312 m 1,0,1
 314 273 314 273 336 243 c 0,2,3
 354 217 354 217 387 196 c 128,-1,4
 420 175 420 175 473 175 c 0,5,6
 493 175 493 175 518.5 179.5 c 128,-1,7
 544 184 544 184 566 195 c 128,-1,8
 588 206 588 206 603 223.5 c 128,-1,9
 618 241 618 241 618 268 c 0,10,11
 618 305 618 305 592 329 c 128,-1,12
 566 353 566 353 531 367 c 2,13,-1
 290 465 l 1,14,15
 193 503 193 503 141.5 583 c 128,-1,16
 90 663 90 663 90 779 c 0,17,18
 90 850 90 850 112.5 906.5 c 128,-1,19
 135 963 135 963 173 1007 c 1,20,21
 100 1091 100 1091 100 1225 c 0,22,23
 100 1309 100 1309 133 1373 c 128,-1,24
 166 1437 166 1437 220 1480.5 c 128,-1,25
 274 1524 274 1524 344 1546 c 128,-1,26
 414 1568 414 1568 489 1568 c 0,27,28
 551 1568 551 1568 611.5 1550.5 c 128,-1,29
 672 1533 672 1533 724 1499 c 128,-1,30
 776 1465 776 1465 814.5 1415 c 128,-1,31
 853 1365 853 1365 872 1300 c 1,32,-1
 636 1227 l 1,33,34
 625 1265 625 1265 606 1296 c 0,35,36
 589 1322 589 1322 561 1343.5 c 128,-1,37
 533 1365 533 1365 491 1365 c 0,38,39
 468 1365 468 1365 446 1360 c 128,-1,40
 424 1355 424 1355 406.5 1343.5 c 128,-1,41
 389 1332 389 1332 378 1314.5 c 128,-1,42
 367 1297 367 1297 367 1273 c 0,43,44
 367 1254 367 1254 377.5 1238.5 c 128,-1,45
 388 1223 388 1223 403.5 1210.5 c 128,-1,46
 419 1198 419 1198 436 1189 c 128,-1,47
 453 1180 453 1180 467 1175 c 2,48,-1
 672 1090 l 2,49,50
 720 1070 720 1070 762.5 1042.5 c 128,-1,51
 805 1015 805 1015 836.5 977 c 128,-1,52
 868 939 868 939 886 889 c 128,-1,53
 904 839 904 839 904 773 c 0,54,55
 904 695 904 695 879 634.5 c 128,-1,56
 854 574 854 574 812 529 c 1,57,58
 850 491 850 491 872 439 c 128,-1,59
 894 387 894 387 894 317 c 0,60,61
 894 230 894 230 859 164.5 c 128,-1,62
 824 99 824 99 767 55.5 c 128,-1,63
 710 12 710 12 638 -10 c 128,-1,64
 566 -32 566 -32 492 -32 c 0,65,66
 404 -32 404 -32 335 -13 c 128,-1,67
 266 6 266 6 215 41.5 c 128,-1,68
 164 77 164 77 131 127.5 c 128,-1,69
 98 178 98 178 83 240 c 1,70,-1
 305 312 l 1,0,1
357 827 m 0,71,72
 357 804 357 804 367.5 785.5 c 128,-1,73
 378 767 378 767 393.5 752.5 c 128,-1,74
 409 738 409 738 426 727 c 128,-1,75
 443 716 443 716 457 709 c 1,76,-1
 590 654 l 1,77,78
 605 665 605 665 616.5 681.5 c 128,-1,79
 628 698 628 698 628 724 c 0,80,81
 628 761 628 761 602 785 c 128,-1,82
 576 809 576 809 541 823 c 2,83,-1
 380 888 l 1,84,85
 370 877 370 877 363.5 862 c 128,-1,86
 357 847 357 847 357 827 c 0,71,72
EndSplineSet
EndChar

StartChar: dieresis
Encoding: 168 168 109
Width: 1091
Flags: W
LayerCount: 2
Fore
SplineSet
450 1536 m 1,0,-1
 450 1248 l 1,1,-1
 162 1248 l 1,2,-1
 162 1536 l 1,3,-1
 450 1536 l 1,0,-1
930 1536 m 1,4,-1
 930 1248 l 1,5,-1
 642 1248 l 1,6,-1
 642 1536 l 1,7,-1
 930 1536 l 1,4,-1
EndSplineSet
EndChar

StartChar: copyright
Encoding: 169 169 110
Width: 1397
Flags: W
LayerCount: 2
Fore
SplineSet
995 582 m 1,0,1
 995 515 995 515 977.5 453.5 c 128,-1,2
 960 392 960 392 924.5 345 c 128,-1,3
 889 298 889 298 834.5 270 c 128,-1,4
 780 242 780 242 707 242 c 0,5,6
 620 242 620 242 560 283 c 128,-1,7
 500 324 500 324 462.5 389 c 128,-1,8
 425 454 425 454 408 533 c 128,-1,9
 391 612 391 612 391 689 c 0,10,11
 391 736 391 736 398.5 785 c 128,-1,12
 406 834 406 834 421.5 880.5 c 128,-1,13
 437 927 437 927 462.5 968 c 128,-1,14
 488 1009 488 1009 523.5 1039.5 c 128,-1,15
 559 1070 559 1070 606 1088 c 128,-1,16
 653 1106 653 1106 712 1106 c 0,17,18
 778 1106 778 1106 830.5 1076 c 128,-1,19
 883 1046 883 1046 919.5 997 c 128,-1,20
 956 948 956 948 975 887 c 128,-1,21
 994 826 994 826 994 763 c 1,22,-1
 803 755 l 1,23,24
 803 759 803 759 802 775 c 128,-1,25
 801 791 801 791 798 812 c 128,-1,26
 795 833 795 833 788.5 856 c 128,-1,27
 782 879 782 879 770.5 898.5 c 128,-1,28
 759 918 759 918 742 931 c 128,-1,29
 725 944 725 944 700 944 c 0,30,31
 664 944 664 944 642.5 920.5 c 128,-1,32
 621 897 621 897 609 860 c 128,-1,33
 597 823 597 823 593 777.5 c 128,-1,34
 589 732 589 732 589 689 c 0,35,36
 589 633 589 633 593.5 579.5 c 128,-1,37
 598 526 598 526 611.5 484 c 128,-1,38
 625 442 625 442 651 416.5 c 128,-1,39
 677 391 677 391 720 391 c 0,40,41
 751 391 751 391 771 411 c 128,-1,42
 791 431 791 431 802.5 462 c 128,-1,43
 814 493 814 493 819.5 529.5 c 128,-1,44
 825 566 825 566 827 598 c 1,45,-1
 995 582 l 1,0,1
187 673 m 256,46,47
 187 561 187 561 227.5 462.5 c 128,-1,48
 268 364 268 364 337.5 291 c 128,-1,49
 407 218 407 218 500 175.5 c 128,-1,50
 593 133 593 133 699 133 c 0,51,52
 804 133 804 133 897 175.5 c 128,-1,53
 990 218 990 218 1059.5 291 c 128,-1,54
 1129 364 1129 364 1169.5 462.5 c 128,-1,55
 1210 561 1210 561 1210 673 c 256,56,57
 1210 785 1210 785 1169.5 883.5 c 128,-1,58
 1129 982 1129 982 1059.5 1055 c 128,-1,59
 990 1128 990 1128 897 1170.5 c 128,-1,60
 804 1213 804 1213 699 1213 c 0,61,62
 593 1213 593 1213 500 1170.5 c 128,-1,63
 407 1128 407 1128 337.5 1055 c 128,-1,64
 268 982 268 982 227.5 883.5 c 128,-1,65
 187 785 187 785 187 673 c 256,46,47
54 673 m 256,66,67
 54 766 54 766 77 852 c 128,-1,68
 100 938 100 938 142 1013 c 128,-1,69
 184 1088 184 1088 243 1149 c 128,-1,70
 302 1210 302 1210 374 1254 c 128,-1,71
 446 1298 446 1298 528 1322 c 128,-1,72
 610 1346 610 1346 699 1346 c 0,73,74
 787 1346 787 1346 869.5 1322 c 128,-1,75
 952 1298 952 1298 1023.5 1254 c 128,-1,76
 1095 1210 1095 1210 1154 1149 c 128,-1,77
 1213 1088 1213 1088 1255 1013 c 128,-1,78
 1297 938 1297 938 1320 852 c 128,-1,79
 1343 766 1343 766 1343 673 c 256,80,81
 1343 580 1343 580 1320 494 c 128,-1,82
 1297 408 1297 408 1255 333 c 128,-1,83
 1213 258 1213 258 1154 197 c 128,-1,84
 1095 136 1095 136 1023.5 92 c 128,-1,85
 952 48 952 48 869.5 24 c 128,-1,86
 787 0 787 0 699 0 c 0,87,88
 610 0 610 0 528 24 c 128,-1,89
 446 48 446 48 374 92 c 128,-1,90
 302 136 302 136 243 197 c 128,-1,91
 184 258 184 258 142 333 c 128,-1,92
 100 408 100 408 77 494 c 128,-1,93
 54 580 54 580 54 673 c 256,66,67
EndSplineSet
EndChar

StartChar: ordfeminine
Encoding: 170 170 111
Width: 774
Flags: W
LayerCount: 2
Fore
SplineSet
68 549 m 0,0,1
 68 639 68 639 105.5 696.5 c 128,-1,2
 143 754 143 754 199.5 787.5 c 128,-1,3
 256 821 256 821 321 835 c 128,-1,4
 386 849 386 849 442 853 c 1,5,6
 442 882 442 882 441 910.5 c 128,-1,7
 440 939 440 939 434 961.5 c 128,-1,8
 428 984 428 984 415.5 998 c 128,-1,9
 403 1012 403 1012 380 1012 c 0,10,11
 361 1012 361 1012 347.5 1003.5 c 128,-1,12
 334 995 334 995 325 981.5 c 128,-1,13
 316 968 316 968 311 950.5 c 128,-1,14
 306 933 306 933 304 916 c 1,15,-1
 98 952 l 1,16,17
 106 1015 106 1015 134 1056.5 c 128,-1,18
 162 1098 162 1098 201.5 1122.5 c 128,-1,19
 241 1147 241 1147 287.5 1157 c 128,-1,20
 334 1167 334 1167 380 1167 c 0,21,22
 452 1167 452 1167 504 1147 c 128,-1,23
 556 1127 556 1127 589.5 1091.5 c 128,-1,24
 623 1056 623 1056 638.5 1008.5 c 128,-1,25
 654 961 654 961 654 907 c 2,26,-1
 654 468 l 2,27,28
 654 442 654 442 657 415.5 c 128,-1,29
 660 389 660 389 665 367 c 1,30,31
 669 341 669 341 676 317 c 1,32,-1
 470 299 l 1,33,-1
 447 403 l 1,34,35
 435 380 435 380 414.5 359.5 c 128,-1,36
 394 339 394 339 368.5 323 c 128,-1,37
 343 307 343 307 315 297.5 c 128,-1,38
 287 288 287 288 260 288 c 0,39,40
 217 288 217 288 181.5 307.5 c 128,-1,41
 146 327 146 327 121 362 c 128,-1,42
 96 397 96 397 82 445 c 128,-1,43
 68 493 68 493 68 549 c 0,0,1
276 552 m 0,44,45
 276 501 276 501 296 470.5 c 128,-1,46
 316 440 316 440 360 440 c 0,47,48
 374 440 374 440 389 447.5 c 128,-1,49
 404 455 404 455 416 465 c 0,50,51
 430 476 430 476 442 490 c 1,52,-1
 442 726 l 1,53,54
 406 726 406 726 376 717 c 128,-1,55
 346 708 346 708 323.5 687.5 c 128,-1,56
 301 667 301 667 288.5 634 c 128,-1,57
 276 601 276 601 276 552 c 0,44,45
EndSplineSet
EndChar

StartChar: guillemotleft
Encoding: 171 171 112
Width: 1244
Flags: W
LayerCount: 2
Fore
SplineSet
54 439 m 1,0,-1
 54 704 l 1,1,-1
 564 1094 l 1,2,-1
 550 833 l 1,3,-1
 249 607 l 1,4,-1
 576 402 l 1,5,-1
 562 59 l 1,6,-1
 54 439 l 1,0,-1
630 439 m 1,7,-1
 630 704 l 1,8,-1
 1140 1094 l 1,9,-1
 1126 833 l 1,10,-1
 825 607 l 1,11,-1
 1152 402 l 1,12,-1
 1138 59 l 1,13,-1
 630 439 l 1,7,-1
EndSplineSet
EndChar

StartChar: logicalnot
Encoding: 172 172 113
Width: 789
Flags: W
LayerCount: 2
Fore
SplineSet
95 718 m 1,0,-1
 671 718 l 1,1,-1
 671 288 l 1,2,-1
 527 288 l 1,3,-1
 527 480 l 1,4,-1
 95 480 l 1,5,-1
 95 718 l 1,0,-1
EndSplineSet
EndChar

StartChar: registered
Encoding: 174 174 114
Width: 1397
Flags: W
LayerCount: 2
Fore
SplineSet
187 673 m 256,0,1
 187 561 187 561 227.5 462.5 c 128,-1,2
 268 364 268 364 337.5 291 c 128,-1,3
 407 218 407 218 500 175.5 c 128,-1,4
 593 133 593 133 699 133 c 0,5,6
 804 133 804 133 897 175.5 c 128,-1,7
 990 218 990 218 1059.5 291 c 128,-1,8
 1129 364 1129 364 1169.5 462.5 c 128,-1,9
 1210 561 1210 561 1210 673 c 256,10,11
 1210 785 1210 785 1169.5 883.5 c 128,-1,12
 1129 982 1129 982 1059.5 1055 c 128,-1,13
 990 1128 990 1128 897 1170.5 c 128,-1,14
 804 1213 804 1213 699 1213 c 0,15,16
 593 1213 593 1213 500 1170.5 c 128,-1,17
 407 1128 407 1128 337.5 1055 c 128,-1,18
 268 982 268 982 227.5 883.5 c 128,-1,19
 187 785 187 785 187 673 c 256,0,1
54 673 m 256,20,21
 54 766 54 766 77 852 c 128,-1,22
 100 938 100 938 142 1013 c 128,-1,23
 184 1088 184 1088 243 1149 c 128,-1,24
 302 1210 302 1210 374 1254 c 128,-1,25
 446 1298 446 1298 528 1322 c 128,-1,26
 610 1346 610 1346 699 1346 c 0,27,28
 787 1346 787 1346 869.5 1322 c 128,-1,29
 952 1298 952 1298 1023.5 1254 c 128,-1,30
 1095 1210 1095 1210 1154 1149 c 128,-1,31
 1213 1088 1213 1088 1255 1013 c 128,-1,32
 1297 938 1297 938 1320 852 c 128,-1,33
 1343 766 1343 766 1343 673 c 256,34,35
 1343 580 1343 580 1320 494 c 128,-1,36
 1297 408 1297 408 1255 333 c 128,-1,37
 1213 258 1213 258 1154 197 c 128,-1,38
 1095 136 1095 136 1023.5 92 c 128,-1,39
 952 48 952 48 869.5 24 c 128,-1,40
 787 0 787 0 699 0 c 0,41,42
 610 0 610 0 528 24 c 128,-1,43
 446 48 446 48 374 92 c 128,-1,44
 302 136 302 136 243 197 c 128,-1,45
 184 258 184 258 142 333 c 128,-1,46
 100 408 100 408 77 494 c 128,-1,47
 54 580 54 580 54 673 c 256,20,21
468 1094 m 1,48,-1
 594 1094 l 2,49,50
 645 1094 645 1094 700 1093.5 c 128,-1,51
 755 1093 755 1093 807 1086.5 c 128,-1,52
 859 1080 859 1080 906.5 1065 c 128,-1,53
 954 1050 954 1050 989 1021 c 128,-1,54
 1024 992 1024 992 1045 945.5 c 128,-1,55
 1066 899 1066 899 1066 831 c 0,56,57
 1066 776 1066 776 1049 737 c 128,-1,58
 1032 698 1032 698 1002 671 c 128,-1,59
 972 644 972 644 933 628.5 c 128,-1,60
 894 613 894 613 849 604.5 c 128,-1,61
 804 596 804 596 757 593.5 c 128,-1,62
 710 591 710 591 665 591 c 1,63,-1
 665 233 l 1,64,-1
 468 233 l 1,65,-1
 468 1094 l 1,48,-1
700 731 m 2,66,67
 734 731 734 731 764.5 735 c 128,-1,68
 795 739 795 739 818.5 750.5 c 128,-1,69
 842 762 842 762 855.5 781.5 c 128,-1,70
 869 801 869 801 869 832 c 0,71,72
 869 865 869 865 857.5 885.5 c 128,-1,73
 846 906 846 906 823.5 917 c 128,-1,74
 801 928 801 928 769 932 c 128,-1,75
 737 936 737 936 695 936 c 2,76,-1
 667 936 l 1,77,-1
 667 731 l 1,78,-1
 700 731 l 2,66,67
EndSplineSet
EndChar

StartChar: macron
Encoding: 175 175 115
Width: 898
Flags: W
LayerCount: 2
Fore
SplineSet
162 1440 m 1,0,-1
 738 1440 l 1,1,-1
 738 1248 l 1,2,-1
 162 1248 l 1,3,-1
 162 1440 l 1,0,-1
EndSplineSet
EndChar

StartChar: degree
Encoding: 176 176 116
Width: 921
Flags: W
LayerCount: 2
Fore
SplineSet
68 769 m 256,0,1
 68 851 68 851 93 921 c 128,-1,2
 118 991 118 991 168 1042 c 128,-1,3
 218 1093 218 1093 293 1122 c 128,-1,4
 368 1151 368 1151 469 1151 c 0,5,6
 562 1151 562 1151 633.5 1122 c 128,-1,7
 705 1093 705 1093 753.5 1042 c 128,-1,8
 802 991 802 991 827 921 c 128,-1,9
 852 851 852 851 852 769 c 256,10,11
 852 687 852 687 827 617 c 128,-1,12
 802 547 802 547 753.5 496 c 128,-1,13
 705 445 705 445 633.5 416 c 128,-1,14
 562 387 562 387 469 387 c 0,15,16
 368 387 368 387 293 416 c 128,-1,17
 218 445 218 445 168 496 c 128,-1,18
 118 547 118 547 93 617 c 128,-1,19
 68 687 68 687 68 769 c 256,0,1
603 769 m 256,20,21
 603 793 603 793 600.5 825.5 c 128,-1,22
 598 858 598 858 585 888 c 128,-1,23
 572 918 572 918 544.5 938.5 c 128,-1,24
 517 959 517 959 468 959 c 0,25,26
 411 959 411 959 380 938.5 c 128,-1,27
 349 918 349 918 334.5 888 c 128,-1,28
 320 858 320 858 318 825.5 c 128,-1,29
 316 793 316 793 316 769 c 256,30,31
 316 745 316 745 318 712.5 c 128,-1,32
 320 680 320 680 334.5 650 c 128,-1,33
 349 620 349 620 380 599.5 c 128,-1,34
 411 579 411 579 468 579 c 0,35,36
 517 579 517 579 544.5 599.5 c 128,-1,37
 572 620 572 620 585 650 c 128,-1,38
 598 680 598 680 600.5 712.5 c 128,-1,39
 603 745 603 745 603 769 c 256,20,21
EndSplineSet
EndChar

StartChar: plusminus
Encoding: 177 177 117
Width: 866
Flags: W
LayerCount: 2
Fore
SplineSet
553 576 m 1,0,-1
 553 336 l 1,1,-1
 315 336 l 1,2,-1
 315 576 l 1,3,-1
 75 576 l 1,4,-1
 75 814 l 1,5,-1
 315 814 l 1,6,-1
 315 1054 l 1,7,-1
 553 1054 l 1,8,-1
 553 814 l 1,9,-1
 793 814 l 1,10,-1
 793 576 l 1,11,-1
 553 576 l 1,0,-1
142 239 m 1,12,-1
 718 239 l 1,13,-1
 718 1 l 1,14,-1
 142 1 l 1,15,-1
 142 239 l 1,12,-1
EndSplineSet
EndChar

StartChar: twosuperior
Encoding: 178 178 118
Width: 840
Flags: W
LayerCount: 2
Fore
SplineSet
87 1321 m 1,0,1
 99 1370 99 1370 128.5 1415 c 128,-1,2
 158 1460 158 1460 202.5 1494 c 128,-1,3
 247 1528 247 1528 305.5 1548 c 128,-1,4
 364 1568 364 1568 434 1568 c 0,5,6
 499 1568 499 1568 557 1552 c 128,-1,7
 615 1536 615 1536 659 1502 c 128,-1,8
 703 1468 703 1468 728.5 1414 c 128,-1,9
 754 1360 754 1360 754 1284 c 0,10,11
 754 1215 754 1215 721 1144.5 c 128,-1,12
 688 1074 688 1074 637 1007.5 c 128,-1,13
 586 941 586 941 524 880 c 128,-1,14
 462 819 462 819 403 768 c 1,15,-1
 707 768 l 1,16,17
 707 739 707 739 704.5 716.5 c 128,-1,18
 702 694 702 694 699 672 c 128,-1,19
 696 650 696 650 693.5 627.5 c 128,-1,20
 691 605 691 605 691 576 c 1,21,-1
 87 576 l 1,22,-1
 87 749 l 1,23,24
 124 791 124 791 166.5 835 c 128,-1,25
 209 879 209 879 251.5 923.5 c 128,-1,26
 294 968 294 968 333.5 1013 c 128,-1,27
 373 1058 373 1058 403 1103.5 c 128,-1,28
 433 1149 433 1149 451 1194.5 c 128,-1,29
 469 1240 469 1240 469 1286 c 0,30,31
 469 1324 469 1324 453.5 1351 c 128,-1,32
 438 1378 438 1378 408 1378 c 0,33,34
 382 1378 382 1378 366 1356.5 c 128,-1,35
 350 1335 350 1335 341 1309 c 0,36,37
 330 1279 330 1279 326 1241 c 1,38,-1
 87 1321 l 1,0,1
EndSplineSet
EndChar

StartChar: threesuperior
Encoding: 179 179 119
Width: 857
Flags: W
LayerCount: 2
Fore
SplineSet
85 1372 m 1,0,1
 115 1424 115 1424 148 1461 c 128,-1,2
 181 1498 181 1498 219 1521.5 c 128,-1,3
 257 1545 257 1545 302 1556 c 128,-1,4
 347 1567 347 1567 402 1567 c 0,5,6
 466 1567 466 1567 526.5 1551 c 128,-1,7
 587 1535 587 1535 634 1503 c 128,-1,8
 681 1471 681 1471 710 1424 c 128,-1,9
 739 1377 739 1377 739 1315 c 0,10,11
 739 1293 739 1293 734 1263 c 128,-1,12
 729 1233 729 1233 710 1200.5 c 128,-1,13
 691 1168 691 1168 653.5 1136 c 128,-1,14
 616 1104 616 1104 552 1079 c 1,15,16
 648 1049 648 1049 700.5 990 c 128,-1,17
 753 931 753 931 753 830 c 0,18,19
 753 757 753 757 723.5 700.5 c 128,-1,20
 694 644 694 644 644.5 606 c 128,-1,21
 595 568 595 568 529 548 c 128,-1,22
 463 528 463 528 390 528 c 0,23,24
 331 528 331 528 276 542 c 128,-1,25
 221 556 221 556 175.5 584 c 128,-1,26
 130 612 130 612 96.5 654.5 c 128,-1,27
 63 697 63 697 48 754 c 1,28,-1
 263 817 l 1,29,30
 269 798 269 798 278 781 c 128,-1,31
 287 764 287 764 300 751 c 128,-1,32
 313 738 313 738 331.5 730 c 128,-1,33
 350 722 350 722 377 722 c 0,34,35
 401 722 401 722 420 730.5 c 128,-1,36
 439 739 439 739 452.5 754 c 128,-1,37
 466 769 466 769 473 788 c 128,-1,38
 480 807 480 807 480 828 c 0,39,40
 480 874 480 874 463.5 902 c 128,-1,41
 447 930 447 930 419 945.5 c 128,-1,42
 391 961 391 961 353.5 966 c 128,-1,43
 316 971 316 971 274 971 c 1,44,-1
 274 1164 l 1,45,46
 313 1164 313 1164 348 1169 c 128,-1,47
 383 1174 383 1174 409.5 1187.5 c 128,-1,48
 436 1201 436 1201 451 1225.5 c 128,-1,49
 466 1250 466 1250 466 1289 c 0,50,51
 466 1325 466 1325 444.5 1353 c 128,-1,52
 423 1381 423 1381 380 1381 c 0,53,54
 357 1381 357 1381 341 1367.5 c 128,-1,55
 325 1354 325 1354 314 1337 c 0,56,57
 301 1318 301 1318 292 1294 c 1,58,-1
 85 1372 l 1,0,1
EndSplineSet
EndChar

StartChar: acute
Encoding: 180 180 120
Width: 613
Flags: W
LayerCount: 2
Fore
SplineSet
65 1346 m 1,0,-1
 362 1793 l 1,1,-1
 589 1591 l 1,2,-1
 178 1245 l 1,3,-1
 65 1346 l 1,0,-1
EndSplineSet
EndChar

StartChar: mu
Encoding: 181 181 121
Width: 1099
Flags: W
LayerCount: 2
Fore
SplineSet
128 1128 m 1,0,-1
 416 1152 l 1,1,-1
 416 381 l 2,2,3
 416 296 416 296 442 262 c 128,-1,4
 468 228 468 228 511 228 c 0,5,6
 531 228 531 228 553.5 235.5 c 128,-1,7
 576 243 576 243 601 256 c 128,-1,8
 626 269 626 269 652 285 c 128,-1,9
 678 301 678 301 704 318 c 1,10,-1
 704 1128 l 1,11,-1
 992 1152 l 1,12,-1
 992 12 l 1,13,-1
 704 -12 l 1,14,-1
 704 135 l 1,15,16
 643 91 643 91 584 67 c 128,-1,17
 525 43 525 43 474 43 c 0,18,19
 443 43 443 43 416 46 c 1,20,-1
 416 -192 l 1,21,-1
 128 -204 l 1,22,-1
 128 1128 l 1,0,-1
EndSplineSet
EndChar

StartChar: paragraph
Encoding: 182 182 122
Width: 1152
Flags: W
LayerCount: 2
Fore
SplineSet
1095 1288 m 1,0,-1
 951 1288 l 1,1,-1
 951 0 l 1,2,-1
 719 0 l 1,3,-1
 719 764 l 1,4,5
 681 764 681 764 643.5 765 c 128,-1,6
 606 766 606 766 567 770 c 1,7,-1
 567 0 l 1,8,-1
 335 0 l 1,9,-1
 335 801 l 1,10,11
 273 818 273 818 220 845 c 128,-1,12
 167 872 167 872 128.5 913.5 c 128,-1,13
 90 955 90 955 68.5 1012 c 128,-1,14
 47 1069 47 1069 47 1145 c 0,15,16
 47 1247 47 1247 83 1315.5 c 128,-1,17
 119 1384 119 1384 180 1427.5 c 128,-1,18
 241 1471 241 1471 322 1493.5 c 128,-1,19
 403 1516 403 1516 493 1525.5 c 128,-1,20
 583 1535 583 1535 677 1535.5 c 128,-1,21
 771 1536 771 1536 859 1536 c 2,22,-1
 1095 1536 l 1,23,-1
 1095 1288 l 1,0,-1
EndSplineSet
EndChar

StartChar: periodcentered
Encoding: 183 183 123
Width: 516
Flags: W
LayerCount: 2
Fore
SplineSet
402 768 m 1,0,-1
 402 480 l 1,1,-1
 114 480 l 1,2,-1
 114 768 l 1,3,-1
 402 768 l 1,0,-1
EndSplineSet
EndChar

StartChar: cedilla
Encoding: 184 184 124
Width: 551
Flags: W
LayerCount: 2
Fore
SplineSet
164 48 m 1,0,-1
 316 48 l 1,1,-1
 286 -76 l 1,2,3
 347 -93 347 -93 388 -119 c 128,-1,4
 429 -145 429 -145 455 -173 c 128,-1,5
 481 -201 481 -201 495 -229.5 c 128,-1,6
 509 -258 509 -258 515 -281.5 c 128,-1,7
 521 -305 521 -305 521.5 -320.5 c 128,-1,8
 522 -336 522 -336 522 -339 c 0,9,10
 522 -399 522 -399 504 -440 c 128,-1,11
 486 -481 486 -481 456 -507 c 128,-1,12
 426 -533 426 -533 387 -544.5 c 128,-1,13
 348 -556 348 -556 306 -556 c 0,14,15
 241 -556 241 -556 179.5 -538.5 c 128,-1,16
 118 -521 118 -521 76 -492 c 1,17,-1
 76 -327 l 1,18,19
 120 -347 120 -347 155.5 -355 c 128,-1,20
 191 -363 191 -363 220 -363 c 0,21,22
 272 -363 272 -363 294 -341 c 128,-1,23
 316 -319 316 -319 316 -289 c 0,24,25
 316 -269 316 -269 305 -248 c 128,-1,26
 294 -227 294 -227 270.5 -210 c 128,-1,27
 247 -193 247 -193 211 -182 c 128,-1,28
 175 -171 175 -171 124 -171 c 1,29,-1
 164 48 l 1,0,-1
EndSplineSet
EndChar

StartChar: onesuperior
Encoding: 185 185 125
Width: 763
Flags: W
LayerCount: 2
Fore
SplineSet
104 768 m 1,0,-1
 283 768 l 1,1,-1
 283 1206 l 1,2,3
 252 1202 252 1202 221 1198 c 0,4,5
 195 1195 195 1195 166 1192.5 c 128,-1,6
 137 1190 137 1190 117 1190 c 2,7,-1
 91 1190 l 1,8,-1
 91 1331 l 1,9,-1
 422 1536 l 1,10,-1
 523 1536 l 1,11,-1
 523 768 l 1,12,-1
 710 768 l 1,13,-1
 698 576 l 1,14,-1
 104 576 l 1,15,-1
 104 768 l 1,0,-1
EndSplineSet
EndChar

StartChar: ordmasculine
Encoding: 186 186 126
Width: 951
Flags: W
LayerCount: 2
Fore
SplineSet
474 557 m 0,0,1
 510 557 510 557 537.5 575 c 128,-1,2
 565 593 565 593 583 623 c 128,-1,3
 601 653 601 653 610 691 c 128,-1,4
 619 729 619 729 619 769 c 256,5,6
 619 809 619 809 610 847.5 c 128,-1,7
 601 886 601 886 583 916.5 c 128,-1,8
 565 947 565 947 538 965.5 c 128,-1,9
 511 984 511 984 475 984 c 256,10,11
 439 984 439 984 412 966 c 128,-1,12
 385 948 385 948 367 918 c 128,-1,13
 349 888 349 888 340 849.5 c 128,-1,14
 331 811 331 811 331 771 c 0,15,16
 331 732 331 732 340 694 c 128,-1,17
 349 656 349 656 367 626 c 128,-1,18
 385 596 385 596 411.5 577 c 128,-1,19
 438 558 438 558 474 557 c 0,0,1
476 363 m 0,20,21
 378 363 378 363 304.5 393 c 128,-1,22
 231 423 231 423 182 476.5 c 128,-1,23
 133 530 133 530 108.5 604 c 128,-1,24
 84 678 84 678 84 767 c 0,25,26
 84 854 84 854 108.5 927 c 128,-1,27
 133 1000 133 1000 182 1053.5 c 128,-1,28
 231 1107 231 1107 304.5 1137 c 128,-1,29
 378 1167 378 1167 476 1167 c 0,30,31
 572 1167 572 1167 645 1137 c 128,-1,32
 718 1107 718 1107 767.5 1053.5 c 128,-1,33
 817 1000 817 1000 842.5 927 c 128,-1,34
 868 854 868 854 868 767 c 0,35,36
 868 678 868 678 842.5 604 c 128,-1,37
 817 530 817 530 767.5 476.5 c 128,-1,38
 718 423 718 423 645 393 c 128,-1,39
 572 363 572 363 476 363 c 0,20,21
EndSplineSet
EndChar

StartChar: guillemotright
Encoding: 187 187 127
Width: 1244
Flags: W
LayerCount: 2
Fore
SplineSet
682 59 m 1,0,-1
 668 402 l 1,1,-1
 995 607 l 1,2,-1
 694 833 l 1,3,-1
 680 1094 l 1,4,-1
 1190 704 l 1,5,-1
 1190 439 l 1,6,-1
 682 59 l 1,0,-1
106 59 m 1,7,-1
 92 402 l 1,8,-1
 419 607 l 1,9,-1
 118 833 l 1,10,-1
 104 1094 l 1,11,-1
 614 704 l 1,12,-1
 614 439 l 1,13,-1
 106 59 l 1,7,-1
EndSplineSet
EndChar

StartChar: onequarter
Encoding: 188 188 128
Width: 1991
Flags: W
LayerCount: 2
Fore
SplineSet
1064 1536 m 1,0,-1
 1352 1536 l 1,1,-1
 968 0 l 1,2,-1
 680 0 l 1,3,-1
 1064 1536 l 1,0,-1
84 768 m 1,4,-1
 263 768 l 1,5,-1
 263 1206 l 1,6,7
 232 1202 232 1202 201 1198 c 0,8,9
 175 1195 175 1195 146 1192.5 c 128,-1,10
 117 1190 117 1190 97 1190 c 2,11,-1
 71 1190 l 1,12,-1
 71 1331 l 1,13,-1
 402 1536 l 1,14,-1
 503 1536 l 1,15,-1
 503 768 l 1,16,-1
 690 768 l 1,17,-1
 678 576 l 1,18,-1
 84 576 l 1,19,-1
 84 768 l 1,4,-1
1572 192 m 1,20,-1
 1182 192 l 1,21,-1
 1182 360 l 1,22,-1
 1534 960 l 1,23,-1
 1820 960 l 1,24,-1
 1820 370 l 1,25,-1
 1945 370 l 1,26,-1
 1929 192 l 1,27,-1
 1820 192 l 1,28,-1
 1820 -32 l 1,29,-1
 1572 -48 l 1,30,-1
 1572 192 l 1,20,-1
1572 370 m 1,31,-1
 1572 711 l 1,32,-1
 1367 370 l 1,33,-1
 1572 370 l 1,31,-1
EndSplineSet
EndChar

StartChar: onehalf
Encoding: 189 189 129
Width: 1984
Flags: W
LayerCount: 2
Fore
SplineSet
1058 1536 m 1,0,-1
 1346 1536 l 1,1,-1
 962 0 l 1,2,-1
 674 0 l 1,3,-1
 1058 1536 l 1,0,-1
78 768 m 1,4,-1
 257 768 l 1,5,-1
 257 1206 l 1,6,7
 226 1202 226 1202 195 1198 c 0,8,9
 169 1195 169 1195 140 1192.5 c 128,-1,10
 111 1190 111 1190 91 1190 c 2,11,-1
 65 1190 l 1,12,-1
 65 1331 l 1,13,-1
 396 1536 l 1,14,-1
 497 1536 l 1,15,-1
 497 768 l 1,16,-1
 684 768 l 1,17,-1
 672 576 l 1,18,-1
 78 576 l 1,19,-1
 78 768 l 1,4,-1
1267 745 m 1,20,21
 1279 794 1279 794 1308.5 839 c 128,-1,22
 1338 884 1338 884 1382.5 918 c 128,-1,23
 1427 952 1427 952 1485.5 972 c 128,-1,24
 1544 992 1544 992 1614 992 c 0,25,26
 1679 992 1679 992 1737 976 c 128,-1,27
 1795 960 1795 960 1839 926 c 128,-1,28
 1883 892 1883 892 1908.5 838 c 128,-1,29
 1934 784 1934 784 1934 708 c 0,30,31
 1934 639 1934 639 1901 568.5 c 128,-1,32
 1868 498 1868 498 1817 431.5 c 128,-1,33
 1766 365 1766 365 1704 304 c 128,-1,34
 1642 243 1642 243 1583 192 c 1,35,-1
 1887 192 l 1,36,37
 1887 163 1887 163 1884.5 140.5 c 128,-1,38
 1882 118 1882 118 1879 96 c 128,-1,39
 1876 74 1876 74 1873.5 51.5 c 128,-1,40
 1871 29 1871 29 1871 0 c 1,41,-1
 1267 0 l 1,42,-1
 1267 173 l 1,43,44
 1304 215 1304 215 1346.5 259 c 128,-1,45
 1389 303 1389 303 1431.5 347.5 c 128,-1,46
 1474 392 1474 392 1513.5 437 c 128,-1,47
 1553 482 1553 482 1583 527.5 c 128,-1,48
 1613 573 1613 573 1631 618.5 c 128,-1,49
 1649 664 1649 664 1649 710 c 0,50,51
 1649 748 1649 748 1633.5 775 c 128,-1,52
 1618 802 1618 802 1588 802 c 0,53,54
 1562 802 1562 802 1546 780.5 c 128,-1,55
 1530 759 1530 759 1521 733 c 0,56,57
 1510 703 1510 703 1506 665 c 1,58,-1
 1267 745 l 1,20,21
EndSplineSet
EndChar

StartChar: threequarters
Encoding: 190 190 130
Width: 1981
Flags: W
LayerCount: 2
Fore
SplineSet
1053 1536 m 1,0,-1
 1341 1536 l 1,1,-1
 957 0 l 1,2,-1
 669 0 l 1,3,-1
 1053 1536 l 1,0,-1
80 1372 m 1,4,5
 110 1424 110 1424 143 1461 c 128,-1,6
 176 1498 176 1498 214 1521.5 c 128,-1,7
 252 1545 252 1545 297 1556 c 128,-1,8
 342 1567 342 1567 397 1567 c 0,9,10
 461 1567 461 1567 521.5 1551 c 128,-1,11
 582 1535 582 1535 629 1503 c 128,-1,12
 676 1471 676 1471 705 1424 c 128,-1,13
 734 1377 734 1377 734 1315 c 0,14,15
 734 1293 734 1293 729 1263 c 128,-1,16
 724 1233 724 1233 705 1200.5 c 128,-1,17
 686 1168 686 1168 648.5 1136 c 128,-1,18
 611 1104 611 1104 547 1079 c 1,19,20
 643 1049 643 1049 695.5 990 c 128,-1,21
 748 931 748 931 748 830 c 0,22,23
 748 757 748 757 718.5 700.5 c 128,-1,24
 689 644 689 644 639.5 606 c 128,-1,25
 590 568 590 568 524 548 c 128,-1,26
 458 528 458 528 385 528 c 0,27,28
 326 528 326 528 271 542 c 128,-1,29
 216 556 216 556 170.5 584 c 128,-1,30
 125 612 125 612 91.5 654.5 c 128,-1,31
 58 697 58 697 43 754 c 1,32,-1
 258 817 l 1,33,34
 264 798 264 798 273 781 c 128,-1,35
 282 764 282 764 295 751 c 128,-1,36
 308 738 308 738 326.5 730 c 128,-1,37
 345 722 345 722 372 722 c 0,38,39
 396 722 396 722 415 730.5 c 128,-1,40
 434 739 434 739 447.5 754 c 128,-1,41
 461 769 461 769 468 788 c 128,-1,42
 475 807 475 807 475 828 c 0,43,44
 475 874 475 874 458.5 902 c 128,-1,45
 442 930 442 930 414 945.5 c 128,-1,46
 386 961 386 961 348.5 966 c 128,-1,47
 311 971 311 971 269 971 c 1,48,-1
 269 1164 l 1,49,50
 308 1164 308 1164 343 1169 c 128,-1,51
 378 1174 378 1174 404.5 1187.5 c 128,-1,52
 431 1201 431 1201 446 1225.5 c 128,-1,53
 461 1250 461 1250 461 1289 c 0,54,55
 461 1325 461 1325 439.5 1353 c 128,-1,56
 418 1381 418 1381 375 1381 c 0,57,58
 352 1381 352 1381 336 1367.5 c 128,-1,59
 320 1354 320 1354 309 1337 c 0,60,61
 296 1318 296 1318 287 1294 c 1,62,-1
 80 1372 l 1,4,5
1561 192 m 1,63,-1
 1171 192 l 1,64,-1
 1171 360 l 1,65,-1
 1523 960 l 1,66,-1
 1809 960 l 1,67,-1
 1809 370 l 1,68,-1
 1934 370 l 1,69,-1
 1918 192 l 1,70,-1
 1809 192 l 1,71,-1
 1809 -32 l 1,72,-1
 1561 -48 l 1,73,-1
 1561 192 l 1,63,-1
1561 370 m 1,74,-1
 1561 711 l 1,75,-1
 1356 370 l 1,76,-1
 1561 370 l 1,74,-1
EndSplineSet
EndChar

StartChar: AE
Encoding: 198 198 138
Width: 1580
Flags: W
LayerCount: 2
Fore
SplineSet
769 0 m 1,0,-1
 785 329 l 1,1,-1
 450 329 l 1,2,-1
 320 0 l 1,3,-1
 -7 0 l 1,4,-1
 654 1518 l 1,5,-1
 858 1536 l 1,6,-1
 1514 1536 l 1,7,-1
 1490 1296 l 1,8,-1
 1104 1296 l 1,9,-1
 1104 930 l 1,10,-1
 1357 930 l 1,11,-1
 1356 672 l 1,12,-1
 1104 672 l 1,13,-1
 1104 240 l 1,14,-1
 1530 240 l 1,15,-1
 1506 0 l 1,16,-1
 769 0 l 1,0,-1
786 575 m 1,17,-1
 808 1310 l 1,18,-1
 549 575 l 1,19,-1
 786 575 l 1,17,-1
EndSplineSet
EndChar

StartChar: Eth
Encoding: 208 208 148
Width: 1138
Flags: W
LayerCount: 2
Fore
SplineSet
148 1536 m 1,0,-1
 462 1536 l 2,1,2
 765 1536 765 1536 915 1344.5 c 128,-1,3
 1065 1153 1065 1153 1065 762 c 0,4,5
 1065 665 1065 665 1052 570.5 c 128,-1,6
 1039 476 1039 476 1011.5 391.5 c 128,-1,7
 984 307 984 307 941 235 c 128,-1,8
 898 163 898 163 837 111 c 128,-1,9
 776 59 776 59 696 29.5 c 128,-1,10
 616 0 616 0 515 0 c 2,11,-1
 148 0 l 1,12,-1
 148 1536 l 1,0,-1
447 1296 m 1,13,-1
 447 240 l 1,14,-1
 490 240 l 2,15,16
 547 240 547 240 590 259.5 c 128,-1,17
 633 279 633 279 663.5 313 c 128,-1,18
 694 347 694 347 713.5 392.5 c 128,-1,19
 733 438 733 438 744.5 489.5 c 128,-1,20
 756 541 756 541 760.5 596 c 128,-1,21
 765 651 765 651 765 705 c 0,22,23
 765 754 765 754 765 817 c 128,-1,24
 765 880 765 880 759 945.5 c 128,-1,25
 753 1011 753 1011 737 1074 c 128,-1,26
 721 1137 721 1137 690 1186.5 c 128,-1,27
 659 1236 659 1236 608.5 1266 c 128,-1,28
 558 1296 558 1296 482 1296 c 2,29,-1
 447 1296 l 1,13,-1
5 864 m 1,30,-1
 581 864 l 1,31,-1
 581 672 l 1,32,-1
 5 672 l 1,33,-1
 5 864 l 1,30,-1
EndSplineSet
EndChar

StartChar: multiply
Encoding: 215 215 155
Width: 857
Flags: W
LayerCount: 2
Fore
SplineSet
427 720 m 1,0,-1
 615 908 l 1,1,-1
 783 739 l 1,2,-1
 595 552 l 1,3,-1
 786 362 l 1,4,-1
 617 193 l 1,5,-1
 427 384 l 1,6,-1
 240 196 l 1,7,-1
 71 364 l 1,8,-1
 259 552 l 1,9,-1
 74 736 l 1,10,-1
 243 905 l 1,11,-1
 427 720 l 1,0,-1
EndSplineSet
EndChar

StartChar: Oslash
Encoding: 216 216 156
Width: 1129
Flags: W
LayerCount: 2
Fore
SplineSet
562 -32 m 0,0,1
 494 -32 494 -32 438.5 -16 c 128,-1,2
 383 0 383 0 338 29 c 128,-1,3
 293 58 293 58 258 100 c 128,-1,4
 223 142 223 142 196 193 c 1,5,-1
 124 106 l 1,6,-1
 29 198 l 1,7,-1
 141 334 l 1,8,9
 110 442 110 442 98.5 565.5 c 128,-1,10
 87 689 87 689 87 820 c 0,11,12
 87 989 87 989 114.5 1127 c 128,-1,13
 142 1265 142 1265 200 1363 c 128,-1,14
 258 1461 258 1461 347.5 1514.5 c 128,-1,15
 437 1568 437 1568 562 1568 c 0,16,17
 701 1568 701 1568 797.5 1502 c 128,-1,18
 894 1436 894 1436 951 1317 c 1,19,-1
 1035 1419 l 1,20,-1
 1130 1327 l 1,21,-1
 1002 1171 l 1,22,23
 1040 1016 1040 1016 1040 820 c 0,24,25
 1040 712 1040 712 1032 607 c 128,-1,26
 1024 502 1024 502 1003.5 407.5 c 128,-1,27
 983 313 983 313 948.5 232.5 c 128,-1,28
 914 152 914 152 861 93 c 128,-1,29
 808 34 808 34 734 1 c 128,-1,30
 660 -32 660 -32 562 -32 c 0,0,1
386 820 m 0,31,32
 386 769 386 769 386 723 c 128,-1,33
 386 677 386 677 388 634 c 1,34,-1
 729 1048 l 1,35,36
 723 1103 723 1103 711 1153.5 c 128,-1,37
 699 1204 699 1204 679.5 1243 c 128,-1,38
 660 1282 660 1282 631 1305.5 c 128,-1,39
 602 1329 602 1329 562 1329 c 0,40,41
 521 1329 521 1329 492 1304.5 c 128,-1,42
 463 1280 463 1280 443.5 1239.5 c 128,-1,43
 424 1199 424 1199 412.5 1146 c 128,-1,44
 401 1093 401 1093 395 1036.5 c 128,-1,45
 389 980 389 980 387.5 924 c 128,-1,46
 386 868 386 868 386 820 c 0,31,32
562 223 m 0,47,48
 622 223 622 223 657.5 264.5 c 128,-1,49
 693 306 693 306 711.5 383.5 c 128,-1,50
 730 461 730 461 735 571.5 c 128,-1,51
 740 682 740 682 740 820 c 2,52,-1
 740 853 l 1,53,-1
 403 444 l 1,54,55
 418 338 418 338 454.5 280.5 c 128,-1,56
 491 223 491 223 562 223 c 0,47,48
EndSplineSet
EndChar

StartChar: Thorn
Encoding: 222 222 162
Width: 1082
Flags: W
LayerCount: 2
Fore
SplineSet
140 1536 m 1,0,-1
 442 1536 l 1,1,-1
 442 1167 l 1,2,3
 514 1166 514 1166 586.5 1161 c 128,-1,4
 659 1156 659 1156 726.5 1140.5 c 128,-1,5
 794 1125 794 1125 852.5 1095 c 128,-1,6
 911 1065 911 1065 954.5 1015.5 c 128,-1,7
 998 966 998 966 1023 892.5 c 128,-1,8
 1048 819 1048 819 1048 716 c 256,9,10
 1048 613 1048 613 1022 539.5 c 128,-1,11
 996 466 996 466 951 416 c 128,-1,12
 906 366 906 366 846.5 336 c 128,-1,13
 787 306 787 306 719 290.5 c 128,-1,14
 651 275 651 275 579.5 270 c 128,-1,15
 508 265 508 265 440 265 c 1,16,-1
 440 -68 l 1,17,-1
 140 -92 l 1,18,-1
 140 1536 l 1,0,-1
493 488 m 2,19,20
 545 488 545 488 591.5 497.5 c 128,-1,21
 638 507 638 507 673 532.5 c 128,-1,22
 708 558 708 558 728.5 603 c 128,-1,23
 749 648 749 648 749 718 c 0,24,25
 749 787 749 787 731.5 830 c 128,-1,26
 714 873 714 873 680 896.5 c 128,-1,27
 646 920 646 920 597 928.5 c 128,-1,28
 548 937 548 937 485 937 c 2,29,-1
 442 937 l 1,30,-1
 442 488 l 1,31,-1
 493 488 l 2,19,20
EndSplineSet
EndChar

StartChar: germandbls
Encoding: 223 223 163
Width: 1170
Flags: W
LayerCount: 2
Fore
SplineSet
124 0 m 1,0,-1
 124 1056 l 2,1,2
 124 1192 124 1192 158 1289 c 128,-1,3
 192 1386 192 1386 248.5 1448 c 128,-1,4
 305 1510 305 1510 378 1538.5 c 128,-1,5
 451 1567 451 1567 529 1567 c 0,6,7
 637 1567 637 1567 724.5 1536 c 128,-1,8
 812 1505 812 1505 873 1453 c 128,-1,9
 934 1401 934 1401 967 1333 c 128,-1,10
 1000 1265 1000 1265 1000 1192 c 0,11,12
 1000 1104 1000 1104 950.5 1017 c 128,-1,13
 901 930 901 930 793 858 c 1,14,15
 857 837 857 837 917 808 c 128,-1,16
 977 779 977 779 1023.5 734.5 c 128,-1,17
 1070 690 1070 690 1098.5 626 c 128,-1,18
 1127 562 1127 562 1127 471 c 0,19,20
 1127 381 1127 381 1104 311.5 c 128,-1,21
 1081 242 1081 242 1041 191 c 128,-1,22
 1001 140 1001 140 945.5 105.5 c 128,-1,23
 890 71 890 71 824.5 49 c 128,-1,24
 759 27 759 27 686.5 16 c 128,-1,25
 614 5 614 5 540 2 c 1,26,-1
 540 230 l 1,27,-1
 552 230 l 2,28,29
 625 230 625 230 679 249.5 c 128,-1,30
 733 269 733 269 767.5 301.5 c 128,-1,31
 802 334 802 334 819 376 c 128,-1,32
 836 418 836 418 836 462 c 0,33,34
 836 510 836 510 817 557 c 128,-1,35
 798 604 798 604 761.5 640.5 c 128,-1,36
 725 677 725 677 672 700 c 128,-1,37
 619 723 619 723 551 723 c 1,38,-1
 551 931 l 1,39,40
 603 948 603 948 641 973.5 c 128,-1,41
 679 999 679 999 703.5 1029.5 c 128,-1,42
 728 1060 728 1060 739.5 1093.5 c 128,-1,43
 751 1127 751 1127 751 1160 c 0,44,45
 751 1196 751 1196 737.5 1229.5 c 128,-1,46
 724 1263 724 1263 699.5 1288.5 c 128,-1,47
 675 1314 675 1314 639.5 1329.5 c 128,-1,48
 604 1345 604 1345 560 1345 c 0,49,50
 532 1345 532 1345 506 1331 c 128,-1,51
 480 1317 480 1317 459.5 1288.5 c 128,-1,52
 439 1260 439 1260 426.5 1216 c 128,-1,53
 414 1172 414 1172 414 1111 c 2,54,-1
 414 0 l 1,55,-1
 124 0 l 1,0,-1
EndSplineSet
EndChar

StartChar: ae
Encoding: 230 230 170
Width: 1457
Flags: W
LayerCount: 2
Fore
SplineSet
849 536 m 1,0,1
 849 482 849 482 856 420 c 128,-1,2
 863 358 863 358 879.5 306 c 128,-1,3
 896 254 896 254 923 219.5 c 128,-1,4
 950 185 950 185 989 185 c 0,5,6
 1023 185 1023 185 1051 212 c 128,-1,7
 1079 239 1079 239 1100 273 c 128,-1,8
 1121 307 1121 307 1133.5 337 c 128,-1,9
 1146 367 1146 367 1149 373 c 1,10,-1
 1367 290 l 1,11,12
 1347 220 1347 220 1314 162 c 128,-1,13
 1281 104 1281 104 1234 62 c 128,-1,14
 1187 20 1187 20 1125 -3.5 c 128,-1,15
 1063 -27 1063 -27 984 -27 c 0,16,17
 897 -27 897 -27 830 18 c 128,-1,18
 763 63 763 63 713 144 c 1,19,20
 687 94 687 94 647.5 61 c 128,-1,21
 608 28 608 28 561.5 8.5 c 128,-1,22
 515 -11 515 -11 464.5 -19 c 128,-1,23
 414 -27 414 -27 365 -27 c 0,24,25
 295 -27 295 -27 237.5 -0.5 c 128,-1,26
 180 26 180 26 139.5 73.5 c 128,-1,27
 99 121 99 121 76.5 185.5 c 128,-1,28
 54 250 54 250 54 327 c 0,29,30
 54 409 54 409 77.5 470.5 c 128,-1,31
 101 532 101 532 140.5 576.5 c 128,-1,32
 180 621 180 621 232 651 c 128,-1,33
 284 681 284 681 340.5 699.5 c 128,-1,34
 397 718 397 718 454 727.5 c 128,-1,35
 511 737 511 737 561 740 c 1,36,37
 561 780 561 780 560 818.5 c 128,-1,38
 559 857 559 857 551 887.5 c 128,-1,39
 543 918 543 918 526 937 c 128,-1,40
 509 956 509 956 478 956 c 0,41,42
 452 956 452 956 433.5 944.5 c 128,-1,43
 415 933 415 933 402.5 914.5 c 128,-1,44
 390 896 390 896 383.5 872.5 c 128,-1,45
 377 849 377 849 374 826 c 1,46,-1
 94 875 l 1,47,48
 105 961 105 961 143 1017.5 c 128,-1,49
 181 1074 181 1074 234.5 1107 c 128,-1,50
 288 1140 288 1140 351.5 1153.5 c 128,-1,51
 415 1167 415 1167 478 1167 c 0,52,53
 561 1167 561 1167 621 1131 c 128,-1,54
 681 1095 681 1095 723 1032 c 1,55,56
 777 1095 777 1095 844 1131 c 128,-1,57
 911 1167 911 1167 994 1167 c 0,58,59
 1097 1167 1097 1167 1174 1123.5 c 128,-1,60
 1251 1080 1251 1080 1303 1001 c 128,-1,61
 1355 922 1355 922 1381 812 c 128,-1,62
 1407 702 1407 702 1407 570 c 1,63,-1
 1403 556 l 2,64,65
 1401 550 1401 550 1400 544.5 c 128,-1,66
 1399 539 1399 539 1399 536 c 1,67,-1
 849 536 l 1,0,1
336 331 m 0,68,69
 336 263 336 263 363.5 221 c 128,-1,70
 391 179 391 179 450 179 c 0,71,72
 474 179 474 179 494.5 197.5 c 128,-1,73
 515 216 515 216 530 245 c 128,-1,74
 545 274 545 274 553 310.5 c 128,-1,75
 561 347 561 347 561 382 c 2,76,-1
 561 568 l 1,77,78
 513 568 513 568 472 556 c 128,-1,79
 431 544 431 544 400.5 516 c 128,-1,80
 370 488 370 488 353 442.5 c 128,-1,81
 336 397 336 397 336 331 c 0,68,69
1124 702 m 1,82,83
 1124 759 1124 759 1116.5 808 c 128,-1,84
 1109 857 1109 857 1093 892.5 c 128,-1,85
 1077 928 1077 928 1051.5 948.5 c 128,-1,86
 1026 969 1026 969 989 969 c 0,87,88
 963 969 963 969 938.5 949.5 c 128,-1,89
 914 930 914 930 894.5 896 c 128,-1,90
 875 862 875 862 862.5 815 c 128,-1,91
 850 768 850 768 849 713 c 1,92,-1
 849 702 l 1,93,-1
 1124 702 l 1,82,83
EndSplineSet
EndChar

StartChar: eth
Encoding: 240 240 180
Width: 1006
Flags: W
LayerCount: 2
Fore
SplineSet
916 774 m 0,0,1
 916 680 916 680 909 583.5 c 128,-1,2
 902 487 902 487 884 397.5 c 128,-1,3
 866 308 866 308 834 229.5 c 128,-1,4
 802 151 802 151 753 93 c 128,-1,5
 704 35 704 35 634.5 1.5 c 128,-1,6
 565 -32 565 -32 471 -32 c 0,7,8
 376 -32 376 -32 297 9 c 128,-1,9
 218 50 218 50 161.5 117.5 c 128,-1,10
 105 185 105 185 74 272.5 c 128,-1,11
 43 360 43 360 43 452 c 0,12,13
 43 546 43 546 67 633 c 128,-1,14
 91 720 91 720 135.5 787.5 c 128,-1,15
 180 855 180 855 243.5 895.5 c 128,-1,16
 307 936 307 936 387 936 c 0,17,18
 449 936 449 936 512.5 913.5 c 128,-1,19
 576 891 576 891 623 856 c 1,20,21
 622 898 622 898 620 950.5 c 128,-1,22
 618 1003 618 1003 610 1057.5 c 128,-1,23
 602 1112 602 1112 587.5 1164 c 128,-1,24
 573 1216 573 1216 548 1256.5 c 128,-1,25
 523 1297 523 1297 486 1321.5 c 128,-1,26
 449 1346 449 1346 397 1346 c 0,27,28
 357 1346 357 1346 313.5 1331.5 c 128,-1,29
 270 1317 270 1317 229.5 1295.5 c 128,-1,30
 189 1274 189 1274 155 1250 c 128,-1,31
 121 1226 121 1226 100 1207 c 1,32,-1
 -8 1393 l 1,33,34
 58 1448 58 1448 112.5 1482.5 c 128,-1,35
 167 1517 167 1517 219 1536 c 128,-1,36
 271 1555 271 1555 325.5 1561.5 c 128,-1,37
 380 1568 380 1568 448 1568 c 0,38,39
 532 1568 532 1568 600 1532.5 c 128,-1,40
 668 1497 668 1497 720 1436.5 c 128,-1,41
 772 1376 772 1376 809 1296.5 c 128,-1,42
 846 1217 846 1217 870 1128.5 c 128,-1,43
 894 1040 894 1040 905 948.5 c 128,-1,44
 916 857 916 857 916 774 c 0,0,1
623 608 m 0,45,46
 623 613 623 613 622.5 619.5 c 128,-1,47
 622 626 622 626 622 633 c 0,48,49
 621 641 621 641 621 649 c 1,50,51
 602 660 602 660 581 670 c 0,52,53
 563 678 563 678 539 685 c 128,-1,54
 515 692 515 692 488 692 c 0,55,56
 444 692 444 692 414 670.5 c 128,-1,57
 384 649 384 649 366 614 c 128,-1,58
 348 579 348 579 340 535 c 128,-1,59
 332 491 332 491 332 447 c 0,60,61
 332 414 332 414 338.5 376 c 128,-1,62
 345 338 345 338 362 305.5 c 128,-1,63
 379 273 379 273 408.5 251.5 c 128,-1,64
 438 230 438 230 484 230 c 0,65,66
 521 230 521 230 546 249.5 c 128,-1,67
 571 269 571 269 586.5 300 c 128,-1,68
 602 331 602 331 609.5 371.5 c 128,-1,69
 617 412 617 412 620 454 c 128,-1,70
 623 496 623 496 623 536 c 128,-1,71
 623 576 623 576 623 608 c 0,45,46
329 1202 m 1,72,-1
 943 1391 l 1,73,-1
 1007 1210 l 1,74,-1
 393 1021 l 1,75,-1
 329 1202 l 1,72,-1
EndSplineSet
EndChar

StartChar: divide
Encoding: 247 247 187
Width: 797
Flags: W
LayerCount: 2
Fore
SplineSet
544 288 m 1,0,-1
 544 0 l 1,1,-1
 256 -12 l 1,2,-1
 256 288 l 1,3,-1
 544 288 l 1,0,-1
544 960 m 1,4,-1
 544 672 l 1,5,-1
 256 672 l 1,6,-1
 256 960 l 1,7,-1
 544 960 l 1,4,-1
64 576 m 1,8,-1
 734 576 l 1,9,-1
 734 384 l 1,10,-1
 64 384 l 1,11,-1
 64 576 l 1,8,-1
EndSplineSet
EndChar

StartChar: oslash
Encoding: 248 248 188
Width: 1006
Flags: W
LayerCount: 2
Fore
SplineSet
502 -27 m 0,0,1
 414 -27 414 -27 345 2 c 128,-1,2
 276 31 276 31 223 85 c 1,3,-1
 132 -31 l 1,4,-1
 55 37 l 1,5,-1
 160 170 l 1,6,7
 115 248 115 248 92.5 351 c 128,-1,8
 70 454 70 454 70 577 c 0,9,10
 70 706 70 706 97 814.5 c 128,-1,11
 124 923 124 923 178 1001.5 c 128,-1,12
 232 1080 232 1080 313 1123.5 c 128,-1,13
 394 1167 394 1167 502 1167 c 0,14,15
 606 1167 606 1167 685 1125 c 128,-1,16
 764 1083 764 1083 819 1007 c 1,17,-1
 906 1117 l 1,18,-1
 983 1049 l 1,19,-1
 873 910 l 1,20,21
 934 770 934 770 934 577 c 0,22,23
 934 443 934 443 906 332 c 128,-1,24
 878 221 878 221 823.5 141.5 c 128,-1,25
 769 62 769 62 688 17.5 c 128,-1,26
 607 -27 607 -27 502 -27 c 0,0,1
358 577 m 0,27,28
 358 544 358 544 358.5 505 c 128,-1,29
 359 466 359 466 362 426 c 1,30,-1
 635 773 l 1,31,32
 630 811 630 811 620 845.5 c 128,-1,33
 610 880 610 880 594.5 906.5 c 128,-1,34
 579 933 579 933 556 948.5 c 128,-1,35
 533 964 533 964 501 964 c 0,36,37
 465 964 465 964 440.5 945 c 128,-1,38
 416 926 416 926 400 894.5 c 128,-1,39
 384 863 384 863 375.5 822.5 c 128,-1,40
 367 782 367 782 363 739 c 128,-1,41
 359 696 359 696 358.5 654 c 128,-1,42
 358 612 358 612 358 577 c 0,27,28
500 187 m 0,43,44
 535 187 535 187 560 206 c 128,-1,45
 585 225 585 225 601 256.5 c 128,-1,46
 617 288 617 288 626 328.5 c 128,-1,47
 635 369 635 369 639 412.5 c 128,-1,48
 643 456 643 456 644 498.5 c 128,-1,49
 645 541 645 541 645 577 c 2,50,-1
 645 620 l 1,51,-1
 385 290 l 1,52,53
 400 245 400 245 427.5 216 c 128,-1,54
 455 187 455 187 500 187 c 0,43,44
EndSplineSet
EndChar

StartChar: thorn
Encoding: 254 254 194
Width: 1067
Flags: W
LayerCount: 2
Fore
SplineSet
124 -358 m 1,0,-1
 124 1500 l 1,1,-1
 412 1536 l 1,2,-1
 412 1005 l 1,3,4
 445 1041 445 1041 482 1071 c 128,-1,5
 519 1101 519 1101 557 1122 c 128,-1,6
 595 1143 595 1143 634 1155 c 128,-1,7
 673 1167 673 1167 710 1167 c 0,8,9
 767 1167 767 1167 818 1136 c 128,-1,10
 869 1105 869 1105 907 1035.5 c 128,-1,11
 945 966 945 966 967.5 853 c 128,-1,12
 990 740 990 740 990 576 c 0,13,14
 990 420 990 420 968 306.5 c 128,-1,15
 946 193 946 193 903.5 118.5 c 128,-1,16
 861 44 861 44 799.5 8.5 c 128,-1,17
 738 -27 738 -27 659 -27 c 0,18,19
 619 -27 619 -27 587.5 -20 c 128,-1,20
 556 -13 556 -13 531 -1 c 128,-1,21
 506 11 506 11 487.5 26.5 c 128,-1,22
 469 42 469 42 456 58 c 0,23,24
 425 96 425 96 412 144 c 1,25,-1
 413 -358 l 1,26,-1
 124 -358 l 1,0,-1
412 480 m 2,27,28
 412 390 412 390 424 331.5 c 128,-1,29
 436 273 436 273 456 239.5 c 128,-1,30
 476 206 476 206 501 192.5 c 128,-1,31
 526 179 526 179 552 179 c 0,32,33
 605 179 605 179 635 211 c 128,-1,34
 665 243 665 243 680 297.5 c 128,-1,35
 695 352 695 352 698.5 424 c 128,-1,36
 702 496 702 496 702 576 c 0,37,38
 702 649 702 649 699.5 712 c 128,-1,39
 697 775 697 775 687.5 821.5 c 128,-1,40
 678 868 678 868 658 895 c 128,-1,41
 638 922 638 922 602 922 c 0,42,43
 576 922 576 922 543 909.5 c 128,-1,44
 510 897 510 897 481 882 c 0,45,46
 447 864 447 864 412 843 c 1,47,-1
 412 480 l 2,27,28
EndSplineSet
EndChar

StartChar: Dcroat
Encoding: 272 272 212
Width: 1135
Flags: W
LayerCount: 2
Fore
SplineSet
54 908 m 1,0,-1
 145 908 l 1,1,-1
 145 1536 l 1,2,-1
 459 1536 l 2,3,4
 762 1536 762 1536 912 1344.5 c 128,-1,5
 1062 1153 1062 1153 1062 762 c 0,6,7
 1062 665 1062 665 1049 570.5 c 128,-1,8
 1036 476 1036 476 1008.5 391.5 c 128,-1,9
 981 307 981 307 938 235 c 128,-1,10
 895 163 895 163 834 111 c 128,-1,11
 773 59 773 59 693 29.5 c 128,-1,12
 613 0 613 0 512 0 c 2,13,-1
 145 0 l 1,14,-1
 145 716 l 1,15,-1
 35 716 l 1,16,-1
 54 908 l 1,0,-1
444 1296 m 1,17,-1
 444 908 l 1,18,-1
 630 908 l 1,19,-1
 611 716 l 1,20,-1
 444 716 l 1,21,-1
 444 240 l 1,22,-1
 487 240 l 2,23,24
 544 240 544 240 587 259.5 c 128,-1,25
 630 279 630 279 660.5 313 c 128,-1,26
 691 347 691 347 710.5 392.5 c 128,-1,27
 730 438 730 438 741.5 489.5 c 128,-1,28
 753 541 753 541 757.5 596 c 128,-1,29
 762 651 762 651 762 705 c 0,30,31
 762 754 762 754 762 817 c 128,-1,32
 762 880 762 880 756 945.5 c 128,-1,33
 750 1011 750 1011 734 1074 c 128,-1,34
 718 1137 718 1137 687 1186.5 c 128,-1,35
 656 1236 656 1236 605.5 1266 c 128,-1,36
 555 1296 555 1296 479 1296 c 2,37,-1
 444 1296 l 1,17,-1
EndSplineSet
EndChar

StartChar: Hbar
Encoding: 294 294 234
Width: 1179
Flags: W
LayerCount: 2
Fore
SplineSet
26 1344 m 1,0,-1
 145 1344 l 1,1,-1
 145 1512 l 1,2,-1
 445 1536 l 1,3,-1
 445 1344 l 1,4,-1
 733 1344 l 1,5,-1
 733 1512 l 1,6,-1
 1033 1536 l 1,7,-1
 1033 1344 l 1,8,-1
 1139 1344 l 1,9,-1
 1139 1162 l 1,10,-1
 1033 1162 l 1,11,-1
 1033 12 l 1,12,-1
 733 -12 l 1,13,-1
 733 639 l 1,14,-1
 445 639 l 1,15,-1
 445 12 l 1,16,-1
 145 -12 l 1,17,-1
 145 1162 l 1,18,-1
 26 1162 l 1,19,-1
 26 1344 l 1,0,-1
733 913 m 1,20,-1
 733 1162 l 1,21,-1
 445 1162 l 1,22,-1
 445 913 l 1,23,-1
 733 913 l 1,20,-1
EndSplineSet
EndChar

StartChar: dotlessi
Encoding: 305 305 245
Width: 536
Flags: W
LayerCount: 2
Fore
SplineSet
124 1128 m 1,0,-1
 412 1152 l 1,1,-1
 412 12 l 1,2,-1
 124 -12 l 1,3,-1
 124 1128 l 1,0,-1
EndSplineSet
EndChar

StartChar: Lslash
Encoding: 321 321 260
Width: 985
Flags: W
LayerCount: 2
Fore
SplineSet
455 1536 m 1,0,-1
 455 975 l 1,1,-1
 670 1006 l 1,2,-1
 670 768 l 1,3,-1
 455 737 l 1,4,-1
 455 240 l 1,5,-1
 975 240 l 1,6,-1
 927 0 l 1,7,-1
 156 0 l 1,8,-1
 156 694 l 1,9,-1
 -2 672 l 1,10,-1
 -2 910 l 1,11,-1
 156 932 l 1,12,-1
 156 1512 l 1,13,-1
 455 1536 l 1,0,-1
EndSplineSet
EndChar

StartChar: lslash
Encoding: 322 322 261
Width: 583
Flags: W
LayerCount: 2
Fore
SplineSet
-1 814 m 1,0,-1
 575 960 l 1,1,-1
 575 722 l 1,2,-1
 -1 576 l 1,3,-1
 -1 814 l 1,0,-1
156 1500 m 1,4,-1
 444 1536 l 1,5,-1
 444 12 l 1,6,-1
 156 -12 l 1,7,-1
 156 1500 l 1,4,-1
EndSplineSet
EndChar

StartChar: Eng
Encoding: 330 330 269
Width: 1245
Flags: W
LayerCount: 2
Fore
SplineSet
628 -84 m 1,0,1
 652 -92 652 -92 671.5 -95 c 128,-1,2
 691 -98 691 -98 708 -98 c 0,3,4
 761 -98 761 -98 790 -79 c 128,-1,5
 819 -60 819 -60 832.5 -29.5 c 128,-1,6
 846 1 846 1 848 40 c 128,-1,7
 850 79 850 79 850 120 c 2,8,-1
 850 143 l 1,9,-1
 409 998 l 1,10,-1
 409 12 l 1,11,-1
 141 0 l 1,12,-1
 141 1524 l 1,13,-1
 454 1536 l 1,14,-1
 850 722 l 1,15,-1
 850 1512 l 1,16,-1
 1104 1536 l 1,17,-1
 1104 95 l 2,18,19
 1104 3 1104 3 1089.5 -72.5 c 128,-1,20
 1075 -148 1075 -148 1042 -202.5 c 128,-1,21
 1009 -257 1009 -257 954.5 -287 c 128,-1,22
 900 -317 900 -317 820 -317 c 0,23,24
 739 -317 739 -317 628 -287 c 1,25,-1
 628 -84 l 1,26,-1
 628 -84 l 1,0,1
EndSplineSet
EndChar

StartChar: eng
Encoding: 331 331 270
Width: 1105
Flags: W
LayerCount: 2
Fore
SplineSet
541 -96 m 1,0,1
 597 -96 597 -96 629 -88 c 128,-1,2
 661 -80 661 -80 676.5 -62.5 c 128,-1,3
 692 -45 692 -45 696 -16.5 c 128,-1,4
 700 12 700 12 700 54 c 2,5,-1
 700 769 l 2,6,7
 700 854 700 854 671 888 c 128,-1,8
 642 922 642 922 595 922 c 0,9,10
 557 922 557 922 509.5 897 c 128,-1,11
 462 872 462 872 412 842 c 1,12,-1
 412 12 l 1,13,-1
 124 -12 l 1,14,-1
 124 1128 l 1,15,-1
 412 1152 l 1,16,-1
 412 1005 l 1,17,18
 498 1080 498 1080 583 1123.5 c 128,-1,19
 668 1167 668 1167 742 1167 c 0,20,21
 796 1167 796 1167 841 1146.5 c 128,-1,22
 886 1126 886 1126 918.5 1088.5 c 128,-1,23
 951 1051 951 1051 969.5 997 c 128,-1,24
 988 943 988 943 988 876 c 2,25,-1
 988 54 l 2,26,27
 988 -27 988 -27 984 -91 c 128,-1,28
 980 -155 980 -155 956 -198.5 c 128,-1,29
 932 -242 932 -242 880.5 -265 c 128,-1,30
 829 -288 829 -288 733 -288 c 0,31,32
 693 -288 693 -288 645.5 -283.5 c 128,-1,33
 598 -279 598 -279 541 -269 c 1,34,-1
 541 -96 l 1,0,1
EndSplineSet
EndChar

StartChar: OE
Encoding: 338 338 277
Width: 1617
Flags: W
LayerCount: 2
Fore
SplineSet
768 1536 m 1,0,-1
 1542 1536 l 1,1,-1
 1542 1296 l 1,2,-1
 1068 1296 l 1,3,-1
 1068 930 l 1,4,-1
 1367 930 l 1,5,-1
 1367 672 l 1,6,-1
 1068 672 l 1,7,-1
 1068 240 l 1,8,-1
 1558 240 l 1,9,-1
 1558 0 l 1,10,-1
 768 0 l 1,11,-1
 768 96 l 1,12,13
 731 38 731 38 680.5 5.5 c 128,-1,14
 630 -27 630 -27 561 -27 c 0,15,16
 463 -27 463 -27 389.5 5.5 c 128,-1,17
 316 38 316 38 263 95.5 c 128,-1,18
 210 153 210 153 176 232 c 128,-1,19
 142 311 142 311 122 404 c 128,-1,20
 102 497 102 497 94 600 c 128,-1,21
 86 703 86 703 86 810 c 0,22,23
 86 974 86 974 113.5 1109.5 c 128,-1,24
 141 1245 141 1245 199 1342 c 128,-1,25
 257 1439 257 1439 346.5 1492.5 c 128,-1,26
 436 1546 436 1546 561 1546 c 0,27,28
 627 1546 627 1546 678 1514.5 c 128,-1,29
 729 1483 729 1483 768 1424 c 1,30,-1
 768 1536 l 1,0,-1
561 228 m 0,31,32
 622 228 622 228 662.5 259 c 128,-1,33
 703 290 703 290 726 348 c 128,-1,34
 749 406 749 406 758.5 490 c 128,-1,35
 768 574 768 574 768 681 c 2,36,-1
 768 884 l 2,37,38
 768 929 768 929 764.5 978.5 c 128,-1,39
 761 1028 761 1028 752 1075 c 128,-1,40
 743 1122 743 1122 728 1164 c 128,-1,41
 713 1206 713 1206 690 1238 c 128,-1,42
 667 1270 667 1270 635 1288.5 c 128,-1,43
 603 1307 603 1307 561 1307 c 0,44,45
 520 1307 520 1307 491 1283 c 128,-1,46
 462 1259 462 1259 442.5 1219 c 128,-1,47
 423 1179 423 1179 411.5 1127 c 128,-1,48
 400 1075 400 1075 394 1020 c 128,-1,49
 388 965 388 965 386.5 910.5 c 128,-1,50
 385 856 385 856 385 810 c 0,51,52
 385 675 385 675 390 567 c 128,-1,53
 395 459 395 459 413 383.5 c 128,-1,54
 431 308 431 308 466 268 c 128,-1,55
 501 228 501 228 561 228 c 0,31,32
EndSplineSet
EndChar

StartChar: oe
Encoding: 339 339 278
Width: 1539
Flags: W
LayerCount: 2
Fore
SplineSet
932 536 m 1,0,1
 932 482 932 482 939 420 c 128,-1,2
 946 358 946 358 962.5 306 c 128,-1,3
 979 254 979 254 1006 219.5 c 128,-1,4
 1033 185 1033 185 1072 185 c 0,5,6
 1106 185 1106 185 1134 212 c 128,-1,7
 1162 239 1162 239 1183 273 c 128,-1,8
 1204 307 1204 307 1216.5 337 c 128,-1,9
 1229 367 1229 367 1232 373 c 1,10,-1
 1450 290 l 1,11,12
 1430 220 1430 220 1397 162 c 128,-1,13
 1364 104 1364 104 1317 62 c 128,-1,14
 1270 20 1270 20 1208 -3.5 c 128,-1,15
 1146 -27 1146 -27 1067 -27 c 0,16,17
 974 -27 974 -27 908.5 15 c 128,-1,18
 843 57 843 57 791 132 c 1,19,20
 740 57 740 57 665 15 c 128,-1,21
 590 -27 590 -27 502 -27 c 0,22,23
 394 -27 394 -27 313 17.5 c 128,-1,24
 232 62 232 62 178 141.5 c 128,-1,25
 124 221 124 221 97 332 c 128,-1,26
 70 443 70 443 70 577 c 0,27,28
 70 706 70 706 97 814.5 c 128,-1,29
 124 923 124 923 178 1001.5 c 128,-1,30
 232 1080 232 1080 313 1123.5 c 128,-1,31
 394 1167 394 1167 502 1167 c 0,32,33
 590 1167 590 1167 666 1122 c 128,-1,34
 742 1077 742 1077 793 997 c 1,35,36
 847 1078 847 1078 914.5 1122.5 c 128,-1,37
 982 1167 982 1167 1077 1167 c 0,38,39
 1180 1167 1180 1167 1257 1123.5 c 128,-1,40
 1334 1080 1334 1080 1386 1001 c 128,-1,41
 1438 922 1438 922 1464 812 c 128,-1,42
 1490 702 1490 702 1490 570 c 1,43,-1
 1486 556 l 2,44,45
 1484 550 1484 550 1483 544.5 c 128,-1,46
 1482 539 1482 539 1482 536 c 1,47,-1
 932 536 l 1,0,1
500 187 m 0,48,49
 535 187 535 187 560 206 c 128,-1,50
 585 225 585 225 601 256.5 c 128,-1,51
 617 288 617 288 626 328.5 c 128,-1,52
 635 369 635 369 639 412.5 c 128,-1,53
 643 456 643 456 644 498.5 c 128,-1,54
 645 541 645 541 645 577 c 0,55,56
 645 612 645 612 644 654 c 128,-1,57
 643 696 643 696 639 739 c 128,-1,58
 635 782 635 782 626 822.5 c 128,-1,59
 617 863 617 863 601 894.5 c 128,-1,60
 585 926 585 926 560.5 945 c 128,-1,61
 536 964 536 964 501 964 c 0,62,63
 465 964 465 964 440.5 945 c 128,-1,64
 416 926 416 926 400 894.5 c 128,-1,65
 384 863 384 863 375.5 822.5 c 128,-1,66
 367 782 367 782 363 739 c 128,-1,67
 359 696 359 696 358.5 654 c 128,-1,68
 358 612 358 612 358 577 c 0,69,70
 358 541 358 541 358.5 498.5 c 128,-1,71
 359 456 359 456 363 412.5 c 128,-1,72
 367 369 367 369 375.5 328.5 c 128,-1,73
 384 288 384 288 399.5 256.5 c 128,-1,74
 415 225 415 225 439.5 206 c 128,-1,75
 464 187 464 187 500 187 c 0,48,49
1207 702 m 1,76,77
 1207 759 1207 759 1199.5 808 c 128,-1,78
 1192 857 1192 857 1176 892.5 c 128,-1,79
 1160 928 1160 928 1134.5 948.5 c 128,-1,80
 1109 969 1109 969 1072 969 c 0,81,82
 1046 969 1046 969 1020.5 948.5 c 128,-1,83
 995 928 995 928 975.5 892.5 c 128,-1,84
 956 857 956 857 944 808 c 128,-1,85
 932 759 932 759 932 702 c 1,86,-1
 1207 702 l 1,76,77
EndSplineSet
EndChar

StartChar: uni018F
Encoding: 399 399 322
Width: 1109
Flags: W
LayerCount: 2
Fore
SplineSet
723 816 m 1,0,-1
 723 820 l 2,1,2
 723 868 723 868 721.5 924 c 128,-1,3
 720 980 720 980 714 1036.5 c 128,-1,4
 708 1093 708 1093 696.5 1146 c 128,-1,5
 685 1199 685 1199 665 1239.5 c 128,-1,6
 645 1280 645 1280 615.5 1304.5 c 128,-1,7
 586 1329 586 1329 545 1329 c 256,8,9
 504 1329 504 1329 474 1306 c 128,-1,10
 444 1283 444 1283 422.5 1243.5 c 128,-1,11
 401 1204 401 1204 387 1152.5 c 128,-1,12
 373 1101 373 1101 365 1044 c 1,13,-1
 88 1141 l 1,14,15
 112 1240 112 1240 152 1319.5 c 128,-1,16
 192 1399 192 1399 248.5 1454 c 128,-1,17
 305 1509 305 1509 379 1538.5 c 128,-1,18
 453 1568 453 1568 545 1568 c 0,19,20
 670 1568 670 1568 760.5 1514.5 c 128,-1,21
 851 1461 851 1461 909.5 1363 c 128,-1,22
 968 1265 968 1265 995.5 1127 c 128,-1,23
 1023 989 1023 989 1023 820 c 0,24,25
 1023 712 1023 712 1015 607 c 128,-1,26
 1007 502 1007 502 986.5 407.5 c 128,-1,27
 966 313 966 313 931.5 232.5 c 128,-1,28
 897 152 897 152 844 93 c 128,-1,29
 791 34 791 34 717 1 c 128,-1,30
 643 -32 643 -32 545 -32 c 256,31,32
 447 -32 447 -32 373.5 1 c 128,-1,33
 300 34 300 34 247 93 c 128,-1,34
 194 152 194 152 160 232 c 128,-1,35
 126 312 126 312 106 406.5 c 128,-1,36
 86 501 86 501 78 605 c 128,-1,37
 70 709 70 709 70 816 c 1,38,-1
 723 816 l 1,0,-1
545 223 m 256,39,40
 592 223 592 223 623.5 248 c 128,-1,41
 655 273 655 273 675 321 c 128,-1,42
 695 369 695 369 705 438 c 128,-1,43
 715 507 715 507 719 595 c 1,44,-1
 373 595 l 1,45,46
 377 508 377 508 386.5 439 c 128,-1,47
 396 370 396 370 415.5 322 c 128,-1,48
 435 274 435 274 466.5 248.5 c 128,-1,49
 498 223 498 223 545 223 c 256,39,40
EndSplineSet
EndChar

StartChar: florin
Encoding: 402 402 323
Width: 704
Flags: W
LayerCount: 2
Fore
SplineSet
474 -22 m 2,0,1
 474 -92 474 -92 468.5 -158.5 c 128,-1,2
 463 -225 463 -225 435.5 -277.5 c 128,-1,3
 408 -330 408 -330 350 -362 c 128,-1,4
 292 -394 292 -394 188 -394 c 0,5,6
 134 -394 134 -394 97.5 -389.5 c 128,-1,7
 61 -385 61 -385 38 -379 c 0,8,9
 11 -373 11 -373 -7 -364 c 1,10,-1
 -7 -192 l 1,11,-1
 56 -192 l 2,12,13
 101 -192 101 -192 127 -177 c 128,-1,14
 153 -162 153 -162 166 -138 c 128,-1,15
 179 -114 179 -114 182.5 -83.5 c 128,-1,16
 186 -53 186 -53 186 -21 c 2,17,-1
 186 629 l 1,18,-1
 44 629 l 1,19,-1
 44 864 l 1,20,-1
 186 864 l 1,21,-1
 186 1174 l 2,22,23
 186 1244 186 1244 191.5 1310.5 c 128,-1,24
 197 1377 197 1377 224.5 1429.5 c 128,-1,25
 252 1482 252 1482 310 1514 c 128,-1,26
 368 1546 368 1546 472 1546 c 0,27,28
 525 1546 525 1546 562 1541 c 128,-1,29
 599 1536 599 1536 622 1531 c 0,30,31
 649 1524 649 1524 667 1516 c 1,32,-1
 667 1344 l 1,33,-1
 604 1344 l 2,34,35
 559 1344 559 1344 533 1329 c 128,-1,36
 507 1314 507 1314 494 1290 c 128,-1,37
 481 1266 481 1266 477.5 1235 c 128,-1,38
 474 1204 474 1204 474 1173 c 2,39,-1
 474 864 l 1,40,-1
 665 864 l 1,41,-1
 665 627 l 1,42,-1
 474 627 l 1,43,-1
 474 -22 l 2,0,1
EndSplineSet
EndChar

StartChar: dotlessj
Encoding: 567 567 372
Width: 536
Flags: W
LayerCount: 2
Fore
SplineSet
-35 -96 m 1,0,1
 21 -96 21 -96 53 -88 c 128,-1,2
 85 -80 85 -80 100.5 -62.5 c 128,-1,3
 116 -45 116 -45 120 -16.5 c 128,-1,4
 124 12 124 12 124 54 c 2,5,-1
 124 1128 l 1,6,-1
 412 1152 l 1,7,-1
 412 54 l 2,8,9
 412 -27 412 -27 408 -91 c 128,-1,10
 404 -155 404 -155 380 -198.5 c 128,-1,11
 356 -242 356 -242 304.5 -265 c 128,-1,12
 253 -288 253 -288 157 -288 c 0,13,14
 117 -288 117 -288 69.5 -283.5 c 128,-1,15
 22 -279 22 -279 -35 -269 c 1,16,-1
 -35 -96 l 1,0,1
EndSplineSet
EndChar

StartChar: schwa
Encoding: 601 601 373
Width: 965
Flags: W
LayerCount: 2
Fore
SplineSet
608 604 m 1,0,1
 608 658 608 658 601 720 c 128,-1,2
 594 782 594 782 577.5 834 c 128,-1,3
 561 886 561 886 534 920.5 c 128,-1,4
 507 955 507 955 468 955 c 0,5,6
 434 955 434 955 406 928 c 128,-1,7
 378 901 378 901 357 867 c 128,-1,8
 336 833 336 833 323.5 803 c 128,-1,9
 311 773 311 773 308 767 c 1,10,-1
 90 850 l 1,11,12
 110 920 110 920 143 978 c 128,-1,13
 176 1036 176 1036 223 1078 c 128,-1,14
 270 1120 270 1120 332 1143.5 c 128,-1,15
 394 1167 394 1167 473 1167 c 0,16,17
 578 1167 578 1167 657.5 1123 c 128,-1,18
 737 1079 737 1079 789.5 1000 c 128,-1,19
 842 921 842 921 868.5 811 c 128,-1,20
 895 701 895 701 895 570 c 0,21,22
 895 438 895 438 868 327 c 128,-1,23
 841 216 841 216 787 136.5 c 128,-1,24
 733 57 733 57 652 12.5 c 128,-1,25
 571 -32 571 -32 463 -32 c 0,26,27
 360 -32 360 -32 282.5 12.5 c 128,-1,28
 205 57 205 57 153.5 136.5 c 128,-1,29
 102 216 102 216 76 327 c 128,-1,30
 50 438 50 438 50 570 c 1,31,32
 52 577 52 577 54 584 c 0,33,34
 56 589 56 589 57 595 c 128,-1,35
 58 601 58 601 58 604 c 1,36,-1
 608 604 l 1,0,1
333 438 m 1,37,38
 333 381 333 381 340.5 331.5 c 128,-1,39
 348 282 348 282 364 245 c 128,-1,40
 380 208 380 208 405.5 187 c 128,-1,41
 431 166 431 166 468 166 c 0,42,43
 494 166 494 166 519.5 187 c 128,-1,44
 545 208 545 208 564.5 245 c 128,-1,45
 584 282 584 282 596 331.5 c 128,-1,46
 608 381 608 381 608 438 c 1,47,-1
 333 438 l 1,37,38
EndSplineSet
EndChar

StartChar: circumflex
Encoding: 710 710 374
Width: 739
Flags: W
LayerCount: 2
Fore
SplineSet
32 1248 m 1,0,-1
 272 1728 l 1,1,-1
 474 1728 l 1,2,-1
 704 1248 l 1,3,-1
 454 1248 l 1,4,-1
 358 1538 l 1,5,-1
 242 1248 l 1,6,-1
 32 1248 l 1,0,-1
EndSplineSet
EndChar

StartChar: caron
Encoding: 711 711 375
Width: 768
Flags: W
LayerCount: 2
Fore
SplineSet
242 1728 m 1,0,-1
 358 1438 l 1,1,-1
 454 1728 l 1,2,-1
 704 1728 l 1,3,-1
 474 1248 l 1,4,-1
 272 1248 l 1,5,-1
 32 1728 l 1,6,-1
 242 1728 l 1,0,-1
EndSplineSet
EndChar

StartChar: breve
Encoding: 728 728 376
Width: 1018
Flags: W
LayerCount: 2
Fore
SplineSet
317 1728 m 1,0,1
 317 1692 317 1692 320 1650 c 128,-1,2
 323 1608 323 1608 341 1572 c 128,-1,3
 359 1536 359 1536 398 1512 c 128,-1,4
 437 1488 437 1488 509 1488 c 256,5,6
 581 1488 581 1488 620 1512 c 128,-1,7
 659 1536 659 1536 677 1572 c 128,-1,8
 695 1608 695 1608 698 1650 c 128,-1,9
 701 1692 701 1692 701 1728 c 1,10,-1
 941 1728 l 1,11,12
 941 1682 941 1682 932.5 1629 c 128,-1,13
 924 1576 924 1576 904 1522.5 c 128,-1,14
 884 1469 884 1469 851 1419.5 c 128,-1,15
 818 1370 818 1370 770 1332 c 128,-1,16
 722 1294 722 1294 657.5 1271 c 128,-1,17
 593 1248 593 1248 509 1248 c 256,18,19
 425 1248 425 1248 360.5 1271 c 128,-1,20
 296 1294 296 1294 248 1332 c 128,-1,21
 200 1370 200 1370 167 1419.5 c 128,-1,22
 134 1469 134 1469 114 1522.5 c 128,-1,23
 94 1576 94 1576 85.5 1629 c 128,-1,24
 77 1682 77 1682 77 1728 c 1,25,-1
 317 1728 l 1,0,1
EndSplineSet
EndChar

StartChar: dotaccent
Encoding: 729 729 377
Width: 608
Flags: W
LayerCount: 2
Fore
SplineSet
450 1536 m 1,0,-1
 450 1248 l 1,1,-1
 162 1248 l 1,2,-1
 162 1536 l 1,3,-1
 450 1536 l 1,0,-1
EndSplineSet
EndChar

StartChar: ring
Encoding: 730 730 378
Width: 789
Flags: W
LayerCount: 2
Fore
SplineSet
394 1407 m 2,0,1
 417 1407 417 1407 439 1414 c 128,-1,2
 461 1421 461 1421 478.5 1435.5 c 128,-1,3
 496 1450 496 1450 507 1471 c 128,-1,4
 518 1492 518 1492 518 1520 c 0,5,6
 518 1547 518 1547 507 1567.5 c 128,-1,7
 496 1588 496 1588 479 1602 c 128,-1,8
 462 1616 462 1616 439.5 1623.5 c 128,-1,9
 417 1631 417 1631 395 1631 c 0,10,11
 372 1631 372 1631 349.5 1623.5 c 128,-1,12
 327 1616 327 1616 309.5 1602 c 128,-1,13
 292 1588 292 1588 281.5 1567.5 c 128,-1,14
 271 1547 271 1547 271 1520 c 0,15,16
 271 1492 271 1492 281.5 1471 c 128,-1,17
 292 1450 292 1450 309.5 1435.5 c 128,-1,18
 327 1421 327 1421 349.5 1414 c 128,-1,19
 372 1407 372 1407 395 1407 c 2,20,-1
 394 1407 l 2,0,1
395 1248 m 0,21,22
 336 1248 336 1248 280 1265 c 128,-1,23
 224 1282 224 1282 180 1315.5 c 128,-1,24
 136 1349 136 1349 109 1400.5 c 128,-1,25
 82 1452 82 1452 82 1521 c 0,26,27
 82 1589 82 1589 109 1640 c 128,-1,28
 136 1691 136 1691 180 1724.5 c 128,-1,29
 224 1758 224 1758 280 1775 c 128,-1,30
 336 1792 336 1792 395 1792 c 0,31,32
 453 1792 453 1792 509 1775 c 128,-1,33
 565 1758 565 1758 609 1724.5 c 128,-1,34
 653 1691 653 1691 680 1640 c 128,-1,35
 707 1589 707 1589 707 1521 c 0,36,37
 707 1452 707 1452 680 1400.5 c 128,-1,38
 653 1349 653 1349 609 1315.5 c 128,-1,39
 565 1282 565 1282 509 1265 c 128,-1,40
 453 1248 453 1248 395 1248 c 0,21,22
EndSplineSet
EndChar

StartChar: ogonek
Encoding: 731 731 379
Width: 544
Flags: W
LayerCount: 2
Fore
SplineSet
294 -101 m 2,0,1
 289 -119 289 -119 289 -130 c 0,2,3
 289 -165 289 -165 312 -178 c 128,-1,4
 335 -191 335 -191 368 -191 c 0,5,6
 388 -191 388 -191 410 -187.5 c 128,-1,7
 432 -184 432 -184 452 -178.5 c 128,-1,8
 472 -173 472 -173 489 -167 c 128,-1,9
 506 -161 506 -161 517 -156 c 1,10,-1
 517 -321 l 1,11,12
 488 -352 488 -352 433.5 -368.5 c 128,-1,13
 379 -385 379 -385 319 -385 c 0,14,15
 275 -385 275 -385 232.5 -375.5 c 128,-1,16
 190 -366 190 -366 157 -345.5 c 128,-1,17
 124 -325 124 -325 103.5 -293.5 c 128,-1,18
 83 -262 83 -262 83 -218 c 0,19,20
 83 -202 83 -202 87.5 -185 c 128,-1,21
 92 -168 92 -168 100 -148 c 2,22,-1
 162 20 l 1,23,-1
 324 20 l 1,24,-1
 294 -101 l 2,0,1
EndSplineSet
EndChar

StartChar: tilde
Encoding: 732 732 380
Width: 860
Flags: W
LayerCount: 2
Fore
SplineSet
118 1415 m 1,0,1
 148 1449 148 1449 181 1476 c 0,2,3
 209 1499 209 1499 243 1518 c 128,-1,4
 277 1537 277 1537 311 1537 c 0,5,6
 351 1537 351 1537 383 1524.5 c 128,-1,7
 415 1512 415 1512 444.5 1497 c 128,-1,8
 474 1482 474 1482 502 1469.5 c 128,-1,9
 530 1457 530 1457 562 1457 c 0,10,11
 600 1457 600 1457 628.5 1469.5 c 128,-1,12
 657 1482 657 1482 675 1497 c 0,13,14
 696 1515 696 1515 711 1537 c 1,15,-1
 755 1375 l 2,16,17
 755 1374 755 1374 742 1351 c 128,-1,18
 729 1328 729 1328 704.5 1301 c 128,-1,19
 680 1274 680 1274 644.5 1252 c 128,-1,20
 609 1230 609 1230 564 1230 c 0,21,22
 528 1230 528 1230 498.5 1246 c 128,-1,23
 469 1262 469 1262 439 1280.5 c 128,-1,24
 409 1299 409 1299 376 1315 c 128,-1,25
 343 1331 343 1331 300 1331 c 0,26,27
 269 1331 269 1331 239 1315.5 c 128,-1,28
 209 1300 209 1300 186 1281 c 0,29,30
 158 1259 158 1259 133 1231 c 1,31,-1
 118 1415 l 1,0,1
EndSplineSet
EndChar

StartChar: hungarumlaut
Encoding: 733 733 381
Width: 1102
Flags: W
LayerCount: 2
Fore
SplineSet
564 1248 m 1,0,-1
 833 1728 l 1,1,-1
 1067 1534 l 1,2,-1
 683 1150 l 1,3,-1
 564 1248 l 1,0,-1
61 1248 m 1,4,-1
 330 1728 l 1,5,-1
 564 1534 l 1,6,-1
 180 1150 l 1,7,-1
 61 1248 l 1,4,-1
EndSplineSet
EndChar

StartChar: uni030F
Encoding: 783 783 382
Width: 1102
Flags: W
LayerCount: 2
Fore
SplineSet
762 1250 m 1,0,-1
 469 1708 l 1,1,-1
 739 1847 l 1,2,-1
 899 1320 l 1,3,-1
 762 1250 l 1,0,-1
384 1248 m 1,4,-1
 0 1632 l 1,5,-1
 234 1826 l 1,6,-1
 503 1346 l 1,7,-1
 384 1248 l 1,4,-1
EndSplineSet
EndChar

StartChar: uni0311
Encoding: 785 785 383
Width: 1018
Flags: W
LayerCount: 2
Fore
SplineSet
77 1248 m 1,0,1
 77 1294 77 1294 85.5 1347 c 128,-1,2
 94 1400 94 1400 114 1453.5 c 128,-1,3
 134 1507 134 1507 167 1556.5 c 128,-1,4
 200 1606 200 1606 248 1644 c 128,-1,5
 296 1682 296 1682 360.5 1705 c 128,-1,6
 425 1728 425 1728 509 1728 c 256,7,8
 593 1728 593 1728 657.5 1705 c 128,-1,9
 722 1682 722 1682 770 1644 c 128,-1,10
 818 1606 818 1606 851 1556.5 c 128,-1,11
 884 1507 884 1507 904 1453.5 c 128,-1,12
 924 1400 924 1400 932.5 1346.5 c 128,-1,13
 941 1293 941 1293 941 1248 c 1,14,-1
 701 1248 l 1,15,16
 701 1284 701 1284 698 1326 c 128,-1,17
 695 1368 695 1368 677 1404 c 128,-1,18
 659 1440 659 1440 620 1464 c 128,-1,19
 581 1488 581 1488 509 1488 c 256,20,21
 437 1488 437 1488 398 1464 c 128,-1,22
 359 1440 359 1440 341 1404 c 128,-1,23
 323 1368 323 1368 320 1326 c 128,-1,24
 317 1284 317 1284 317 1248 c 1,25,-1
 77 1248 l 1,0,1
EndSplineSet
EndChar

StartChar: Sigma
Encoding: 931 931 384
Width: 1008
Flags: W
LayerCount: 2
Fore
SplineSet
581 1296 m 1,0,-1
 98 1296 l 1,1,-1
 122 1536 l 1,2,-1
 935 1536 l 1,3,-1
 935 1337 l 1,4,-1
 421 240 l 1,5,-1
 949 240 l 1,6,-1
 901 0 l 1,7,-1
 51 0 l 1,8,-1
 51 190 l 1,9,-1
 581 1296 l 1,0,-1
EndSplineSet
EndChar

StartChar: pi
Encoding: 960 960 386
Width: 538
Flags: W
LayerCount: 2
Fore
SplineSet
126 1128 m 1,0,-1
 414 1152 l 1,1,-1
 414 12 l 1,2,-1
 126 -12 l 1,3,-1
 126 1128 l 1,0,-1
-20 1440 m 1,4,-1
 556 1440 l 1,5,-1
 556 1248 l 1,6,-1
 -20 1248 l 1,7,-1
 -20 1440 l 1,4,-1
124 1128 m 1,8,-1
 412 1152 l 1,9,-1
 412 12 l 1,10,-1
 124 -12 l 1,11,-1
 124 1128 l 1,8,-1
EndSplineSet
EndChar

StartChar: endash
Encoding: 8211 8211 401
Width: 804
Flags: W
LayerCount: 2
Fore
SplineSet
114 718 m 1,0,-1
 690 718 l 1,1,-1
 690 480 l 1,2,-1
 114 480 l 1,3,-1
 114 718 l 1,0,-1
EndSplineSet
EndChar

StartChar: emdash
Encoding: 8212 8212 402
Width: 1379
Flags: W
LayerCount: 2
Fore
SplineSet
114 718 m 1,0,-1
 1266 718 l 1,1,-1
 1266 480 l 1,2,-1
 114 480 l 1,3,-1
 114 718 l 1,0,-1
EndSplineSet
EndChar

StartChar: quoteleft
Encoding: 8216 8216 403
Width: 524
Flags: W
LayerCount: 2
Fore
SplineSet
97 918 m 1,0,-1
 97 1248 l 2,1,2
 97 1302 97 1302 109.5 1343 c 128,-1,3
 122 1384 122 1384 142 1414.5 c 128,-1,4
 162 1445 162 1445 188 1465.5 c 128,-1,5
 214 1486 214 1486 241 1500 c 0,6,7
 304 1532 304 1532 386 1536 c 1,8,-1
 386 1344 l 1,9,10
 331 1344 331 1344 302 1329 c 128,-1,11
 273 1314 273 1314 259 1296 c 0,12,13
 243 1275 243 1275 241 1248 c 1,14,-1
 434 1248 l 1,15,-1
 434 930 l 1,16,-1
 97 918 l 1,0,-1
EndSplineSet
EndChar

StartChar: quoteright
Encoding: 8217 8217 404
Width: 458
Flags: W
LayerCount: 2
Fore
SplineSet
375 1536 m 1,0,-1
 375 1248 l 2,1,2
 375 1194 375 1194 364.5 1153 c 128,-1,3
 354 1112 354 1112 337.5 1081.5 c 128,-1,4
 321 1051 321 1051 299 1030 c 128,-1,5
 277 1009 277 1009 255 996 c 0,6,7
 202 964 202 964 135 960 c 1,8,-1
 135 1152 l 1,9,10
 171 1152 171 1152 190.5 1167 c 128,-1,11
 210 1182 210 1182 219 1200 c 0,12,13
 230 1221 230 1221 231 1248 c 1,14,-1
 87 1236 l 1,15,-1
 87 1536 l 1,16,-1
 375 1536 l 1,0,-1
EndSplineSet
EndChar

StartChar: quotesinglbase
Encoding: 8218 8218 405
Width: 489
Flags: W
LayerCount: 2
Fore
SplineSet
388 288 m 1,0,-1
 388 0 l 2,1,2
 388 -54 388 -54 377.5 -95 c 128,-1,3
 367 -136 367 -136 350.5 -166.5 c 128,-1,4
 334 -197 334 -197 312 -218 c 128,-1,5
 290 -239 290 -239 268 -252 c 0,6,7
 215 -284 215 -284 148 -288 c 1,8,-1
 148 -96 l 1,9,10
 184 -96 184 -96 203.5 -81 c 128,-1,11
 223 -66 223 -66 232 -48 c 0,12,13
 243 -27 243 -27 244 0 c 1,14,-1
 100 0 l 1,15,-1
 100 288 l 1,16,-1
 388 288 l 1,0,-1
EndSplineSet
EndChar

StartChar: quotedblleft
Encoding: 8220 8220 406
Width: 859
Flags: W
LayerCount: 2
Fore
SplineSet
96 948 m 1,0,-1
 96 1248 l 2,1,2
 96 1302 96 1302 106.5 1343 c 128,-1,3
 117 1384 117 1384 133.5 1414.5 c 128,-1,4
 150 1445 150 1445 171.5 1465.5 c 128,-1,5
 193 1486 193 1486 216 1500 c 0,6,7
 269 1532 269 1532 336 1536 c 1,8,-1
 336 1344 l 1,9,10
 300 1344 300 1344 280.5 1329 c 128,-1,11
 261 1314 261 1314 252 1296 c 0,12,13
 241 1275 241 1275 240 1248 c 1,14,-1
 384 1248 l 1,15,-1
 384 960 l 1,16,-1
 96 948 l 1,0,-1
480 948 m 1,17,-1
 480 1248 l 2,18,19
 480 1302 480 1302 490.5 1343 c 128,-1,20
 501 1384 501 1384 517.5 1414.5 c 128,-1,21
 534 1445 534 1445 555.5 1465.5 c 128,-1,22
 577 1486 577 1486 600 1500 c 0,23,24
 653 1532 653 1532 720 1536 c 1,25,-1
 720 1344 l 1,26,27
 684 1344 684 1344 664.5 1329 c 128,-1,28
 645 1314 645 1314 636 1296 c 0,29,30
 625 1275 625 1275 624 1248 c 1,31,-1
 768 1248 l 1,32,-1
 768 960 l 1,33,-1
 480 948 l 1,17,-1
EndSplineSet
EndChar

StartChar: quotedblright
Encoding: 8221 8221 407
Width: 842
Flags: W
LayerCount: 2
Fore
SplineSet
759 1536 m 1,0,-1
 759 1248 l 2,1,2
 759 1194 759 1194 748.5 1153 c 128,-1,3
 738 1112 738 1112 721.5 1081.5 c 128,-1,4
 705 1051 705 1051 683 1030 c 128,-1,5
 661 1009 661 1009 639 996 c 0,6,7
 586 964 586 964 519 960 c 1,8,-1
 519 1152 l 1,9,10
 555 1152 555 1152 574.5 1167 c 128,-1,11
 594 1182 594 1182 603 1200 c 0,12,13
 614 1221 614 1221 615 1248 c 1,14,-1
 471 1236 l 1,15,-1
 471 1536 l 1,16,-1
 759 1536 l 1,0,-1
375 1536 m 1,17,-1
 375 1248 l 2,18,19
 375 1194 375 1194 364.5 1153 c 128,-1,20
 354 1112 354 1112 337.5 1081.5 c 128,-1,21
 321 1051 321 1051 299 1030 c 128,-1,22
 277 1009 277 1009 255 996 c 0,23,24
 202 964 202 964 135 960 c 1,25,-1
 135 1152 l 1,26,27
 171 1152 171 1152 190.5 1167 c 128,-1,28
 210 1182 210 1182 219 1200 c 0,29,30
 230 1221 230 1221 231 1248 c 1,31,-1
 87 1236 l 1,32,-1
 87 1536 l 1,33,-1
 375 1536 l 1,17,-1
EndSplineSet
EndChar

StartChar: quotedblbase
Encoding: 8222 8222 408
Width: 873
Flags: W
LayerCount: 2
Fore
SplineSet
772 288 m 1,0,-1
 772 0 l 2,1,2
 772 -54 772 -54 761.5 -95 c 128,-1,3
 751 -136 751 -136 734.5 -166.5 c 128,-1,4
 718 -197 718 -197 696 -218 c 128,-1,5
 674 -239 674 -239 652 -252 c 0,6,7
 599 -284 599 -284 532 -288 c 1,8,-1
 532 -96 l 1,9,10
 568 -96 568 -96 587.5 -81 c 128,-1,11
 607 -66 607 -66 616 -48 c 0,12,13
 627 -27 627 -27 628 0 c 1,14,-1
 484 0 l 1,15,-1
 484 288 l 1,16,-1
 772 288 l 1,0,-1
388 288 m 1,17,-1
 388 0 l 2,18,19
 388 -54 388 -54 377.5 -95 c 128,-1,20
 367 -136 367 -136 350.5 -166.5 c 128,-1,21
 334 -197 334 -197 312 -218 c 128,-1,22
 290 -239 290 -239 268 -252 c 0,23,24
 215 -284 215 -284 148 -288 c 1,25,-1
 148 -96 l 1,26,27
 184 -96 184 -96 203.5 -81 c 128,-1,28
 223 -66 223 -66 232 -48 c 0,29,30
 243 -27 243 -27 244 0 c 1,31,-1
 100 0 l 1,32,-1
 100 288 l 1,33,-1
 388 288 l 1,17,-1
EndSplineSet
EndChar

StartChar: dagger
Encoding: 8224 8224 409
Width: 768
Flags: W
LayerCount: 2
Fore
SplineSet
264 1152 m 1,0,-1
 264 1428 l 1,1,-1
 504 1440 l 1,2,-1
 504 1152 l 1,3,-1
 720 1152 l 1,4,-1
 708 960 l 1,5,-1
 504 960 l 1,6,-1
 504 192 l 1,7,-1
 264 180 l 1,8,-1
 264 960 l 1,9,-1
 48 960 l 1,10,-1
 60 1152 l 1,11,-1
 264 1152 l 1,0,-1
EndSplineSet
EndChar

StartChar: daggerdbl
Encoding: 8225 8225 410
Width: 822
Flags: W
LayerCount: 2
Fore
SplineSet
292 1152 m 1,0,-1
 292 1428 l 1,1,-1
 532 1440 l 1,2,-1
 532 1152 l 1,3,-1
 748 1152 l 1,4,-1
 736 960 l 1,5,-1
 532 960 l 1,6,-1
 532 672 l 1,7,-1
 748 672 l 1,8,-1
 736 480 l 1,9,-1
 532 480 l 1,10,-1
 532 192 l 1,11,-1
 292 180 l 1,12,-1
 292 480 l 1,13,-1
 76 480 l 1,14,-1
 88 672 l 1,15,-1
 292 672 l 1,16,-1
 292 960 l 1,17,-1
 76 960 l 1,18,-1
 88 1152 l 1,19,-1
 292 1152 l 1,0,-1
EndSplineSet
EndChar

StartChar: bullet
Encoding: 8226 8226 411
Width: 818
Flags: W
LayerCount: 2
Fore
SplineSet
72 720 m 256,0,1
 72 792 72 792 93.5 853.5 c 128,-1,2
 115 915 115 915 158 960 c 128,-1,3
 201 1005 201 1005 265.5 1030.5 c 128,-1,4
 330 1056 330 1056 416 1056 c 0,5,6
 496 1056 496 1056 557.5 1030.5 c 128,-1,7
 619 1005 619 1005 660.5 960 c 128,-1,8
 702 915 702 915 723.5 853.5 c 128,-1,9
 745 792 745 792 745 720 c 256,10,11
 745 648 745 648 723.5 586.5 c 128,-1,12
 702 525 702 525 660.5 480.5 c 128,-1,13
 619 436 619 436 557.5 410.5 c 128,-1,14
 496 385 496 385 416 385 c 0,15,16
 330 385 330 385 265.5 410.5 c 128,-1,17
 201 436 201 436 158 480.5 c 128,-1,18
 115 525 115 525 93.5 586.5 c 128,-1,19
 72 648 72 648 72 720 c 256,0,1
EndSplineSet
EndChar

StartChar: ellipsis
Encoding: 8230 8230 412
Width: 1633
Flags: W
LayerCount: 2
Fore
SplineSet
390 288 m 1,0,-1
 390 12 l 1,1,-1
 102 -12 l 1,2,-1
 102 288 l 1,3,-1
 390 288 l 1,0,-1
962 288 m 1,4,-1
 962 12 l 1,5,-1
 674 -12 l 1,6,-1
 674 288 l 1,7,-1
 962 288 l 1,4,-1
1534 288 m 1,8,-1
 1534 12 l 1,9,-1
 1246 -12 l 1,10,-1
 1246 288 l 1,11,-1
 1534 288 l 1,8,-1
EndSplineSet
EndChar

StartChar: perthousand
Encoding: 8240 8240 413
Width: 2997
Flags: W
LayerCount: 2
Fore
SplineSet
437 926 m 0,0,1
 473 926 473 926 500.5 944 c 128,-1,2
 528 962 528 962 546 992 c 128,-1,3
 564 1022 564 1022 573 1060 c 128,-1,4
 582 1098 582 1098 582 1138 c 256,5,6
 582 1178 582 1178 573 1216.5 c 128,-1,7
 564 1255 564 1255 546 1285.5 c 128,-1,8
 528 1316 528 1316 501 1334.5 c 128,-1,9
 474 1353 474 1353 438 1353 c 256,10,11
 402 1353 402 1353 375 1335 c 128,-1,12
 348 1317 348 1317 330 1287 c 128,-1,13
 312 1257 312 1257 303 1218.5 c 128,-1,14
 294 1180 294 1180 294 1140 c 0,15,16
 294 1101 294 1101 303 1063 c 128,-1,17
 312 1025 312 1025 330 995 c 128,-1,18
 348 965 348 965 374.5 946 c 128,-1,19
 401 927 401 927 437 926 c 0,0,1
439 732 m 0,20,21
 341 732 341 732 267.5 762 c 128,-1,22
 194 792 194 792 145 845.5 c 128,-1,23
 96 899 96 899 71.5 973 c 128,-1,24
 47 1047 47 1047 47 1136 c 0,25,26
 47 1223 47 1223 71.5 1296 c 128,-1,27
 96 1369 96 1369 145 1422.5 c 128,-1,28
 194 1476 194 1476 267.5 1506 c 128,-1,29
 341 1536 341 1536 439 1536 c 0,30,31
 535 1536 535 1536 608 1506 c 128,-1,32
 681 1476 681 1476 730.5 1422.5 c 128,-1,33
 780 1369 780 1369 805.5 1296 c 128,-1,34
 831 1223 831 1223 831 1136 c 0,35,36
 831 1047 831 1047 805.5 973 c 128,-1,37
 780 899 780 899 730.5 845.5 c 128,-1,38
 681 792 681 792 608 762 c 128,-1,39
 535 732 535 732 439 732 c 0,20,21
2556 193 m 0,40,41
 2592 193 2592 193 2619.5 211 c 128,-1,42
 2647 229 2647 229 2665 259 c 128,-1,43
 2683 289 2683 289 2692 327 c 128,-1,44
 2701 365 2701 365 2701 405 c 256,45,46
 2701 445 2701 445 2692 483.5 c 128,-1,47
 2683 522 2683 522 2665 552.5 c 128,-1,48
 2647 583 2647 583 2620 601.5 c 128,-1,49
 2593 620 2593 620 2557 620 c 256,50,51
 2521 620 2521 620 2494 602 c 128,-1,52
 2467 584 2467 584 2449 554 c 128,-1,53
 2431 524 2431 524 2422 485.5 c 128,-1,54
 2413 447 2413 447 2413 407 c 0,55,56
 2413 368 2413 368 2422 330 c 128,-1,57
 2431 292 2431 292 2449 262 c 128,-1,58
 2467 232 2467 232 2493.5 213 c 128,-1,59
 2520 194 2520 194 2556 193 c 0,40,41
2558 -1 m 0,60,61
 2460 -1 2460 -1 2386.5 29 c 128,-1,62
 2313 59 2313 59 2264 112.5 c 128,-1,63
 2215 166 2215 166 2190.5 240 c 128,-1,64
 2166 314 2166 314 2166 403 c 0,65,66
 2166 490 2166 490 2190.5 563 c 128,-1,67
 2215 636 2215 636 2264 689.5 c 128,-1,68
 2313 743 2313 743 2386.5 773 c 128,-1,69
 2460 803 2460 803 2558 803 c 0,70,71
 2654 803 2654 803 2727 773 c 128,-1,72
 2800 743 2800 743 2849.5 689.5 c 128,-1,73
 2899 636 2899 636 2924.5 563 c 128,-1,74
 2950 490 2950 490 2950 403 c 0,75,76
 2950 314 2950 314 2924.5 240 c 128,-1,77
 2899 166 2899 166 2849.5 112.5 c 128,-1,78
 2800 59 2800 59 2727 29 c 128,-1,79
 2654 -1 2654 -1 2558 -1 c 0,60,61
1096 1536 m 1,80,-1
 1372 1536 l 1,81,-1
 979 0 l 1,82,-1
 703 0 l 1,83,-1
 1096 1536 l 1,80,-1
1655 193 m 0,84,85
 1691 193 1691 193 1718.5 211 c 128,-1,86
 1746 229 1746 229 1764 259 c 128,-1,87
 1782 289 1782 289 1791 327 c 128,-1,88
 1800 365 1800 365 1800 405 c 256,89,90
 1800 445 1800 445 1791 483.5 c 128,-1,91
 1782 522 1782 522 1764 552.5 c 128,-1,92
 1746 583 1746 583 1719 601.5 c 128,-1,93
 1692 620 1692 620 1656 620 c 256,94,95
 1620 620 1620 620 1593 602 c 128,-1,96
 1566 584 1566 584 1548 554 c 128,-1,97
 1530 524 1530 524 1521 485.5 c 128,-1,98
 1512 447 1512 447 1512 407 c 0,99,100
 1512 368 1512 368 1521 330 c 128,-1,101
 1530 292 1530 292 1548 262 c 128,-1,102
 1566 232 1566 232 1592.5 213 c 128,-1,103
 1619 194 1619 194 1655 193 c 0,84,85
1657 -1 m 0,104,105
 1559 -1 1559 -1 1485.5 29 c 128,-1,106
 1412 59 1412 59 1363 112.5 c 128,-1,107
 1314 166 1314 166 1289.5 240 c 128,-1,108
 1265 314 1265 314 1265 403 c 0,109,110
 1265 490 1265 490 1289.5 563 c 128,-1,111
 1314 636 1314 636 1363 689.5 c 128,-1,112
 1412 743 1412 743 1485.5 773 c 128,-1,113
 1559 803 1559 803 1657 803 c 0,114,115
 1753 803 1753 803 1826 773 c 128,-1,116
 1899 743 1899 743 1948.5 689.5 c 128,-1,117
 1998 636 1998 636 2023.5 563 c 128,-1,118
 2049 490 2049 490 2049 403 c 0,119,120
 2049 314 2049 314 2023.5 240 c 128,-1,121
 1998 166 1998 166 1948.5 112.5 c 128,-1,122
 1899 59 1899 59 1826 29 c 128,-1,123
 1753 -1 1753 -1 1657 -1 c 0,104,105
EndSplineSet
EndChar

StartChar: guilsinglleft
Encoding: 8249 8249 414
Width: 800
Flags: W
LayerCount: 2
Fore
SplineSet
54 439 m 1,0,-1
 54 704 l 1,1,-1
 694 1094 l 1,2,-1
 680 833 l 1,3,-1
 299 607 l 1,4,-1
 706 402 l 1,5,-1
 692 59 l 1,6,-1
 54 439 l 1,0,-1
EndSplineSet
EndChar

StartChar: guilsinglright
Encoding: 8250 8250 415
Width: 800
Flags: W
LayerCount: 2
Fore
SplineSet
108 59 m 1,0,-1
 94 402 l 1,1,-1
 501 607 l 1,2,-1
 120 833 l 1,3,-1
 106 1094 l 1,4,-1
 746 704 l 1,5,-1
 746 439 l 1,6,-1
 108 59 l 1,0,-1
EndSplineSet
EndChar

StartChar: fraction
Encoding: 8260 8260 416
Width: 634
Flags: W
LayerCount: 2
Fore
SplineSet
268 1536 m 1,0,-1
 568 1536 l 1,1,-1
 367 0 l 1,2,-1
 67 0 l 1,3,-1
 268 1536 l 1,0,-1
EndSplineSet
EndChar

StartChar: foursuperior
Encoding: 8308 8308 417
Width: 882
Flags: W
LayerCount: 2
Fore
SplineSet
434 768 m 1,0,-1
 44 768 l 1,1,-1
 44 936 l 1,2,-1
 396 1536 l 1,3,-1
 682 1536 l 1,4,-1
 682 946 l 1,5,-1
 807 946 l 1,6,-1
 791 768 l 1,7,-1
 682 768 l 1,8,-1
 682 544 l 1,9,-1
 434 528 l 1,10,-1
 434 768 l 1,0,-1
434 946 m 1,11,-1
 434 1287 l 1,12,-1
 229 946 l 1,13,-1
 434 946 l 1,11,-1
EndSplineSet
EndChar

StartChar: Euro
Encoding: 8364 8364 418
Width: 1141
Flags: W
LayerCount: 2
Fore
SplineSet
51 960 m 1,0,-1
 165 960 l 1,1,2
 178 1074 178 1074 211 1183 c 128,-1,3
 244 1292 244 1292 302 1377.5 c 128,-1,4
 360 1463 360 1463 444 1515.5 c 128,-1,5
 528 1568 528 1568 643 1568 c 0,6,7
 710 1568 710 1568 768 1548 c 128,-1,8
 826 1528 826 1528 873.5 1493.5 c 128,-1,9
 921 1459 921 1459 957.5 1411.5 c 128,-1,10
 994 1364 994 1364 1019 1309 c 128,-1,11
 1044 1254 1044 1254 1057 1194 c 128,-1,12
 1070 1134 1070 1134 1070 1074 c 1,13,-1
 780 1059 l 1,14,15
 780 1065 780 1065 779 1087.5 c 128,-1,16
 778 1110 778 1110 773 1140 c 128,-1,17
 768 1170 768 1170 758.5 1203 c 128,-1,18
 749 1236 749 1236 732 1264 c 128,-1,19
 715 1292 715 1292 689 1310 c 128,-1,20
 663 1328 663 1328 626 1328 c 0,21,22
 584 1328 584 1328 554.5 1297 c 128,-1,23
 525 1266 525 1266 506 1214.5 c 128,-1,24
 487 1163 487 1163 476 1096.5 c 128,-1,25
 465 1030 465 1030 461 960 c 1,26,-1
 915 960 l 1,27,-1
 915 816 l 1,28,-1
 456 816 l 1,29,-1
 456 800 l 2,30,31
 456 780 456 780 456 760 c 128,-1,32
 456 740 456 740 457 720 c 1,33,-1
 915 720 l 1,34,-1
 915 576 l 1,35,-1
 464 576 l 1,36,37
 470 502 470 502 482.5 438 c 128,-1,38
 495 374 495 374 517.5 326.5 c 128,-1,39
 540 279 540 279 573.5 252 c 128,-1,40
 607 225 607 225 655 225 c 0,41,42
 702 225 702 225 731.5 248.5 c 128,-1,43
 761 272 761 272 779 308 c 128,-1,44
 797 344 797 344 805 386.5 c 128,-1,45
 813 429 813 429 817 467 c 1,46,-1
 1072 443 l 1,47,48
 1072 351 1072 351 1045.5 265 c 128,-1,49
 1019 179 1019 179 965 113 c 128,-1,50
 911 47 911 47 829 7.5 c 128,-1,51
 747 -32 747 -32 636 -32 c 0,52,53
 558 -32 558 -32 495 -9 c 128,-1,54
 432 14 432 14 383 55 c 128,-1,55
 334 96 334 96 297.5 153 c 128,-1,56
 261 210 261 210 235 277.5 c 128,-1,57
 209 345 209 345 192.5 421 c 128,-1,58
 176 497 176 497 167 576 c 1,59,-1
 51 576 l 1,60,-1
 51 720 l 1,61,-1
 157 720 l 1,62,63
 156 740 156 740 156 760 c 128,-1,64
 156 780 156 780 156 800 c 2,65,-1
 156 816 l 1,66,-1
 51 816 l 1,67,-1
 51 960 l 1,0,-1
EndSplineSet
EndChar

StartChar: trademark
Encoding: 8482 8482 419
Width: 1877
Flags: W
LayerCount: 2
Fore
SplineSet
92 1215 m 1,0,-1
 109 1391 l 1,1,-1
 735 1391 l 1,2,-1
 717 1215 l 1,3,-1
 519 1215 l 1,4,-1
 519 548 l 1,5,-1
 310 531 l 1,6,-1
 310 1215 l 1,7,-1
 92 1215 l 1,0,-1
1032 1104 m 1,8,-1
 1032 548 l 1,9,-1
 860 539 l 1,10,-1
 860 1381 l 1,11,-1
 1165 1389 l 1,12,-1
 1306 888 l 1,13,-1
 1446 1364 l 1,14,-1
 1724 1382 l 1,15,-1
 1724 548 l 1,16,-1
 1508 531 l 1,17,-1
 1508 1100 l 1,18,-1
 1340 539 l 1,19,-1
 1211 539 l 1,20,-1
 1032 1104 l 1,8,-1
EndSplineSet
EndChar

StartChar: Delta
Encoding: 8710 8710 422
Width: 1047
Flags: W
LayerCount: 2
Fore
SplineSet
385 1322 m 1,0,-1
 650 1322 l 1,1,-1
 1004 0 l 1,2,-1
 44 0 l 1,3,-1
 385 1322 l 1,0,-1
412 192 m 1,4,-1
 719 192 l 1,5,-1
 553 907 l 1,6,-1
 412 192 l 1,4,-1
EndSplineSet
EndChar

StartChar: product
Encoding: 8719 8719 423
Width: 1171
Flags: W
LayerCount: 2
Fore
SplineSet
730 1238 m 1,0,-1
 442 1238 l 1,1,-1
 442 12 l 1,2,-1
 142 -12 l 1,3,-1
 142 1512 l 1,4,-1
 1030 1512 l 1,5,-1
 1030 12 l 1,6,-1
 730 -12 l 1,7,-1
 730 1238 l 1,0,-1
EndSplineSet
EndChar

StartChar: minus
Encoding: 8722 8722 425
Width: 804
Flags: W
LayerCount: 2
Fore
SplineSet
114 718 m 1,0,-1
 690 718 l 1,1,-1
 690 480 l 1,2,-1
 114 480 l 1,3,-1
 114 718 l 1,0,-1
EndSplineSet
EndChar

StartChar: integral
Encoding: 8747 8747 428
Width: 709
Flags: W
LayerCount: 2
Fore
SplineSet
498 -22 m 2,0,1
 498 -92 498 -92 492.5 -158.5 c 128,-1,2
 487 -225 487 -225 459.5 -277.5 c 128,-1,3
 432 -330 432 -330 374 -362 c 128,-1,4
 316 -394 316 -394 212 -394 c 0,5,6
 158 -394 158 -394 121.5 -389.5 c 128,-1,7
 85 -385 85 -385 62 -379 c 0,8,9
 35 -373 35 -373 17 -364 c 1,10,-1
 17 -192 l 1,11,-1
 80 -192 l 2,12,13
 125 -192 125 -192 151 -177 c 128,-1,14
 177 -162 177 -162 190 -138 c 128,-1,15
 203 -114 203 -114 206.5 -83.5 c 128,-1,16
 210 -53 210 -53 210 -21 c 2,17,-1
 210 1174 l 2,18,19
 210 1244 210 1244 215.5 1310.5 c 128,-1,20
 221 1377 221 1377 248.5 1429.5 c 128,-1,21
 276 1482 276 1482 334 1514 c 128,-1,22
 392 1546 392 1546 496 1546 c 0,23,24
 549 1546 549 1546 586 1541 c 128,-1,25
 623 1536 623 1536 646 1531 c 0,26,27
 673 1524 673 1524 691 1516 c 1,28,-1
 691 1344 l 1,29,-1
 628 1344 l 2,30,31
 583 1344 583 1344 557 1329 c 128,-1,32
 531 1314 531 1314 518 1290 c 128,-1,33
 505 1266 505 1266 501.5 1235 c 128,-1,34
 498 1204 498 1204 498 1173 c 2,35,-1
 498 -22 l 2,0,1
EndSplineSet
EndChar

StartChar: lessequal
Encoding: 8804 8804 431
Width: 979
Flags: W
LayerCount: 2
Fore
SplineSet
61 823 m 1,0,-1
 61 1088 l 1,1,-1
 871 1448 l 1,2,-1
 857 1187 l 1,3,-1
 406 991 l 1,4,-1
 883 816 l 1,5,-1
 869 473 l 1,6,-1
 61 823 l 1,0,-1
184 237 m 1,7,-1
 760 237 l 1,8,-1
 760 -1 l 1,9,-1
 184 -1 l 1,10,-1
 184 237 l 1,7,-1
EndSplineSet
EndChar

StartChar: greaterequal
Encoding: 8805 8805 432
Width: 979
Flags: W
LayerCount: 2
Fore
SplineSet
110 473 m 1,0,-1
 96 816 l 1,1,-1
 573 991 l 1,2,-1
 122 1187 l 1,3,-1
 108 1448 l 1,4,-1
 918 1088 l 1,5,-1
 918 823 l 1,6,-1
 110 473 l 1,0,-1
219 238 m 1,7,-1
 795 238 l 1,8,-1
 795 0 l 1,9,-1
 219 0 l 1,10,-1
 219 238 l 1,7,-1
EndSplineSet
EndChar

StartChar: lozenge
Encoding: 9674 9674 433
Width: 938
Flags: W
LayerCount: 2
Fore
SplineSet
887 642 m 1,0,-1
 605 0 l 1,1,-1
 340 0 l 1,2,-1
 50 642 l 1,3,-1
 50 797 l 1,4,-1
 340 1440 l 1,5,-1
 605 1440 l 1,6,-1
 887 797 l 1,7,-1
 887 642 l 1,0,-1
296 720 m 1,8,-1
 461 321 l 1,9,-1
 605 720 l 1,10,-1
 461 1119 l 1,11,-1
 296 720 l 1,8,-1
EndSplineSet
EndChar

StartChar: commaaccent
Encoding: 63171 63171 434
Width: 481
Flags: W
LayerCount: 2
Fore
SplineSet
390 672 m 1,0,-1
 390 384 l 2,1,2
 390 330 390 330 379.5 289 c 128,-1,3
 369 248 369 248 352.5 217.5 c 128,-1,4
 336 187 336 187 314 166 c 128,-1,5
 292 145 292 145 270 132 c 0,6,7
 217 100 217 100 150 96 c 1,8,-1
 150 288 l 1,9,10
 186 288 186 288 205.5 303 c 128,-1,11
 225 318 225 318 234 336 c 0,12,13
 245 357 245 357 246 384 c 1,14,-1
 102 384 l 1,15,-1
 102 672 l 1,16,-1
 390 672 l 1,0,-1
EndSplineSet
EndChar

StartChar: fi
Encoding: 64257 64257 437
Width: 1287
Flags: W
LayerCount: 2
Fore
SplineSet
875 915 m 1,0,-1
 465 915 l 1,1,-1
 465 12 l 1,2,-1
 177 -12 l 1,3,-1
 177 917 l 1,4,-1
 35 917 l 1,5,-1
 59 1152 l 1,6,-1
 177 1152 l 1,7,-1
 177 1174 l 2,8,9
 177 1244 177 1244 182.5 1310.5 c 128,-1,10
 188 1377 188 1377 215.5 1429.5 c 128,-1,11
 243 1482 243 1482 301 1514 c 128,-1,12
 359 1546 359 1546 463 1546 c 0,13,14
 516 1546 516 1546 553 1541 c 128,-1,15
 590 1536 590 1536 613 1531 c 0,16,17
 640 1524 640 1524 658 1516 c 1,18,-1
 658 1344 l 1,19,-1
 595 1344 l 2,20,21
 550 1344 550 1344 524 1329 c 128,-1,22
 498 1314 498 1314 485 1290 c 128,-1,23
 472 1266 472 1266 468.5 1235 c 128,-1,24
 465 1204 465 1204 465 1173 c 2,25,-1
 465 1152 l 1,26,-1
 1163 1152 l 1,27,-1
 1163 12 l 1,28,-1
 875 -12 l 1,29,-1
 875 915 l 1,0,-1
1163 1600 m 1,30,-1
 1163 1300 l 1,31,-1
 875 1288 l 1,32,-1
 875 1600 l 1,33,-1
 1163 1600 l 1,30,-1
EndSplineSet
EndChar

StartChar: fl
Encoding: 64258 64258 438
Width: 1287
Flags: W
LayerCount: 2
Fore
SplineSet
875 1344 m 1,0,-1
 555 1344 l 2,1,2
 523 1344 523 1344 505 1329 c 128,-1,3
 487 1314 487 1314 478 1290 c 128,-1,4
 469 1266 469 1266 467 1235 c 128,-1,5
 465 1204 465 1204 465 1173 c 2,6,-1
 465 1152 l 1,7,-1
 656 1152 l 1,8,-1
 632 915 l 1,9,-1
 465 915 l 1,10,-1
 465 12 l 1,11,-1
 177 -12 l 1,12,-1
 177 917 l 1,13,-1
 35 917 l 1,14,-1
 59 1152 l 1,15,-1
 177 1152 l 1,16,-1
 177 1174 l 2,17,18
 177 1220 177 1220 179.5 1265 c 128,-1,19
 182 1310 182 1310 193 1350.5 c 128,-1,20
 204 1391 204 1391 228 1425 c 128,-1,21
 252 1459 252 1459 295 1483.5 c 128,-1,22
 338 1508 338 1508 403 1522 c 128,-1,23
 468 1536 468 1536 563 1536 c 2,24,-1
 1163 1536 l 1,25,-1
 1163 12 l 1,26,-1
 875 -12 l 1,27,-1
 875 1344 l 1,0,-1
EndSplineSet
EndChar

StartChar: zero.zero
Encoding: 65539 -1 441
Width: 1138
Flags: W
LayerCount: 2
Fore
SplineSet
568 -27 m 0,0,1
 467 -27 467 -27 393 8 c 128,-1,2
 319 43 319 43 267 103 c 128,-1,3
 215 163 215 163 182 243 c 128,-1,4
 149 323 149 323 130.5 413.5 c 128,-1,5
 112 504 112 504 104.5 599.5 c 128,-1,6
 97 695 97 695 97 786 c 0,7,8
 97 869 97 869 104.5 957.5 c 128,-1,9
 112 1046 112 1046 131 1130.5 c 128,-1,10
 150 1215 150 1215 183.5 1290.5 c 128,-1,11
 217 1366 217 1366 269 1423 c 128,-1,12
 321 1480 321 1480 394.5 1513 c 128,-1,13
 468 1546 468 1546 568 1546 c 0,14,15
 667 1546 667 1546 741 1513 c 128,-1,16
 815 1480 815 1480 867.5 1423 c 128,-1,17
 920 1366 920 1366 954 1290.5 c 128,-1,18
 988 1215 988 1215 1007.5 1130.5 c 128,-1,19
 1027 1046 1027 1046 1034.5 957.5 c 128,-1,20
 1042 869 1042 869 1042 786 c 0,21,22
 1041 695 1041 695 1033.5 599.5 c 128,-1,23
 1026 504 1026 504 1007 413.5 c 128,-1,24
 988 323 988 323 954.5 243 c 128,-1,25
 921 163 921 163 868.5 103 c 128,-1,26
 816 43 816 43 742 8 c 128,-1,27
 668 -27 668 -27 568 -27 c 0,0,1
568 228 m 256,28,29
 596 228 596 228 620.5 236 c 128,-1,30
 645 244 645 244 666 266 c 128,-1,31
 687 288 687 288 703 327 c 128,-1,32
 719 366 719 366 730.5 428 c 128,-1,33
 742 490 742 490 748 578 c 128,-1,34
 754 666 754 666 754 786 c 0,35,36
 754 900 754 900 749.5 995.5 c 128,-1,37
 745 1091 745 1091 726 1160.5 c 128,-1,38
 707 1230 707 1230 670 1269 c 128,-1,39
 633 1308 633 1308 568 1308 c 0,40,41
 502 1308 502 1308 465 1269 c 128,-1,42
 428 1230 428 1230 410.5 1160.5 c 128,-1,43
 393 1091 393 1091 389.5 995.5 c 128,-1,44
 386 900 386 900 386 786 c 0,45,46
 386 666 386 666 391.5 578 c 128,-1,47
 397 490 397 490 408 428 c 128,-1,48
 419 366 419 366 435 327 c 128,-1,49
 451 288 451 288 471 266 c 128,-1,50
 491 244 491 244 515.5 236 c 128,-1,51
 540 228 540 228 568 228 c 256,28,29
EndSplineSet
EndChar
